<?xml version="1.0" encoding="UTF-8" standalone="no"?>
<svg id="svg7384" xmlns:rdf="http://www.w3.org/1999/02/22-rdf-syntax-ns#" style="enable-background:new" xmlns="http://www.w3.org/2000/svg" xmlns:osb="http://www.openswatchbook.org/uri/2009/osb" height="16" width="16" version="1.1" xmlns:cc="http://creativecommons.org/ns#" xmlns:dc="http://purl.org/dc/elements/1.1/">
 <metadata id="metadata90">
  <rdf:RDF>
   <cc:Work rdf:about="">
    <dc:format>image/svg+xml</dc:format>
    <dc:type rdf:resource="http://purl.org/dc/dcmitype/StillImage"/>
    <dc:title>Moka Symbolic Icon Theme</dc:title>
   </cc:Work>
  </rdf:RDF>
 </metadata>
 <title id="title8473">Moka Symbolic Icon Theme</title>
 <defs id="defs7386">
  <filter id="filter7554" color-interpolation-filters="sRGB">
   <feBlend id="feBlend7556" mode="darken" in2="BackgroundImage"/>
  </filter>
 </defs>
 <g id="layer2" transform="translate(-444,-420)">
  <path id="path1871-59-5" style="block-progression:tb;text-indent:0;color:#000000;enable-background:accumulate;text-transform:none;fill:#bebebe" d="m446.5 420c-1.3748 0-2.5 1.1252-2.5 2.5 0 0.7527 0.34411 1.4156 0.875 1.875-0.5552 1.0884-0.875 2.3216-0.875 3.625s0.3198 2.5366 0.875 3.625c-0.53089 0.4594-0.875 1.1223-0.875 1.875 0 1.3748 1.1252 2.5 2.5 2.5 0.75271 0 1.4156-0.3441 1.875-0.875 1.0884 0.5552 2.3217 0.875 3.625 0.875s2.5366-0.3198 3.625-0.875c0.45937 0.5309 1.1223 0.875 1.875 0.875 1.3748 0 2.5-1.1252 2.5-2.5 0-0.7527-0.34411-1.4156-0.875-1.875 0.5552-1.0884 0.875-2.3216 0.875-3.625s-0.3198-2.5366-0.875-3.625c0.53089-0.4594 0.875-1.1223 0.875-1.875 0-1.3748-1.1252-2.5-2.5-2.5-0.75271 0-1.4156 0.3441-1.875 0.875-1.08-0.56-2.32-0.88-3.62-0.88-1.3033 0-2.5366 0.3198-3.625 0.875-0.46-0.54-1.13-0.88-1.88-0.88zm0 1c0.39264 0 0.73387 0.1632 1 0.4063-0.82433 0.5638-1.5299 1.2694-2.0938 2.0937-0.24303-0.2661-0.40625-0.6074-0.40625-1 0-0.8343 0.66565-1.5 1.5-1.5zm5.5 0c0.96756 0 1.8811 0.2086 2.7188 0.5625-0.54382 0.7472-1.0196 1.5765-1.2188 2.6563-0.46807-0.1897-0.96656-0.2813-1.5-0.2813-0.55799 0-1.077 0.106-1.5625 0.3125-0.25114-0.9858-0.62321-1.896-1.1562-2.6875 0.84-0.35 1.75-0.56 2.72-0.56zm5.5 0c0.83435 0 1.5 0.6657 1.5 1.5 0 0.3926-0.16322 0.7339-0.40625 1-0.56385-0.8243-1.2694-1.5299-2.0938-2.0937 0.26613-0.2431 0.60736-0.4063 1-0.4063zm-5.5 3.9375c1.6909 0 3.0625 1.3715 3.0625 3.0625s-1.3716 3.0625-3.0625 3.0625-3.0625-1.3715-3.0625-3.0625 1.3716-3.0625 3.0625-3.0625zm-6.3125 0.094c1.0917 0.1206 1.8932 0.6226 2.6562 1.2187-0.25964 0.534-0.40625 1.1199-0.40625 1.75 0 0.5473 0.11345 1.0533 0.3125 1.5313-0.90711 0.1975-1.8116 0.3855-2.7188 1.125-0.34-0.82-0.53-1.72-0.53-2.66 0-1.0662 0.26245-2.0649 0.6875-2.9687zm12.625 0c0.42505 0.9038 0.6875 1.9025 0.6875 2.9687 0 0.9322-0.20155 1.8122-0.53125 2.625-0.71492-0.5788-1.6744-0.8964-2.7188-1.0937 0.19905-0.478 0.3125-0.984 0.3125-1.5313 0-0.6301-0.14661-1.216-0.40625-1.75 0.90783-0.6693 1.8129-1.1093 2.6562-1.2187zm-8.0938 6.625c0.54008 0.267 1.1416 0.4062 1.7812 0.4062 0.62059 0 1.191-0.1539 1.7188-0.4062 0.53619 0.7606 0.89643 1.6915 1.1562 2.7187-0.87801 0.396-1.8481 0.625-2.875 0.625-1.0415 0-2.0186-0.2495-2.9062-0.6562 0.19873-1.0039 0.52742-1.9402 1.125-2.6875zm-4.8125 0.8437c0.56385 0.8243 1.2694 1.5299 2.0938 2.0938-0.26613 0.243-0.60736 0.4062-1 0.4062-0.83435 0-1.5-0.6657-1.5-1.5 0-0.3926 0.16322-0.7339 0.40625-1zm13.188 0c0.24303 0.2661 0.40625 0.6074 0.40625 1 0 0.8343-0.66565 1.5-1.5 1.5-0.39264 0-0.73387-0.1632-1-0.4062 0.82433-0.5639 1.5299-1.2695 2.0938-2.0938z"/>
 </g>
</svg>
