<?xml version="1.0" encoding="UTF-8" standalone="no"?>
<svg
   xmlns:dc="http://purl.org/dc/elements/1.1/"
   xmlns:cc="http://creativecommons.org/ns#"
   xmlns:rdf="http://www.w3.org/1999/02/22-rdf-syntax-ns#"
   xmlns:svg="http://www.w3.org/2000/svg"
   xmlns="http://www.w3.org/2000/svg"
   xmlns:sodipodi="http://sodipodi.sourceforge.net/DTD/sodipodi-0.dtd"
   xmlns:inkscape="http://www.inkscape.org/namespaces/inkscape"
   viewBox="0 0 48 48"
   id="svg2"
   version="1.1"
   inkscape:version="0.91 r13725"
   sodipodi:docname="music.svg">
  <metadata
     id="metadata49">
    <rdf:RDF>
      <cc:Work
         rdf:about="">
        <dc:format>image/svg+xml</dc:format>
        <dc:type
           rdf:resource="http://purl.org/dc/dcmitype/StillImage" />
        <dc:title></dc:title>
      </cc:Work>
    </rdf:RDF>
  </metadata>
  <sodipodi:namedview
     pagecolor="#ffffff"
     bordercolor="#666666"
     borderopacity="1"
     objecttolerance="10"
     gridtolerance="10"
     guidetolerance="10"
     inkscape:pageopacity="0"
     inkscape:pageshadow="2"
     inkscape:window-width="1305"
     inkscape:window-height="744"
     id="namedview47"
     showgrid="false"
     inkscape:zoom="12.116878"
     inkscape:cx="29.663844"
     inkscape:cy="23.808511"
     inkscape:window-x="61"
     inkscape:window-y="24"
     inkscape:window-maximized="1"
     inkscape:current-layer="layer3" />
  <defs
     id="defs4">
    <linearGradient
       id="linearGradient3764"
       x1="1"
       x2="47"
       gradientUnits="userSpaceOnUse"
       gradientTransform="matrix(0,-1,1,0,-1.5e-6,47.999998)">
      <stop
         style="stop-color:#0bb8f9;stop-opacity:1"
         id="stop7" />
      <stop
         offset="1"
         style="stop-color:#20bef9;stop-opacity:1"
         id="stop9" />
    </linearGradient>
  </defs>
  <g
     id="g11">
    <path
       d="m 36.31 5 c 5.859 4.062 9.688 10.831 9.688 18.5 c 0 12.426 -10.07 22.5 -22.5 22.5 c -7.669 0 -14.438 -3.828 -18.5 -9.688 c 1.037 1.822 2.306 3.499 3.781 4.969 c 4.085 3.712 9.514 5.969 15.469 5.969 c 12.703 0 23 -10.298 23 -23 c 0 -5.954 -2.256 -11.384 -5.969 -15.469 c -1.469 -1.475 -3.147 -2.744 -4.969 -3.781 z m 4.969 3.781 c 3.854 4.113 6.219 9.637 6.219 15.719 c 0 12.703 -10.297 23 -23 23 c -6.081 0 -11.606 -2.364 -15.719 -6.219 c 4.16 4.144 9.883 6.719 16.219 6.719 c 12.703 0 23 -10.298 23 -23 c 0 -6.335 -2.575 -12.06 -6.719 -16.219 z"
       style="opacity:0.05"
       id="path13" />
    <path
       d="m 41.28 8.781 c 3.712 4.085 5.969 9.514 5.969 15.469 c 0 12.703 -10.297 23 -23 23 c -5.954 0 -11.384 -2.256 -15.469 -5.969 c 4.113 3.854 9.637 6.219 15.719 6.219 c 12.703 0 23 -10.298 23 -23 c 0 -6.081 -2.364 -11.606 -6.219 -15.719 z"
       style="opacity:0.1"
       id="path15" />
    <path
       d="m 31.25 2.375 c 8.615 3.154 14.75 11.417 14.75 21.13 c 0 12.426 -10.07 22.5 -22.5 22.5 c -9.708 0 -17.971 -6.135 -21.12 -14.75 a 23 23 0 0 0 44.875 -7 a 23 23 0 0 0 -16 -21.875 z"
       style="opacity:0.2"
       id="path17" />
  </g>
  <g
     id="g19"
     style="stroke:none;stroke-opacity:1">
    <path
       d="m 24 1 c 12.703 0 23 10.297 23 23 c 0 12.703 -10.297 23 -23 23 -12.703 0 -23 -10.297 -23 -23 0 -12.703 10.297 -23 23 -23 z"
       style="fill:url(#linearGradient3764);fill-opacity:1;stroke:none;stroke-opacity:1"
       id="path21" />
  </g>
  <g
     inkscape:groupmode="layer"
     id="layer1"
     inkscape:label="base" />
  <path
     style="fill:#bd18a3;fill-opacity:1;stroke:#bd18a3;stroke-width:0.30000001;stroke-linejoin:round;stroke-miterlimit:4;stroke-dasharray:none;stroke-opacity:1"
     d="M 21.949332,46.798316 C 16.924814,46.427003 12.078393,44.24353 8.2863111,40.642674 3.3453223,35.950849 0.88653387,29.830798 1.1747946,22.941746 1.4645961,16.015871 4.7485511,9.8336677 10.372882,5.6259045 c 9.157131,-6.850778 21.910588,-5.82935937 30.014202,2.4038242 6.035238,6.1317343 8.081998,15.3412453 5.230825,23.5363733 -1.20777,3.471494 -3.096724,6.390563 -5.817478,8.989954 -4.86107,4.644238 -10.899964,6.755949 -17.851099,6.24226 z"
     id="path4151"
     inkscape:connector-curvature="0" />
  <g
     inkscape:groupmode="layer"
     id="layer2"
     inkscape:label="front">
    <g
       transform="matrix(1.0954614,0,0,1.0954614,14.177782,18.626196)"
       id="layer1-0"
       style="color:#bebebe;display:inline;overflow:visible;visibility:visible;fill:#ffffff;fill-opacity:1;fill-rule:nonzero;stroke:none;stroke-width:1;marker:none;enable-background:accumulate">
      <path
         d="m 15.640269,-5.9862811 -11.20227,2.3034046 c -0.8414993,0.1793712 -1.5189519,0.8929138 -1.5189519,1.5859507 l 0,10.9883731 C 2.0657439,8.5360057 0.96984303,8.3922783 -0.16632377,8.627122 -2.2165499,9.0509012 -3.501311,10.420487 -3.0618258,11.685741 c 0.4394851,1.265254 2.45916223,1.971969 4.5093883,1.54819 1.6356583,-0.338088 2.7631507,-1.294677 2.9429693,-2.303404 l -0.027871,-13.2010042 10.7080012,-2.3255759 0,11.0708134 C 14.217359,6.1193188 13.121458,5.9755907 11.985291,6.2104352 9.9350649,6.6342145 8.6503039,8.0038007 9.0897889,9.2690543 c 0.439485,1.2652547 2.4591621,1.9719687 4.5093891,1.5481897 1.635659,-0.338088 2.763151,-1.294677 2.942969,-2.3034044 l 0.04747,-13.5183418 c 0,-0.5197776 -0.403804,-0.9086601 -0.949348,-0.9817789 z"
         inkscape:connector-curvature="0"
         id="rect2996"
         style="color:#bebebe;display:inline;overflow:visible;visibility:visible;fill:#ffffff;fill-opacity:1;fill-rule:nonzero;stroke:none;stroke-width:1;marker:none;enable-background:accumulate"
         sodipodi:nodetypes="ccscsssccccsssccc" />
    </g>
    <ellipse
       style="fill:#bd18a3;fill-opacity:1;stroke:#bd18a3;stroke-width:0.33817983;stroke-linejoin:round;stroke-miterlimit:4;stroke-dasharray:none;stroke-opacity:1"
       id="path4227"
       cx="11.951046"
       cy="31.915312"
       rx="2.1282389"
       ry="1.0512635"
       transform="matrix(0.99551022,-0.09465409,0.08492275,0.99638754,0,0)" />
    <ellipse
       style="fill:#bd18a3;fill-opacity:1;stroke:#bd18a3;stroke-width:0.33817983;stroke-linejoin:round;stroke-miterlimit:4;stroke-dasharray:none;stroke-opacity:1"
       id="path4227-2"
       cx="25.497452"
       cy="30.551664"
       rx="2.1282389"
       ry="1.0512635"
       transform="matrix(0.99551022,-0.09465409,0.08492275,0.99638754,0,0)" />
  </g>
  <g
     inkscape:groupmode="layer"
     id="layer3"
     inkscape:label="Original"
     style="opacity:0.451" />
</svg>
