<?xml version="1.0" encoding="UTF-8" standalone="no"?>
<!-- Created with Inkscape (http://www.inkscape.org/) -->

<svg
   xmlns:dc="http://purl.org/dc/elements/1.1/"
   xmlns:cc="http://creativecommons.org/ns#"
   xmlns:rdf="http://www.w3.org/1999/02/22-rdf-syntax-ns#"
   xmlns:svg="http://www.w3.org/2000/svg"
   xmlns="http://www.w3.org/2000/svg"
   xmlns:xlink="http://www.w3.org/1999/xlink"
   xmlns:sodipodi="http://sodipodi.sourceforge.net/DTD/sodipodi-0.dtd"
   xmlns:inkscape="http://www.inkscape.org/namespaces/inkscape"
   width="128mm"
   height="128mm"
   viewBox="0 0 453.54331 453.54331"
   id="svg5899"
   version="1.1"
   inkscape:version="0.91 r13725"
   sodipodi:docname="user-bookmarks.svg">
  <defs
     id="defs5901" />
  <sodipodi:namedview
     id="base"
     pagecolor="#ffffff"
     bordercolor="#666666"
     borderopacity="1.0"
     inkscape:pageopacity="0.0"
     inkscape:pageshadow="2"
     inkscape:zoom="0.98994949"
     inkscape:cx="221.94458"
     inkscape:cy="237.73089"
     inkscape:document-units="px"
     inkscape:current-layer="layer3"
     showgrid="false"
     inkscape:window-width="1366"
     inkscape:window-height="710"
     inkscape:window-x="0"
     inkscape:window-y="30"
     inkscape:window-maximized="1"
     showguides="true"
     inkscape:guide-bbox="true">
    <sodipodi:guide
       position="158.57143,295.71429"
       orientation="1,0"
       id="guide7297" />
    <sodipodi:guide
       position="292.85715,231.42857"
       orientation="1,0"
       id="guide7299" />
    <sodipodi:guide
       position="251.42857,280"
       orientation="0,1"
       id="guide7301" />
    <sodipodi:guide
       position="237.14286,125.71429"
       orientation="0,1"
       id="guide7303" />
  </sodipodi:namedview>
  <metadata
     id="metadata5904">
    <rdf:RDF>
      <cc:Work
         rdf:about="">
        <dc:format>image/svg+xml</dc:format>
        <dc:type
           rdf:resource="http://purl.org/dc/dcmitype/StillImage" />
        <dc:title></dc:title>
      </cc:Work>
    </rdf:RDF>
  </metadata>
  <g
     inkscape:label="Camada 1"
     inkscape:groupmode="layer"
     id="layer1"
     transform="translate(0,-598.8189)">
    <path
       id="rect3967-4"
       d="m 65.118596,648.94703 c -3.90273,0 -7.04464,3.13195 -7.04464,7.02232 l 0,21.06696 -21.133926,0 c -3.902733,0 -7.044643,3.13196 -7.044643,7.02233 l 0,94.80133 c 0,3.89037 3.14191,7.02233 7.044643,7.02233 l 380.41071,0 c 3.90274,0 7.04465,-3.13196 7.04465,-7.02233 l 0,-94.80133 c 0,-3.89037 -3.14191,-7.02233 -7.04465,-7.02233 l -218.38392,0 0,-21.06696 c 0,-3.89037 -3.14191,-7.02232 -7.04464,-7.02232 z"
       style="fill:#4f6698;fill-opacity:0.26666667;stroke:#000000;stroke-width:0;stroke-miterlimit:4;stroke-dasharray:none;stroke-opacity:1"
       inkscape:connector-curvature="0"
       sodipodi:nodetypes="sscsssssssscsss" />
    <path
       style="fill:#ffffff;fill-opacity:1;stroke:#000000;stroke-width:0;stroke-miterlimit:4;stroke-dasharray:none;stroke-opacity:1"
       d="m 65.118606,652.45819 c -1.83315,0 -3.52233,1.61419 -3.52233,3.51116 l 0,24.57813 -24.656246,0 c -1.951366,0 -3.522321,1.56597 -3.522321,3.51116 l 0,91.29017 c 0,1.94519 1.570955,3.51117 3.522321,3.51117 l 380.41072,0 c 1.95136,0 3.52232,-1.56598 3.52232,-3.51117 l 0,-91.29017 c 0,-1.94519 -1.57096,-3.51116 -3.52232,-3.51116 l -221.90625,0 0,-24.57813 c 0.0378,-1.92784 -1.71645,-3.51116 -3.52232,-3.51116 l -126.803574,0 z"
       id="rect3969-17"
       inkscape:connector-curvature="0" />
    <path
       style="fill:#e77f5b;fill-opacity:0.56078384;stroke:#000000;stroke-width:0;stroke-miterlimit:4;stroke-dasharray:none;stroke-opacity:1"
       d="m 14.319418,712.73276 427.080512,0 c 3.81618,0 7.01142,3.79085 6.88839,8.49416 l -6.88839,263.31968 c -0.12296,4.70332 -3.07223,8.49416 -6.8884,8.49416 l -413.303719,0 c -3.816171,0 -6.765355,-3.79084 -6.888394,-8.49416 L 7.4310242,721.22692 c -0.1230372,-4.70331 3.0722228,-8.49416 6.8883938,-8.49416 z"
       id="rect3915-1"
       inkscape:connector-curvature="0"
       sodipodi:nodetypes="sssssssss" />
    <path
       style="fill:#dd4814;fill-opacity:1;stroke:#000000;stroke-width:0;stroke-miterlimit:4;stroke-dasharray:none;stroke-opacity:1"
       d="m 14.319418,716.97985 427.080512,0 c 1.90808,0 3.50571,1.89542 3.4442,4.24707 l -6.8884,263.31971 c -0.0616,2.35165 -1.53611,4.24706 -3.4442,4.24706 l -413.303719,0 c -1.908085,0 -3.382678,-1.89541 -3.444196,-4.24706 L 10.875222,721.22692 c -0.06152,-2.35165 1.536111,-4.24707 3.444196,-4.24707 z"
       id="rect3957-7"
       inkscape:connector-curvature="0"
       sodipodi:nodetypes="sssssssss" />
    <rect
       style="opacity:1;fill:none;fill-opacity:1;stroke:none;stroke-width:1;stroke-linecap:butt;stroke-linejoin:miter;stroke-miterlimit:4;stroke-dasharray:none;stroke-dashoffset:0;stroke-opacity:1"
       id="rect4139-5"
       width="450.85715"
       height="449.42856"
       x="1.7168154"
       y="601.21936" />
  </g>
  <g
     inkscape:groupmode="layer"
     id="layer3"
     inkscape:label="Camada 3">
    <use
       x="0"
       y="0"
       xlink:href="#folder_128"
       id="use8279"
       transform="translate(-279.71429,128.25759)"
       width="100%"
       height="100%"
       style="fill:#dd4814" />
    <g
       id="layer1-0"
       inkscape:label="icon"
       transform="matrix(3.4412026,0,0,3.4412026,6.0371993,3.9441838)">
      <path
         style="display:inline;opacity:0.3;fill:none;fill-opacity:1;stroke:#000000;stroke-width:1;stroke-linecap:round;stroke-linejoin:round;stroke-miterlimit:4;stroke-dasharray:none;stroke-dashoffset:0;stroke-opacity:1"
         inkscape:transform-center-x="0.00029759694"
         inkscape:transform-center-y="-0.84427813"
         d="m 79.32615,93.097692 -15.32331,-8.068319 -15.32286,8.070674 5.1026,-15.357948 -13.28266,-11.261624 16.34789,0 7.15221,-16.380545 7.15217,16.380545 16.34789,0 -13.28266,11.261624 z"
         id="path3092-8-72"
         inkscape:connector-curvature="0"
         sodipodi:nodetypes="ccccccccccc" />
      <path
         style="display:inline;opacity:0.15;fill:#000000;fill-opacity:1;stroke:none;stroke-width:1;stroke-linecap:round;stroke-linejoin:round;stroke-miterlimit:4;stroke-dasharray:none;stroke-dashoffset:0;stroke-opacity:1"
         d="m 64.000001,51.351562 -6.69336,15.328126 a 0.50005,0.50005 0 0 1 -0.45898,0.300781 l -14.98438,0 12.24219,10.380859 a 0.50005,0.50005 0 0 1 0.15234,0.539063 l -4.71289,14.179687 14.22461,-7.492187 a 0.50005,0.50005 0 0 1 0.4668,0 l 14.22265,7.490234 -4.71679,-14.177734 a 0.50005,0.50005 0 0 1 0.15234,-0.539063 l 12.24219,-10.380859 -14.98438,0 a 0.50005,0.50005 0 0 1 -0.45898,-0.300781 l -6.69336,-15.328126 z"
         id="path3092-8-72-0"
         inkscape:connector-curvature="0" />
    </g>
  </g>
  <g
     inkscape:groupmode="layer"
     id="layer2"
     inkscape:label="Camada 2" />
</svg>
