<?xml version="1.0" encoding="UTF-8" standalone="no"?>
<svg id="svg7384" xmlns:rdf="http://www.w3.org/1999/02/22-rdf-syntax-ns#" style="enable-background:new" xmlns="http://www.w3.org/2000/svg" xmlns:osb="http://www.openswatchbook.org/uri/2009/osb" height="24" width="24" version="1.1" xmlns:cc="http://creativecommons.org/ns#" xmlns:dc="http://purl.org/dc/elements/1.1/">
 <metadata id="metadata90">
  <rdf:RDF>
   <cc:Work rdf:about="">
    <dc:format>image/svg+xml</dc:format>
    <dc:type rdf:resource="http://purl.org/dc/dcmitype/StillImage"/>
    <dc:title>Moka Symbolic Icon Theme</dc:title>
   </cc:Work>
  </rdf:RDF>
 </metadata>
 <title id="title8473">Moka Symbolic Icon Theme</title>
 <defs id="defs7386">
  <filter id="filter7554" color-interpolation-filters="sRGB">
   <feBlend id="feBlend7556" in2="BackgroundImage" mode="darken"/>
  </filter>
 </defs>
 <g id="layer9" transform="translate(-281 368)">
  <path id="path6553" style="opacity:.35" d="m288-356v7c0 1 1 1 1 1h8c1 0 1-1 1-1v-7h-10z"/>
  <path id="path7425" style="opacity:.35;fill:#fff" d="m291-363v1h4v-1zm-2.1562 2c-0.28125 0.0469-0.84375 0.25-0.84375 1v10c0 1 1 1 1 1h8c1 0 1-1 1-1v-10s0-1-1-1h-8s-0.0625-0.0156-0.15625 0z"/>
  <path id="path6020" style="fill:#fff" d="m288-357v7c0 1 1 1 1 1h8c1 0 1-1 1-1v-7h-10z"/>
 </g>
</svg>
