<?xml version="1.0" encoding="UTF-8" standalone="no"?>
<svg
   xmlns:osb="http://www.openswatchbook.org/uri/2009/osb"
   xmlns:dc="http://purl.org/dc/elements/1.1/"
   xmlns:cc="http://creativecommons.org/ns#"
   xmlns:rdf="http://www.w3.org/1999/02/22-rdf-syntax-ns#"
   xmlns:svg="http://www.w3.org/2000/svg"
   xmlns="http://www.w3.org/2000/svg"
   width="24"
   version="1.1"
   style="enable-background:new"
   id="svg7384"
   height="24">
  <metadata
     id="metadata90">
    <rdf:RDF>
      <cc:Work
         rdf:about="">
        <dc:format>image/svg+xml</dc:format>
        <dc:type
           rdf:resource="http://purl.org/dc/dcmitype/StillImage" />
        <dc:title>Moka Symbolic Icon Theme</dc:title>
      </cc:Work>
    </rdf:RDF>
  </metadata>
  <title
     id="title8473">Moka Symbolic Icon Theme</title>
  <defs
     id="defs7386">
    <linearGradient
       osb:paint="solid"
       id="linearGradient5606">
      <stop
         style="stop-color:#000000;stop-opacity:1;"
         offset="0"
         id="stop5608" />
    </linearGradient>
    <filter
       id="filter7554"
       color-interpolation-filters="sRGB">
      <feBlend
         mode="darken"
         in2="BackgroundImage"
         id="feBlend7556" />
    </filter>
  </defs>
  <g
     transform="translate(-441.00018,368.00336)"
     style="display:inline"
     id="layer9">
    <path
       d="m 448.0002,-354 0,5 c 0,1 1,1 1,1 l 8,0 c 1,0 1,-1 1,-1 l 0,-5 -2.59375,0 -2.40625,4 0,-3 -3,0 0.59375,-1 -2.59375,0 z"
       id="path6559"
       style="fill:#000000;fill-opacity:1;stroke:none;display:inline;enable-background:new;opacity:0.35" />
    <path
       style="opacity:0.35;fill:#ffffff;fill-opacity:1;stroke:none;display:inline;enable-background:new"
       id="path7904"
       d="m 451.0002,-363 0,1 4,0 0,-1 -4,0 z m -2.15625,2 c -0.28125,0.0469 -0.84375,0.25 -0.84375,1 l 0,10 c 0,1 1,1 1,1 l 8,0 c 1,0 1,-1 1,-1 l 0,-10 c 0,0 0,-1 -1,-1 l -8,0 c 0,0 -0.0625,-0.0156 -0.15625,0 z m 4.15625,2 0,3 3,0 -3,5 0,-3 -3,0 3,-5 z" />
    <path
       style="fill:#ffffff;fill-opacity:1;stroke:none;display:inline;enable-background:new"
       id="path6102"
       d="m 448.0002,-355 0,5 c 0,1 1,1 1,1 l 8,0 c 1,0 1,-1 1,-1 l 0,-5 -2.59375,0 -2.40625,4 0,-3 -3,0 0.59375,-1 -2.59375,0 z" />
  </g>
  <g
     transform="translate(-441.00018,368.00336)"
     style="display:inline;filter:url(#filter7554)"
     id="layer10" />
  <g
     transform="translate(-199.99998,-248.99664)"
     style="display:inline"
     id="layer1" />
  <g
     transform="translate(-441.00018,368.00336)"
     style="display:inline"
     id="layer14" />
  <g
     transform="translate(-441.00018,368.00336)"
     style="display:inline"
     id="layer15" />
  <g
     transform="translate(-441.00018,368.00336)"
     style="display:inline"
     id="g71291" />
  <g
     transform="translate(-199.99998,-98.996643)"
     style="display:inline"
     id="layer2" />
  <g
     transform="translate(-199.99998,-98.996643)"
     style="display:inline"
     id="g6058" />
  <g
     transform="translate(-441.00018,368.00336)"
     style="display:inline"
     id="layer12" />
</svg>
