<?xml version="1.0" encoding="UTF-8" standalone="no"?>
<!-- Created with Inkscape (http://www.inkscape.org/) -->
<svg id="svg6530" xmlns:rdf="http://www.w3.org/1999/02/22-rdf-syntax-ns#" xmlns="http://www.w3.org/2000/svg" height="24" viewBox="0 0 24 24" width="24" version="1.1" xmlns:cc="http://creativecommons.org/ns#" xmlns:dc="http://purl.org/dc/elements/1.1/">
 <metadata id="metadata6535">
  <rdf:RDF>
   <cc:Work rdf:about="">
    <dc:format>image/svg+xml</dc:format>
    <dc:type rdf:resource="http://purl.org/dc/dcmitype/StillImage"/>
    <dc:title/>
   </cc:Work>
  </rdf:RDF>
 </metadata>
 <g id="layer1" transform="translate(-588 -916.36)">
  <path id="path3810" style="color:#000000;fill:#dbdee0" d="m600 919.36c-1-0.00029-2 0.89543-2 2v1 2s-1 0-1 1h6c0-1-1-1-1-1v-2-1c0-0.13807-0.005-0.27605-0.0312-0.40625-0.18654-0.91137-0.96884-1.5935-1.9688-1.5938zm0 1c0.41421 0 0.75444 0.26608 0.90625 0.625 0.0506 0.11964 0.0937 0.23693 0.0937 0.375 0 0.55228-0.44771 1-1 1s-1-0.44772-1-1 0.44771-1 1-1zm-3 1-3 0.002c-1 0-1 1-1 1v13s0 1 1 1h12c1 0 1-1 1-1v-13c0-1-1-1-1-1l-3-0.002v1h3v13h-12v-13h3z"/>
  <path id="rect15480" style="opacity:.35;fill:#dbdee0" d="m595 923.36v11h10v-11h-2v0.2793c0.475 0.2667 1 0.91819 1 1.7207v1h-8v-1c0-0.80251 0.525-1.454 1-1.7207v-0.2793h-2zm4 0v1h2v-1h-1-1z"/>
  <path id="path15500" style="color:#000000;fill:#dbdee0" d="m600 919.36c-1-0.00029-2 0.89543-2 2v1 2s-1 0-1 1h6c0-1-1-1-1-1v-2-1c0-0.13807-0.005-0.27605-0.0312-0.40625-0.18654-0.91137-0.96884-1.5935-1.9688-1.5938zm0 1c0.41421 0 0.75444 0.26608 0.90625 0.625 0.0506 0.11964 0.0937 0.23693 0.0937 0.375 0 0.55228-0.44771 1-1 1s-1-0.44772-1-1 0.44771-1 1-1z"/>
 </g>
</svg>
