<?xml version="1.0" encoding="UTF-8" standalone="no"?>
<!-- Created with Inkscape (http://www.inkscape.org/) -->
<svg id="svg6530" xmlns:rdf="http://www.w3.org/1999/02/22-rdf-syntax-ns#" xmlns="http://www.w3.org/2000/svg" height="24" viewBox="0 0 24 24" width="24" version="1.1" xmlns:cc="http://creativecommons.org/ns#" xmlns:dc="http://purl.org/dc/elements/1.1/">
 <metadata id="metadata6535">
  <rdf:RDF>
   <cc:Work rdf:about="">
    <dc:format>image/svg+xml</dc:format>
    <dc:type rdf:resource="http://purl.org/dc/dcmitype/StillImage"/>
    <dc:title/>
   </cc:Work>
  </rdf:RDF>
 </metadata>
 <g id="layer1" transform="translate(-516 -964.36)">
  <path id="path4188" style="color:#000000;fill:#dbdee0" d="m524.5 967.36c-0.277 0-0.5 0.223-0.5 0.5v1.6562c0.31943-0.083 0.65568-0.15625 1-0.15625h1v-1.5c0-0.277-0.223-0.5-0.5-0.5h-1zm3 0c-0.277 0-0.5 0.223-0.5 0.5v1.5h2v-1.5c0-0.277-0.223-0.5-0.5-0.5h-1zm3 0c-0.277 0-0.5 0.223-0.5 0.5v1.5h1c0.3443 0 0.6806 0.0733 1 0.15625v-1.6562c0-0.277-0.223-0.5-0.5-0.5h-1zm-5.5 3c-1.662 0-3 1.338-3 3v6c0 1.662 1.338 3 3 3h6c1.662 0 3-1.338 3-3v-6c0-1.662-1.338-3-3-3h-6zm-5.5 2c-0.277 0-0.5 0.223-0.5 0.5v1c0 0.277 0.223 0.5 0.5 0.5h1.5v-1c0-0.34432 0.0733-0.68057 0.15625-1h-1.6562zm5.5 0h6c0.554 0 1 0.446 1 1v6c0 0.554-0.446 1-1 1h-6c-0.554 0-1-0.446-1-1v-6c0-0.554 0.446-1 1-1zm9.8438 0c0.083 0.31943 0.1562 0.65568 0.1562 1v1h1.5c0.277 0 0.5-0.223 0.5-0.5v-1c0-0.277-0.223-0.5-0.5-0.5h-1.6562zm-9.8438 1v6h6v-6h-6zm-5.5 2c-0.277 0-0.5 0.223-0.5 0.5v1c0 0.277 0.223 0.5 0.5 0.5h1.5v-2h-1.5zm15.5 0v2h1.5c0.277 0 0.5-0.223 0.5-0.5v-1c0-0.277-0.223-0.5-0.5-0.5h-1.5zm-15.5 3c-0.277 0-0.5 0.223-0.5 0.5v1c0 0.277 0.223 0.5 0.5 0.5h1.6562c-0.083-0.31943-0.15625-0.65568-0.15625-1v-1h-1.5zm15.5 0v1c0 0.34432-0.073 0.68057-0.1562 1h1.6562c0.277 0 0.5-0.223 0.5-0.5v-1c0-0.277-0.223-0.5-0.5-0.5h-1.5zm-11 4.8438v1.6562c0 0.27699 0.223 0.5 0.5 0.5h1c0.277 0 0.5-0.22301 0.5-0.5v-1.5h-1c-0.34432 0-0.68057-0.0733-1-0.15625zm8 0c-0.3194 0.083-0.6557 0.15625-1 0.15625h-1v1.5c0 0.27699 0.223 0.5 0.5 0.5h1c0.277 0 0.5-0.22301 0.5-0.5v-1.6562zm-5 0.15625v1.5c0 0.27699 0.223 0.5 0.5 0.5h1c0.277 0 0.5-0.22301 0.5-0.5v-1.5h-2z"/>
 </g>
</svg>
