<?xml version="1.0" encoding="UTF-8" standalone="no"?>
<svg id="svg2" xmlns:rdf="http://www.w3.org/1999/02/22-rdf-syntax-ns#" xmlns="http://www.w3.org/2000/svg" height="24" width="24" version="1.1" xmlns:cc="http://creativecommons.org/ns#" xmlns:dc="http://purl.org/dc/elements/1.1/">
 <metadata id="metadata3401">
  <rdf:RDF>
   <cc:Work rdf:about="">
    <dc:format>image/svg+xml</dc:format>
    <dc:type rdf:resource="http://purl.org/dc/dcmitype/StillImage"/>
   </cc:Work>
  </rdf:RDF>
 </metadata>
 <g id="layer1" transform="translate(0,8)">
  <path id="path3828" style="opacity:.2;color:#000000" d="m8-2-4 3 4 3-4 3 8 6 8-6-4-3 4-3-4-3-4 3-4-3zm3 4h2l-0.25 5h-1.5l-0.25-5zm0 6h2v2h-2v-2z"/>
  <path id="path4281" style="color:#000000;fill:#e13f2b" d="m8-3-4 3 4 3-4 3 8 6 8-6-4-3 4-3-4-3-4 3-4-3zm3 4h2l-0.25 5h-1.5l-0.25-5zm0 6h2v2h-2v-2z"/>
 </g>
</svg>
