<?xml version="1.0" encoding="UTF-8" standalone="no"?>
<svg id="svg2987" xmlns:rdf="http://www.w3.org/1999/02/22-rdf-syntax-ns#" xmlns="http://www.w3.org/2000/svg" height="24" width="24" version="1.1" xmlns:cc="http://creativecommons.org/ns#" xmlns:dc="http://purl.org/dc/elements/1.1/">
 <metadata id="metadata3401">
  <rdf:RDF>
   <cc:Work rdf:about="">
    <dc:format>image/svg+xml</dc:format>
    <dc:type rdf:resource="http://purl.org/dc/dcmitype/StillImage"/>
   </cc:Work>
  </rdf:RDF>
 </metadata>
 <g id="layer1" transform="translate(0,8)">
  <path id="path3979" style="opacity:.2;color:#000000" d="m9-2-4 3 4 3-4 3 8 6 8-6-4-3 4-3-4-3-4 3-4-3zm1 4h0.40625c0.0311-0.003 0.0627-0.003 0.0937 0h2 0.5v3h-0.40625c-0.036 0.004-0.058 0.004-0.094 0-0.262 0-0.5-0.2382-0.5-0.5v-0.71875c0-0.0278 0.00003-0.0366 0-0.0625-0.882 0.3867-1.5 1.2535-1.5 2.2813s0.61745 1.9258 1.5 2.3125v1.0312c-1.437-0.434-2.5-1.7671-2.5-3.3437 0-1.2887 0.706-2.3947 1.75-3h-0.75c-0.229 0.006-0.45-0.1514-0.5-0.375-0.007-0.0204-0.0272-0.0413-0.0312-0.0625-0.001-0.0473 0.0195-0.1105 0.0312-0.1563v-0.4062zm4 0.65625c1.437 0.4341 2.5 1.7672 2.5 3.3438 0 1.2733-0.72627 2.3897-1.75 3h0.71875c0.22905-0.006 0.4499 0.15142 0.5 0.375 0.007 0.0204-0.004 0.0413 0 0.0625 0.001 0.0473 0.0118 0.11045 0 0.15625v0.40625h-0.40625c-0.0311 0.003-0.0627 0.003-0.0937 0h-2-0.5v-3h0.40625c0.0362-0.004 0.0575-0.004 0.0937 0 0.26179 0.00003 0.49998 0.23822 0.5 0.5v0.71875c-0.0001 0.26825 0.005 0.41536 0.0312 0.53125v-0.4375c0.88251-0.38669 1.5-1.2847 1.5-2.3125s-0.61749-1.8946-1.5-2.2812v-1.0625z"/>
  <path id="path4329-9" style="color:#000000;fill:#fff" d="m9-3-4 3 4 3-4 3 8 6 8-6-4-3 4-3-4-3-4 3-4-3zm1 4h0.40625c0.0311-0.003 0.0627-0.003 0.0937 0h2 0.5v3h-0.40625c-0.036 0.004-0.058 0.004-0.094 0-0.262 0-0.5-0.2382-0.5-0.5v-0.71875c0-0.0278 0.00003-0.0366 0-0.0625-0.882 0.3867-1.5 1.2535-1.5 2.2813s0.61745 1.9258 1.5 2.3125v1.0312c-1.437-0.434-2.5-1.7671-2.5-3.3437 0-1.2887 0.706-2.3947 1.75-3h-0.75c-0.229 0.006-0.45-0.1514-0.5-0.375-0.007-0.0204-0.0272-0.0413-0.0312-0.0625-0.001-0.0473 0.0195-0.1105 0.0312-0.1563v-0.4062zm4 0.65625c1.437 0.4341 2.5 1.7672 2.5 3.3438 0 1.2733-0.72627 2.3897-1.75 3h0.71875c0.22905-0.006 0.4499 0.15142 0.5 0.375 0.007 0.0204-0.004 0.0413 0 0.0625 0.001 0.0473 0.0118 0.11045 0 0.15625v0.40625h-0.40625c-0.0311 0.003-0.0627 0.003-0.0937 0h-2-0.5v-3h0.40625c0.0362-0.004 0.0575-0.004 0.0937 0 0.26179 0.00003 0.49998 0.23822 0.5 0.5v0.71875c-0.0001 0.26825 0.005 0.41536 0.0312 0.53125v-0.4375c0.88251-0.38669 1.5-1.2847 1.5-2.3125s-0.61749-1.8946-1.5-2.2812v-1.0625z"/>
 </g>
</svg>
