<?xml version="1.0" encoding="UTF-8" standalone="no"?>
<svg id="svg2" xmlns:rdf="http://www.w3.org/1999/02/22-rdf-syntax-ns#" xmlns="http://www.w3.org/2000/svg" height="24" width="24" version="1.1" xmlns:cc="http://creativecommons.org/ns#" xmlns:dc="http://purl.org/dc/elements/1.1/">
 <metadata id="metadata3401">
  <rdf:RDF>
   <cc:Work rdf:about="">
    <dc:format>image/svg+xml</dc:format>
    <dc:type rdf:resource="http://purl.org/dc/dcmitype/StillImage"/>
   </cc:Work>
  </rdf:RDF>
 </metadata>
 <g id="layer1" transform="translate(0,8)">
  <path id="path3894" style="opacity:.2;color:#000000" d="m8-2-4 3 4 3-4 3 8 6 8-6-4-3v1.5 0.5h-3v-0.4062c-0.004-0.0362-0.004-0.0574 0-0.0937 0.000025-0.26179 0.23821-0.49998 0.5-0.5h0.71875c0.26824 0.0001 0.41536-0.005 0.53125-0.0312h-0.4375c-0.3867-0.88251-1.2847-1.5-2.3125-1.5s-1.8946 0.61749-2.2812 1.5h-1.0625c0.43401-1.4372 1.7671-2.5 3.3438-2.5 1.2733 0 2.3897 0.72627 3 1.75v-0.7189c-0.006-0.229 0.151-0.4499 0.375-0.5 0.02045-0.007 0.04135 0.004 0.0625 0 0.0473-0.001 0.11045-0.0118 0.15625 0h0.406v0.4062c0.003 0.0311 0.003 0.0626 0 0.0937v0.5l4-3-4-3-4 3-4-3zm0 7.9688h3v0.40625c0.004 0.0362 0.004 0.0574 0 0.0937-0.000025 0.26179-0.23821 0.49997-0.5 0.5h-0.71875c-0.02784 0-0.0366-0.00003-0.0625 0 0.3867 0.8825 1.2535 1.5 2.2812 1.5 1.0278 0 1.9258-0.61745 2.3125-1.5h1.0312c-0.43401 1.4371-1.7671 2.5-3.3438 2.5-1.2887 0-2.3947-0.70577-3-1.75v0.75c0.0063 0.2291-0.1506 0.4499-0.3742 0.5-0.0204 0.006-0.0414 0.0273-0.0625 0.0312-0.0473 0.001-0.1105-0.0195-0.1563-0.0312h-0.4062v-0.4063c-0.003-0.031-0.003-0.0626 0-0.0936v-2-0.5z"/>
  <path id="path4305-2-8" style="color:#000000;fill:#fff" d="m8-3-4 3 4 3-4 3 8 6 8-6-4-3v1.5 0.5h-3v-0.4062c-0.004-0.0362-0.004-0.0574 0-0.0937 0.000025-0.26179 0.23821-0.49998 0.5-0.5h0.71875c0.26824 0.0001 0.41536-0.005 0.53125-0.0312h-0.4375c-0.3867-0.88251-1.2847-1.5-2.3125-1.5s-1.8946 0.61749-2.2812 1.5h-1.0625c0.43401-1.4372 1.7671-2.5 3.3438-2.5 1.2733 0 2.3897 0.72627 3 1.75v-0.7189c-0.006-0.229 0.151-0.4499 0.375-0.5 0.02045-0.007 0.04135 0.004 0.0625 0 0.0473-0.001 0.11045-0.0118 0.15625 0h0.406v0.4062c0.003 0.0311 0.003 0.0626 0 0.0937v0.5l4-3-4-3-4 3-4-3zm0 7.9688h3v0.40625c0.004 0.0362 0.004 0.0574 0 0.0937-0.000025 0.26179-0.23821 0.49997-0.5 0.5h-0.71875c-0.02784 0-0.0366-0.00003-0.0625 0 0.3867 0.8825 1.2535 1.5 2.2812 1.5 1.0278 0 1.9258-0.61745 2.3125-1.5h1.0312c-0.43401 1.4371-1.7671 2.5-3.3438 2.5-1.2887 0-2.3947-0.70577-3-1.75v0.75c0.0063 0.2291-0.1506 0.4499-0.3742 0.5-0.0204 0.006-0.0414 0.0273-0.0625 0.0312-0.0473 0.001-0.1105-0.0195-0.1563-0.0312h-0.4062v-0.4063c-0.003-0.031-0.003-0.0626 0-0.0936v-2-0.5z"/>
 </g>
</svg>
