<?xml version="1.0" encoding="UTF-8" standalone="no"?>
<!-- Created with Inkscape (http://www.inkscape.org/) -->
<svg id="svg6530" xmlns:rdf="http://www.w3.org/1999/02/22-rdf-syntax-ns#" xmlns="http://www.w3.org/2000/svg" height="24" viewBox="0 0 24 24" width="24" version="1.1" xmlns:cc="http://creativecommons.org/ns#" xmlns:dc="http://purl.org/dc/elements/1.1/">
 <metadata id="metadata6535">
  <rdf:RDF>
   <cc:Work rdf:about="">
    <dc:format>image/svg+xml</dc:format>
    <dc:type rdf:resource="http://purl.org/dc/dcmitype/StillImage"/>
    <dc:title/>
   </cc:Work>
  </rdf:RDF>
 </metadata>
 <g id="layer1" transform="translate(-492 -964.36)">
  <path id="path3918" style="color:#000000;fill:#dbdee0" d="m498 968.36c-2 0-2 2-2 2v12c0 2 2 2 2 2h12s2 0 2-2v-12c0-2-2-2-2-2zm6.125 3.0312c0.39681 0.00001 0.76991 0.0287 1.0938 0.0625 0.32839 0.0338 0.62346 0.0671 0.90625 0.125 0.28278 0.058 0.56164 0.14149 0.8125 0.21875 0.25086 0.0725 0.80707 0.32899 1.0625 0.40625v2.1562h-1l-0.0937-1.375c-0.15965-0.11589-0.33969-0.21108-0.53125-0.3125-0.19157-0.1014-0.40607-0.2088-0.625-0.28125-0.21437-0.0773-0.41908-0.11761-0.65625-0.15625-0.23262-0.0435-0.47702-0.0625-0.71875-0.0625-0.46524 0.00001-0.876 0.0474-1.25 0.1875-0.37401 0.13522-0.69965 0.38555-0.96875 0.71875-0.26455 0.32838-0.47905 0.75717-0.625 1.3125-0.1414 0.55052-0.21875 1.2367-0.21875 2.0625 0 0.56017 0.0428 1.0486 0.125 1.4688 0.0821 0.42013 0.20235 0.78469 0.34375 1.0938 0.14139 0.30906 0.30843 0.5736 0.5 0.78125 0.19612 0.20282 0.40606 0.37927 0.625 0.5 0.22349 0.12073 0.44575 0.19688 0.6875 0.25 0.24173 0.0483 0.48157 0.0625 0.71875 0.0625 0.25997 0 0.5167-0.019 0.78125-0.0625 0.26453-0.0483 0.68731-0.11023 0.90625-0.1875v-2.8125l-1-0.1875v-1h4v1l-1 0.1875v3.1562c-0.26455 0.0917-0.57785 0.19915-0.90625 0.28125-0.32384 0.0773-0.6488 0.12955-1 0.1875-0.35121 0.058-0.70674 0.12245-1.0625 0.15625-0.35582 0.0338-0.70291 0.0312-1.0313 0.0312-0.72522 0-1.3934-0.10485-2-0.3125-0.60663-0.21248-1.1246-0.52703-1.5625-0.9375-0.43331-0.4153-0.78495-0.92279-1.0312-1.5312-0.25-0.61-0.41-1.42-0.41-2.22 0-0.84991 0.16907-1.4611 0.40625-2.0938 0.23717-0.63743 0.56214-1.1736 1-1.5938 0.44243-0.42495 1.0001-0.72985 1.625-0.9375 0.62942-0.21247 1.3184-0.34374 2.0938-0.34375z"/>
 </g>
</svg>
