<?xml version="1.0" encoding="UTF-8" standalone="no"?>
<!-- Created with Inkscape (http://www.inkscape.org/) -->
<svg id="svg6530" xmlns:rdf="http://www.w3.org/1999/02/22-rdf-syntax-ns#" xmlns="http://www.w3.org/2000/svg" height="24" viewBox="0 0 24 24" width="24" version="1.1" xmlns:cc="http://creativecommons.org/ns#" xmlns:dc="http://purl.org/dc/elements/1.1/">
 <metadata id="metadata6535">
  <rdf:RDF>
   <cc:Work rdf:about="">
    <dc:format>image/svg+xml</dc:format>
    <dc:type rdf:resource="http://purl.org/dc/dcmitype/StillImage"/>
    <dc:title/>
   </cc:Work>
  </rdf:RDF>
 </metadata>
 <g id="layer1" transform="translate(-516 -916.36)">
  <path id="path3873" style="color:#000000;fill:#dbdee0" d="m528 920.36c-3.8292 0-6.9333 3.1042-6.9333 6.9333 0 3.8292 3.1042 6.9333 6.9333 6.9333v2.1333c1.7196-1.2251 6.2121-2.971 6.9-8.35 0.0298-0.233 0.0334-0.46942 0.0334-0.71667 0-0.22091-0.007-0.43484-0.0334-0.65-0.32483-3.5273-3.288-6.2833-6.9-6.2833zm-3.5 4.8h2.1333c0.29544 0 0.53333 0.23789 0.53333 0.53333v1.55c0.00054 0.0166 0.00054 0.0333 0 0.05v0.53333 0.53334c0 1.4221-1.3667 2.0667-1.3667 2.0667-0.25192 0.16542-0.63856 0.0598-0.77143-0.21067-0.13288-0.2705 0.0199-0.64104 0.30476-0.73933 0 0 0.76667-0.40562 0.76667-1.1167h-1.6c-0.29544-0.00001-0.53334-0.2379-0.53334-0.53334v-2.1333c0-0.29544 0.2379-0.53334 0.53334-0.53334zm4.8167 0h2.1333c0.29544 0 0.53333 0.23789 0.53333 0.53333v1.55c0.00053 0.0166 0.00053 0.0333 0 0.05v0.53333 0.53334c0 1.4221-1.3667 2.0667-1.3667 2.0667-0.25193 0.16542-0.63855 0.0598-0.77143-0.21067-0.13287-0.2705 0.0199-0.64104 0.30477-0.73933 0 0 1.4777-1.1167 0.76666-1.1167h-1.6c-0.29544 0-0.53333-0.2379-0.53333-0.53334v-2.1333c0-0.29544 0.23789-0.53333 0.53333-0.53333z"/>
 </g>
</svg>
