<?xml version="1.0" encoding="UTF-8" standalone="no"?>
<svg id="svg2" xmlns:rdf="http://www.w3.org/1999/02/22-rdf-syntax-ns#" xmlns="http://www.w3.org/2000/svg" height="24" width="24" version="1.1" xmlns:cc="http://creativecommons.org/ns#" xmlns:dc="http://purl.org/dc/elements/1.1/">
 <metadata id="metadata3401">
  <rdf:RDF>
   <cc:Work rdf:about="">
    <dc:format>image/svg+xml</dc:format>
    <dc:type rdf:resource="http://purl.org/dc/dcmitype/StillImage"/>
   </cc:Work>
  </rdf:RDF>
 </metadata>
 <g id="layer1" transform="translate(0,6)">
  <path id="path8968" opacity=".2" d="m56 218a3 3 0 1 1 -6 0 3 3 0 1 1 6 0z" color="#000000" transform="translate(-37,-207)" stroke-width="2"/>
  <path id="path8966" color="#000000" opacity=".2" stroke-width="4" d="m14 0.375c-0.38928 0.0194-0.73289 0.26582-0.875 0.65625-0.004 0.0103-0.0276 0.0211-0.0312 0.0312-1.777-0.16991-3.4724 0.8082-4.1564 2.6876-0.6859 1.8843-2.0756 5.6407-3.75 5.0312-0.1116-0.0406-0.2339 0.0262-0.2813 0.1562l-0.25 0.71875 1.875 0.6875 1.875 0.65625 3.75 1.375 0.125 0.0312c-0.16513-0.43832-0.28125-0.90998-0.28125-1.4062 0-2.2091 1.7909-4 4-4 0.0851 0 0.16626 0.026 0.25 0.0312 0.0607-0.16903 0.13351-0.38292 0.1875-0.53125 0.68104-1.8712 0.0198-3.7662-1.4375-4.7812 0.18948-0.52059-0.0732-1.0918-0.59375-1.2812-0.13015-0.0474-0.27649-0.069-0.40625-0.0625zm-5.6562 11.687c0.12102 0.67925 0.555 1.247 1.25 1.5 0.695 0.25296 1.4394 0.0988 1.9688-0.34375l-3.2188-1.1562z"/>
  <path id="path4184" opacity=".25" d="m7.4062 1.2188c-0.1455 0.2644-0.2679 0.5496-0.375 0.8437-0.2572 0.7068-0.6012 1.6275-0.9687 2.4063l0.9063 0.4687c0.4088-0.8462 0.7713-1.8171 1.0312-2.5313 0.0967-0.2655 0.213-0.5139 0.3438-0.75 0.004-0.008-0.004-0.0237 0-0.0312l-0.9376-0.4062zm9.9688 4.625c-0.0394 0.1084-0.0823 0.25684-0.125 0.375 0.31697 0.10429 0.62982 0.2304 0.90625 0.40625 0.0394-0.11119 0.0874-0.23981 0.125-0.34375l-0.906-0.4375z" color="#000000" stroke-width="4" fill="#fff"/>
  <path id="path4188" color="#000000" d="m14-0.625c-0.38928 0.0194-0.73289 0.26582-0.875 0.65625-0.004 0.0103-0.0276 0.0211-0.0312 0.0312-1.777-0.16996-3.4724 0.80812-4.1564 2.6876-0.6859 1.8843-2.0756 5.6407-3.75 5.0312-0.1116-0.0406-0.2339 0.0262-0.2813 0.1562l-0.25 0.71875 1.875 0.6875 1.875 0.65625 3.75 1.375 0.125 0.0312c-0.165-0.438-0.281-0.91-0.281-1.406 0-2.2091 1.791-4 4-4 0.0851 0 0.16626 0.026 0.25 0.0312 0.0607-0.16903 0.13351-0.38292 0.1875-0.53125 0.68104-1.8712 0.0198-3.7662-1.4375-4.7812 0.18948-0.52059-0.0732-1.0918-0.59375-1.2812-0.13015-0.0474-0.27649-0.069-0.40625-0.0625zm-5.6562 11.687c0.12102 0.67925 0.555 1.247 1.25 1.5 0.695 0.25296 1.4394 0.0988 1.9688-0.34375l-3.2188-1.1562z" stroke-width="4" fill="#fff"/>
  <path id="path4190" d="m56 218a3 3 0 1 1 -6 0 3 3 0 1 1 6 0z" color="#000000" transform="translate(-37,-208)" stroke-width="2" fill="#00aafa"/>
 </g>
</svg>
