<?xml version="1.0" encoding="UTF-8" standalone="no"?>
<svg id="svg2" xmlns:rdf="http://www.w3.org/1999/02/22-rdf-syntax-ns#" xmlns="http://www.w3.org/2000/svg" height="24" width="24" version="1.1" xmlns:cc="http://creativecommons.org/ns#" xmlns:dc="http://purl.org/dc/elements/1.1/">
 <metadata id="metadata3401">
  <rdf:RDF>
   <cc:Work rdf:about="">
    <dc:format>image/svg+xml</dc:format>
    <dc:type rdf:resource="http://purl.org/dc/dcmitype/StillImage"/>
   </cc:Work>
  </rdf:RDF>
 </metadata>
 <g id="layer1" transform="translate(0,6)">
  <path id="path8968" opacity=".2" d="m56 218a3 3 0 1 1 -6 0 3 3 0 1 1 6 0z" color="#000000" transform="matrix(-1,0,0,1,61,-207)" stroke-width="2"/>
  <path id="path8966" color="#000000" opacity=".2" stroke-width="4" d="m10 0.375c0.38928 0.0194 0.73289 0.26582 0.875 0.65625 0.004 0.0103 0.0276 0.0211 0.0312 0.0312 1.777-0.16996 3.4722 0.80812 4.1562 2.6875 0.68583 1.8843 2.0755 5.6407 3.75 5.0312 0.11155-0.0406 0.23388 0.0262 0.28125 0.15625l0.25 0.71875-1.875 0.6875-1.875 0.65625-3.75 1.375-0.125 0.0312c0.16513-0.43832 0.28125-0.90998 0.28125-1.4062 0-2.2091-1.791-4-4-4-0.0852 0-0.1663 0.026-0.25 0.0312-0.0608-0.169-0.1336-0.3829-0.1876-0.5312-0.681-1.8712-0.0198-3.7663 1.4376-4.7813-0.1895-0.5206 0.0732-1.0918 0.5937-1.2812 0.1301-0.04745 0.2765-0.06905 0.4063-0.06255zm5.6562 11.687c-0.12102 0.67925-0.555 1.247-1.25 1.5-0.695 0.25296-1.4394 0.0988-1.9688-0.34375l3.2188-1.1562z"/>
  <path id="path4184" opacity=".25" d="m16.594 1.2188c0.14553 0.26442 0.26797 0.54969 0.375 0.84375 0.25724 0.70678 0.60122 1.6275 0.96875 2.4062l-0.907 0.4687c-0.409-0.8462-0.771-1.8171-1.031-2.5313-0.097-0.2655-0.213-0.5139-0.344-0.75-0.004-0.008 0.004-0.0237 0-0.0312l0.938-0.4062zm-9.969 4.625c0.0394 0.1084 0.0823 0.2568 0.125 0.375-0.317 0.1042-0.6298 0.2304-0.9062 0.4062-0.0394-0.1112-0.0874-0.2398-0.125-0.3438l0.9062-0.4374z" color="#000000" stroke-width="4" fill="#fff"/>
  <path id="path4188" color="#000000" d="m10-0.625c0.38928 0.0194 0.73289 0.26582 0.875 0.65625 0.004 0.0103 0.0276 0.0211 0.0312 0.0312 1.777-0.16996 3.4722 0.80812 4.1562 2.6875 0.68583 1.8843 2.0755 5.6407 3.75 5.0312 0.11155-0.0406 0.23388 0.0262 0.28125 0.15625l0.25 0.71875-1.875 0.6875-1.875 0.65625-3.75 1.375-0.125 0.0312c0.16513-0.43832 0.28125-0.90998 0.28125-1.4061 0-2.209-1.791-3.9999-4-3.9999-0.0852 0-0.1663 0.026-0.25 0.0312-0.0608-0.169-0.1336-0.3829-0.1876-0.5312-0.681-1.8712-0.0198-3.7663 1.4376-4.7813-0.1895-0.52059 0.0732-1.0918 0.5937-1.2812 0.13015-0.0474 0.27649-0.069 0.40625-0.0625zm5.6562 11.687c-0.12102 0.67925-0.555 1.247-1.25 1.5-0.695 0.25296-1.4394 0.0988-1.9688-0.34375l3.2188-1.1562z" stroke-width="4" fill="#fff"/>
  <path id="path4190" d="m56 218a3 3 0 1 1 -6 0 3 3 0 1 1 6 0z" color="#000000" transform="matrix(-1,0,0,1,61,-208)" stroke-width="2" fill="#e13f2b"/>
 </g>
</svg>
