<?xml version="1.0" encoding="UTF-8" standalone="no"?>
<svg id="svg2" xmlns:rdf="http://www.w3.org/1999/02/22-rdf-syntax-ns#" xmlns="http://www.w3.org/2000/svg" height="24" width="24" version="1.1" xmlns:cc="http://creativecommons.org/ns#" xmlns:dc="http://purl.org/dc/elements/1.1/">
 <metadata id="metadata3401">
  <rdf:RDF>
   <cc:Work rdf:about="">
    <dc:format>image/svg+xml</dc:format>
    <dc:type rdf:resource="http://purl.org/dc/dcmitype/StillImage"/>
   </cc:Work>
  </rdf:RDF>
 </metadata>
 <g id="layer1" stroke-width="4" transform="translate(0,6)">
  <path id="path8962" color="#000000" opacity=".2" d="m12 0c-0.554 0-1 0.446-1 1 0 0.0109-0.00034 0.0205 0 0.0312-1.728 0.4481-3 1.9688-3 3.9688 0 2.0052 0.0007 6-1.7812 6-0.1188 0-0.2188 0.112-0.2188 0.25v0.75h2 2 4 2 2v-0.75c0-0.138-0.1-0.25-0.219-0.25-1.789 0-1.781-3.9951-1.781-6 0-2-1.272-3.5207-3-3.9688 0.00034-0.0108 0-0.0205 0-0.0312 0-0.554-0.446-1-1-1zm-1.7188 13c0.34604 0.5969 0.97915 1 1.7188 1 0.7396 0 1.3727-0.4031 1.7188-1h-3.4375z"/>
  <path id="path4178" color="#000000" d="m12-1c-0.554 0-1 0.446-1 1 0 0.0109-0.00034 0.0205 0 0.0312-1.728 0.44812-3 1.9688-3 3.9688 0 2.0052 0.0007 6-1.7812 6-0.1188 0-0.2188 0.112-0.2188 0.25v0.75h2 2 4 2 2v-0.75c0-0.138-0.1-0.25-0.219-0.25-1.789 0-1.781-3.9951-1.781-6 0-2-1.272-3.5207-3-3.9688 0.00034-0.0108 0-0.0205 0-0.0312 0-0.554-0.446-1-1-1zm-1.7188 13c0.34604 0.5969 0.97915 1 1.7188 1 0.7396 0 1.3727-0.4031 1.7188-1h-3.4375z" fill="#fff"/>
 </g>
</svg>
