<?xml version="1.0" encoding="UTF-8" standalone="no"?>
<svg id="svg2" xmlns:rdf="http://www.w3.org/1999/02/22-rdf-syntax-ns#" xmlns="http://www.w3.org/2000/svg" height="24" width="24" version="1.1" xmlns:cc="http://creativecommons.org/ns#" xmlns:dc="http://purl.org/dc/elements/1.1/">
 <metadata id="metadata3401">
  <rdf:RDF>
   <cc:Work rdf:about="">
    <dc:format>image/svg+xml</dc:format>
    <dc:type rdf:resource="http://purl.org/dc/dcmitype/StillImage"/>
   </cc:Work>
  </rdf:RDF>
 </metadata>
 <g id="layer1" transform="translate(0,8)">
  <path id="path3775" stroke-linejoin="round" opacity=".2" d="m6.5-3c-0.277 0-0.5 0.223-0.5 0.5v0.5h-1.5c-0.277 0-0.5 0.223-0.5 0.5v14c0 0.277 0.223 0.5 0.5 0.5h6c0.277 0 0.5-0.223 0.5-0.5v-14c0-0.277-0.223-0.5-0.5-0.5h-1.5v-0.5c0-0.277-0.223-0.5-0.5-0.5zm-1.5 2h1.5 2 1.5v13h-5z" color="#bebebe" stroke-linecap="round" stroke-width="0"/>
  <path id="path3777" stroke-linejoin="round" opacity=".2" d="m6 2v9h3v-9z" color="#bebebe" stroke-linecap="round" stroke-width="0"/>
  <path id="path2994" stroke-linejoin="round" d="m6.5-4c-0.277 0-0.5 0.223-0.5 0.5v0.5h-1.5c-0.277 0-0.5 0.223-0.5 0.5v14c0 0.277 0.223 0.5 0.5 0.5h6c0.277 0 0.5-0.223 0.5-0.5v-14c0-0.277-0.223-0.5-0.5-0.5h-1.5v-0.5c0-0.277-0.223-0.5-0.5-0.5zm-1.5 2h1.5 2 1.5v13h-5z" color="#bebebe" stroke-linecap="round" stroke-width="0" fill="#fff"/>
  <path id="path2996" stroke-linejoin="round" d="m6 1v9h3v-9z" color="#bebebe" stroke-linecap="round" stroke-width="0" fill="#fff"/>
  <path id="path3836" opacity=".2" d="m14-2c-0.554 0-1 0.446-1 1v13c0 0.554 0.446 1 1 1h5c0.554 0 1-0.446 1-1v-13c0-0.554-0.446-1-1-1h-5zm0 3h1v1h-1v-1zm2 0h1v1h-1v-1zm2 1h1v7h-1v-7zm-4 1h1v1h-1v-1zm2 0h1v1h-1v-1zm-2 2h1v1h-1v-1zm2 0h1v1h-1v-1zm-2 2h1v1h-1v-1zm2 0h1v1h-1v-1zm-2 2h1v1h-1v-1zm2 0h1v1h-1v-1z" fill-rule="evenodd"/>
  <path id="rect2397" d="m14-3c-0.554 0-1 0.446-1 1v13c0 0.554 0.446 1 1 1h5c0.554 0 1-0.446 1-1v-13c0-0.554-0.446-1-1-1h-5zm0 3h1v1h-1v-1zm2 0h1v1h-1v-1zm2 1h1v7h-1v-7zm-4 1h1v1h-1v-1zm2 0h1v1h-1v-1zm-2 2h1v1h-1v-1zm2 0h1v1h-1v-1zm-2 2h1v1h-1v-1zm2 0h1v1h-1v-1zm-2 2h1v1h-1v-1zm2 0h1v1h-1v-1z" fill="#fff" fill-rule="evenodd"/>
 </g>
</svg>
