<?xml version="1.0" encoding="UTF-8" standalone="no"?>
<svg id="svg2" xmlns:rdf="http://www.w3.org/1999/02/22-rdf-syntax-ns#" xmlns="http://www.w3.org/2000/svg" height="24" width="24" version="1.1" xmlns:cc="http://creativecommons.org/ns#" xmlns:dc="http://purl.org/dc/elements/1.1/">
 <metadata id="metadata3401">
  <rdf:RDF>
   <cc:Work rdf:about="">
    <dc:format>image/svg+xml</dc:format>
    <dc:type rdf:resource="http://purl.org/dc/dcmitype/StillImage"/>
   </cc:Work>
  </rdf:RDF>
 </metadata>
 <g id="layer1" stroke-linejoin="round" transform="translate(0,8)" stroke="#333" stroke-linecap="round" stroke-width="0">
  <g id="g3771" opacity=".2" transform="translate(1)">
   <path id="path3773" d="m15-3c-2.77 0-5 2.676-5 6v4c0 3.324 2.23 6 5 6h1c2.77 0 5-2.676 5-6v-4c0-3.324-2.23-6-5-6v2c0.554 0 1 0.446 1 1v2c0 0.554-0.446 1-1 1v1c0 0.2761-0.224 0.5-0.5 0.5s-0.5-0.2239-0.5-0.5v-1c-0.554 0-1-0.446-1-1v-2c0-0.554 0.446-1 1-1zm0.5 3c-0.277 0-0.5 0.223-0.5 0.5v1c0 0.277 0.223 0.5 0.5 0.5s0.5-0.223 0.5-0.5v-1c0-0.277-0.223-0.5-0.5-0.5z" color="#bebebe"/>
   <path id="path3775" d="m3.5-3c-0.277 0-0.5 0.223-0.5 0.5v0.5h-1.5c-0.277 0-0.5 0.223-0.5 0.5v14c0 0.277 0.223 0.5 0.5 0.5h6c0.277 0 0.5-0.223 0.5-0.5v-14c0-0.277-0.223-0.5-0.5-0.5h-1.5v-0.5c0-0.277-0.223-0.5-0.5-0.5zm-1.5 2h1.5 2 1.5v13h-5z" color="#bebebe"/>
   <path id="path3777" d="m3 4v7h3v-7z" color="#bebebe"/>
  </g>
  <g id="g2998" transform="translate(1,-1)" fill="#fff">
   <path id="path4289" d="m15-3c-2.77 0-5 2.676-5 6v4c0 3.324 2.23 6 5 6h1c2.77 0 5-2.676 5-6v-4c0-3.324-2.23-6-5-6v2c0.554 0 1 0.446 1 1v2c0 0.554-0.446 1-1 1v1c0 0.2761-0.224 0.5-0.5 0.5s-0.5-0.2239-0.5-0.5v-1c-0.554 0-1-0.446-1-1v-2c0-0.554 0.446-1 1-1zm0.5 3c-0.277 0-0.5 0.223-0.5 0.5v1c0 0.277 0.223 0.5 0.5 0.5s0.5-0.223 0.5-0.5v-1c0-0.277-0.223-0.5-0.5-0.5z" color="#bebebe"/>
   <path id="path2994" d="m3.5-3c-0.277 0-0.5 0.223-0.5 0.5v0.5h-1.5c-0.277 0-0.5 0.223-0.5 0.5v14c0 0.277 0.223 0.5 0.5 0.5h6c0.277 0 0.5-0.223 0.5-0.5v-14c0-0.277-0.223-0.5-0.5-0.5h-1.5v-0.5c0-0.277-0.223-0.5-0.5-0.5zm-1.5 2h1.5 2 1.5v13h-5z" color="#bebebe"/>
   <path id="path2996" d="m3 4v7h3v-7z" color="#bebebe"/>
  </g>
 </g>
</svg>
