<?xml version="1.0" encoding="UTF-8" standalone="no"?>
<svg
   xmlns:osb="http://www.openswatchbook.org/uri/2009/osb"
   xmlns:dc="http://purl.org/dc/elements/1.1/"
   xmlns:cc="http://creativecommons.org/ns#"
   xmlns:rdf="http://www.w3.org/1999/02/22-rdf-syntax-ns#"
   xmlns:svg="http://www.w3.org/2000/svg"
   xmlns="http://www.w3.org/2000/svg"
   height="24"
   id="svg7384"
   style="enable-background:new"
   version="1.1"
   width="24">
  <metadata
     id="metadata90">
    <rdf:RDF>
      <cc:Work
         rdf:about="">
        <dc:format>image/svg+xml</dc:format>
        <dc:type
           rdf:resource="http://purl.org/dc/dcmitype/StillImage" />
        <dc:title>Moka Symbolic Icon Theme</dc:title>
      </cc:Work>
    </rdf:RDF>
  </metadata>
  <title
     id="title8473">Moka Symbolic Icon Theme</title>
  <defs
     id="defs7386">
    <linearGradient
       id="linearGradient5606"
       osb:paint="solid">
      <stop
         id="stop5608"
         offset="0"
         style="stop-color:#000000;stop-opacity:1;" />
    </linearGradient>
    <filter
       color-interpolation-filters="sRGB"
       id="filter7554">
      <feBlend
         id="feBlend7556"
         in2="BackgroundImage"
         mode="darken" />
    </filter>
  </defs>
  <g
     id="layer9"
     style="display:inline"
     transform="translate(-301.0002,327.00333)">
    <path
       style="fill:#000000;fill-opacity:1;stroke:none;opacity:0.35"
       id="path6575"
       d="m 314.0002,-315 -8,8 8,0 0,-8 z" />
    <path
       id="path6577"
       d="m 318.0002,-313 c -1.108,0 -2,0.91081 -2,2.03125 l 0,0.96875 -1,0 0,1 0,2 0,1 1,0 4,0 1,0 0,-1 0,-2 0,-1 -1,0 0,-0.96875 c 0,-1.12 -0.892,-2.03125 -2,-2.03125 z m 0,1 c 0.554,0 1,0.44236 1,1 l 0,1 -2,0 0,-1 c 0,-0.55764 0.446,-1 1,-1 z"
       style="fill:#000000;opacity:0.35" />
    <path
       style="opacity:0.35;fill:#ffffff;fill-opacity:1;stroke:none"
       d="m 320.0002,-322.00333 -14,14 8,0 0,-2 0,-1 0,-1 1,0 c 0.0168,-1.63737 1.35439,-3 3,-3 0.76764,0 1.46927,0.29877 2,0.78125 l 0,-7.78125 z m -4,12 0,2 4,0 0,-2 -1,0 -2,0 -1,0 z"
       id="path6565" />
    <path
       d="m 314.0002,-316 -8,8 8,0 0,-8 z"
       id="path6567"
       style="fill:#ffffff;fill-opacity:1;stroke:none" />
    <path
       style="fill:#ffffff"
       d="m 318.0002,-314 c -1.108,0 -2,0.91081 -2,2.03125 l 0,0.96875 -1,0 0,1 0,2 0,1 1,0 4,0 1,0 0,-1 0,-2 0,-1 -1,0 0,-0.96875 c 0,-1.12 -0.892,-2.03125 -2,-2.03125 z m 0,1 c 0.554,0 1,0.44236 1,1 l 0,1 -2,0 0,-1 c 0,-0.55764 0.446,-1 1,-1 z"
       id="path5983" />
  </g>
  <g
     id="layer10"
     style="display:inline;filter:url(#filter7554)"
     transform="translate(-301.0002,327.00333)" />
  <g
     id="layer1"
     style="display:inline"
     transform="translate(-60,-289.99667)" />
  <g
     id="layer14"
     style="display:inline"
     transform="translate(-301.0002,327.00333)" />
  <g
     id="layer15"
     style="display:inline"
     transform="translate(-301.0002,327.00333)" />
  <g
     id="g71291"
     style="display:inline"
     transform="translate(-301.0002,327.00333)" />
  <g
     id="layer2"
     style="display:inline"
     transform="translate(-60,-139.99667)" />
  <g
     id="g6058"
     style="display:inline"
     transform="translate(-60,-139.99667)" />
  <g
     id="layer12"
     style="display:inline"
     transform="translate(-301.0002,327.00333)" />
</svg>
