<?xml version="1.0" encoding="UTF-8" standalone="no"?>
<svg id="svg3861" xmlns:rdf="http://www.w3.org/1999/02/22-rdf-syntax-ns#" style="enable-background:new" xmlns="http://www.w3.org/2000/svg" xmlns:osb="http://www.openswatchbook.org/uri/2009/osb" height="24" width="24" version="1.1" xmlns:cc="http://creativecommons.org/ns#" xmlns:dc="http://purl.org/dc/elements/1.1/">
 <metadata id="metadata90">
  <rdf:RDF>
   <cc:Work rdf:about="">
    <dc:format>image/svg+xml</dc:format>
    <dc:type rdf:resource="http://purl.org/dc/dcmitype/StillImage"/>
   </cc:Work>
  </rdf:RDF>
 </metadata>
 <defs id="defs7386">
  <clipPath id="clipPath7731">
   <path id="path7733" d="m-72-37c-1.7295 0-3.2892 0.5728-4.7812 1.3438l4.781 5.156 4.7188-5.1875c-1.476-0.756-3.011-1.312-4.719-1.312z"/>
  </clipPath>
 </defs>
 <g id="layer9" transform="translate(-380.97 363)">
  <path id="path6491" style="opacity:.35;color:#000000;stroke-width:0.723" transform="translate(465 -317)" d="m-72-38v1h1v-0.96875c-0.323-0.027-0.66-0.031-1-0.031zm1 1v1h1v-1zm1 0h1v-0.59375c-0.32539-0.09548-0.65163-0.15587-1-0.21875zm1 0v1h1v-1zm1 0h0.5c-0.16533-0.08409-0.32651-0.14458-0.5-0.21875zm0 1v1h1v-1zm1 0h1v1h1c-0.55813-0.67166-1.231-1.2572-2-1.7188zm2 1v1h-1v1h-1v1h-1v1h-1v1h-1v-1h-1v1h-1v-1h-1v1h-1v-1h-1v-1h-1v-1h-1v-1h-1v-1h-0.5625c-1.5657 1.8514-0.4375 4.376-0.4375 7 0 5.2155 1.3897 6 7 6s7-0.7845 7-6c0-2.3738 1.2955-5.441 0-7zm-13 0h1v-1h-0.5625c-0.14492 0.12361-0.3011 0.24206-0.4375 0.375zm1-1h1v-1h-0.0625c-0.32808 0.17381-0.63937 0.34893-0.9375 0.5625zm1-1h1v-0.5c-0.34624 0.12459-0.6808 0.30319-1 0.46875zm1 0v1h1v-1zm1 0h1v-0.9375c-0.34358 0.03632-0.67578 0.08361-1 0.15625zm1 0v1h1v-1zm1 1v1h1v-1zm1 1v1h1v-1zm1 0h1v-1h-1zm1 0v1h1v-1zm1 1v1h1v-1zm1 0h1v-1h-1zm-1 1h-1v1h1zm-1 1h-1v1h1zm-1 0v-1h-1v1zm-1 0h-1v1h1zm-1 0v-1h-1v1zm-1 0h-1v1h1zm-1 0v-1h-1v1zm-1-1v-1h-1v1zm-1-1v-1h-1v1zm0-1h1v-1h-1zm1 0v1h1v-1zm1 0h1v-1h-1zm1 0v1h1v-1zm1 1v1h1v-1zm-1 0h-1v1h1zm3 1h1v-1h-1z" clip-path="url(#clipPath7731)"/>
  <path id="path6493" style="opacity:.35;color:#000000" d="m393-356c-3.0344 0-5.7659 1.0782-8.0312 2.75l8.0312 8.75 7.9688-8.7812c-2.26-1.65-4.96-2.72-7.97-2.72zm-0.0625 1c2.3936 0 4.5242 0.83638 6.4375 2.0312l-6.4375 7-6.375-7.0312c1.9009-1.1786 4.0054-2 6.375-2z"/>
  <path id="path6438-9" d="m-72-38v1h1v-0.96875c-0.323-0.027-0.66-0.031-1-0.031zm1 1v1h1v-1zm1 0h1v-0.59375c-0.32539-0.09548-0.65163-0.15587-1-0.21875zm1 0v1h1v-1zm1 0h0.5c-0.16533-0.08409-0.32651-0.14458-0.5-0.21875zm0 1v1h1v-1zm1 0h1v1h1c-0.55813-0.67166-1.231-1.2572-2-1.7188zm2 1v1h-1v1h-1v1h-1v1h-1v1h-1v-1h-1v1h-1v-1h-1v1h-1v-1h-1v-1h-1v-1h-1v-1h-1v-1h-0.5625c-1.5657 1.8514-0.4375 4.376-0.4375 7 0 5.2155 1.3897 6 7 6s7-0.7845 7-6c0-2.3738 1.2955-5.441 0-7zm-13 0h1v-1h-0.5625c-0.14492 0.12361-0.3011 0.24206-0.4375 0.375zm1-1h1v-1h-0.0625c-0.32808 0.17381-0.63937 0.34893-0.9375 0.5625zm1-1h1v-0.5c-0.34624 0.12459-0.6808 0.30319-1 0.46875zm1 0v1h1v-1zm1 0h1v-0.9375c-0.34358 0.03632-0.67578 0.08361-1 0.15625zm1 0v1h1v-1zm1 1v1h1v-1zm1 1v1h1v-1zm1 0h1v-1h-1zm1 0v1h1v-1zm1 1v1h1v-1zm1 0h1v-1h-1zm-1 1h-1v1h1zm-1 1h-1v1h1zm-1 0v-1h-1v1zm-1 0h-1v1h1zm-1 0v-1h-1v1zm-1 0h-1v1h1zm-1 0v-1h-1v1zm-1-1v-1h-1v1zm-1-1v-1h-1v1zm0-1h1v-1h-1zm1 0v1h1v-1zm1 0h1v-1h-1zm1 0v1h1v-1zm1 1v1h1v-1zm-1 0h-1v1h1zm3 1h1v-1h-1z" style="opacity:.35;color:#000000;stroke-width:0.723;fill:#fff" clip-path="url(#clipPath7731)" transform="translate(465 -318)"/>
  <path id="path7653" style="color:#000000;fill:#fff" d="m393-357c-3.0344 0-5.7659 1.0782-8.0312 2.75l8.0312 8.75 7.9688-8.7812c-2.26-1.65-4.96-2.72-7.97-2.72zm-0.0625 1c2.3936 0 4.5242 0.83638 6.4375 2.0312l-6.4375 7-6.375-7.0312c1.9009-1.1786 4.0054-2 6.375-2z"/>
 </g>
</svg>
