<?xml version="1.0" encoding="UTF-8" standalone="no"?>
<svg
   xmlns:osb="http://www.openswatchbook.org/uri/2009/osb"
   xmlns:dc="http://purl.org/dc/elements/1.1/"
   xmlns:cc="http://creativecommons.org/ns#"
   xmlns:rdf="http://www.w3.org/1999/02/22-rdf-syntax-ns#"
   xmlns:svg="http://www.w3.org/2000/svg"
   xmlns="http://www.w3.org/2000/svg"
   width="24"
   version="1.1"
   style="enable-background:new"
   id="svg7384"
   height="24">
  <metadata
     id="metadata90">
    <rdf:RDF>
      <cc:Work
         rdf:about="">
        <dc:format>image/svg+xml</dc:format>
        <dc:type
           rdf:resource="http://purl.org/dc/dcmitype/StillImage" />
        <dc:title>Moka Symbolic Icon Theme</dc:title>
      </cc:Work>
    </rdf:RDF>
  </metadata>
  <title
     id="title8473">Moka Symbolic Icon Theme</title>
  <defs
     id="defs7386">
    <linearGradient
       osb:paint="solid"
       id="linearGradient5606">
      <stop
         style="stop-color:#000000;stop-opacity:1;"
         offset="0"
         id="stop5608" />
    </linearGradient>
    <filter
       id="filter7554"
       color-interpolation-filters="sRGB">
      <feBlend
         mode="darken"
         in2="BackgroundImage"
         id="feBlend7556" />
    </filter>
  </defs>
  <g
     transform="translate(-340.96897,428.00336)"
     style="display:inline"
     id="layer9">
    <path
       style="color:#ffffff;fill:#000000;stroke-width:2;opacity:0.35"
       d="m 352.79804,-420.001 c 1.64243,-0.092 3.0955,1.17008 3.1875,2.8125 -1e-4,1.40136 -0.37771,1.92177 -1.59375,2.84375 -0.19093,0.14364 -0.3256,0.2506 -0.375,0.3125 -0.0494,0.0621 -0.0312,0.0332 -0.0312,0.0312 0.007,0.52831 -0.47163,1 -1,1 -0.52837,0 -1.007,-0.47169 -1,-1 0,-0.50239 0.22424,-0.94342 0.46875,-1.25 0.24451,-0.30663 0.4913,-0.51638 0.71875,-0.6875 0.20405,-0.16056 0.46083,-0.38454 0.6875,-0.65625 0.0935,-0.1121 0.129,-0.30766 0.125,-0.4375 l 0,-0.0312 c -0.0316,-0.56324 -0.49926,-0.9691 -1.0625,-0.9375 -0.56324,0.0316 -0.9691,0.43676 -0.9375,1 l -2,0 c -0.092,-1.64243 1.17007,-2.9079 2.8125,-3 z m 0.1875,8 c 0.55228,0 1,0.44772 1,1 0,0.55228 -0.44772,1 -1,1 -0.55228,0 -1,-0.44772 -1,-1 0,-0.55228 0.44772,-1 1,-1 z"
       id="path6487" />
    <path
       id="path7616"
       d="m 353.00022,-422.00336 c 2.07672,0.016 3.85032,1.63564 3.96875,3.75 l 0.0312,0.0312 0,0.0312 c -6e-5,0.79049 -0.14195,1.48272 -0.5,2.09375 -0.35805,0.61103 -0.85951,1.04564 -1.5,1.53125 l 0,0.0312 c -0.0903,0.068 -0.17532,0.1493 -0.21875,0.1875 -0.006,0.006 -0.025,-0.007 -0.0312,0 -0.009,0.0107 -0.0426,0.0109 -0.0625,0.0312 -0.007,0.007 0.009,0.0222 0,0.0312 -0.1304,0.30939 -0.24059,0.57916 -0.5,0.78125 0.31278,0.2468 0.55103,0.57243 0.6875,0.9375 l 6.09375,-6.71875 c -2.25661,-1.65329 -4.9577,-2.71875 -7.96875,-2.71875 z m -0.375,0.0312 c -2.88323,0.0854 -5.48542,1.11667 -7.65625,2.71875 l 6.15625,6.6875 c 0.12766,-0.36505 0.34481,-0.69065 0.65625,-0.9375 -0.46467,-0.36369 -0.79025,-0.84278 -0.78125,-1.5 0,-0.79995 0.33733,-1.43593 0.6875,-1.875 0.0443,-0.0556 0.0803,-0.0739 0.125,-0.125 l -1.8125,0 -0.96875,0 -0.0312,-0.9375 c -0.11968,-2.13671 1.55864,-3.8497 3.625,-4.03125 z"
       style="opacity:0.35;color:#000000;fill:#ffffff;fill-opacity:1;fill-rule:nonzero;stroke:none;stroke-width:1;marker:none;visibility:visible;display:inline;overflow:visible;enable-background:accumulate" />
    <path
       id="path19592-2"
       d="m 352.79804,-421.001 c 1.64243,-0.092 3.0955,1.17008 3.1875,2.8125 -1e-4,1.40136 -0.37771,1.92177 -1.59375,2.84375 -0.19093,0.14364 -0.3256,0.2506 -0.375,0.3125 -0.0494,0.0621 -0.0312,0.0332 -0.0312,0.0312 0.007,0.52831 -0.47163,1 -1,1 -0.52837,0 -1.007,-0.47169 -1,-1 0,-0.50239 0.22424,-0.94342 0.46875,-1.25 0.24451,-0.30663 0.4913,-0.51638 0.71875,-0.6875 0.20405,-0.16056 0.46083,-0.38454 0.6875,-0.65625 0.0935,-0.1121 0.129,-0.30766 0.125,-0.4375 l 0,-0.0312 c -0.0316,-0.56324 -0.49926,-0.9691 -1.0625,-0.9375 -0.56324,0.0316 -0.9691,0.43676 -0.9375,1 l -2,0 c -0.092,-1.64243 1.17007,-2.9079 2.8125,-3 z m 0.1875,8 c 0.55228,0 1,0.44772 1,1 0,0.55228 -0.44772,1 -1,1 -0.55228,0 -1,-0.44772 -1,-1 0,-0.55228 0.44772,-1 1,-1 z"
       style="color:#ffffff;fill:#ffffff;stroke-width:2" />
  </g>
  <g
     transform="translate(-340.96897,428.00336)"
     style="display:inline;filter:url(#filter7554)"
     id="layer10" />
  <g
     transform="translate(-99.968766,-188.99664)"
     style="display:inline"
     id="layer1" />
  <g
     transform="translate(-340.96897,428.00336)"
     style="display:inline"
     id="layer14" />
  <g
     transform="translate(-340.96897,428.00336)"
     style="display:inline"
     id="layer15" />
  <g
     transform="translate(-340.96897,428.00336)"
     style="display:inline"
     id="g71291" />
  <g
     transform="translate(-99.968766,-38.996641)"
     style="display:inline"
     id="layer2" />
  <g
     transform="translate(-99.968766,-38.996641)"
     style="display:inline"
     id="g6058" />
  <g
     transform="translate(-340.96897,428.00336)"
     style="display:inline"
     id="layer12" />
</svg>
