<?xml version="1.0" encoding="UTF-8" standalone="no"?>
<svg
   xmlns:osb="http://www.openswatchbook.org/uri/2009/osb"
   xmlns:dc="http://purl.org/dc/elements/1.1/"
   xmlns:cc="http://creativecommons.org/ns#"
   xmlns:rdf="http://www.w3.org/1999/02/22-rdf-syntax-ns#"
   xmlns:svg="http://www.w3.org/2000/svg"
   xmlns="http://www.w3.org/2000/svg"
   height="24"
   id="svg7384"
   style="enable-background:new"
   version="1.1"
   width="24">
  <metadata
     id="metadata90">
    <rdf:RDF>
      <cc:Work
         rdf:about="">
        <dc:format>image/svg+xml</dc:format>
        <dc:type
           rdf:resource="http://purl.org/dc/dcmitype/StillImage" />
        <dc:title>Moka Symbolic Icon Theme</dc:title>
      </cc:Work>
    </rdf:RDF>
  </metadata>
  <title
     id="title8473">Moka Symbolic Icon Theme</title>
  <defs
     id="defs7386">
    <linearGradient
       id="linearGradient5606"
       osb:paint="solid">
      <stop
         id="stop5608"
         offset="0"
         style="stop-color:#000000;stop-opacity:1;" />
    </linearGradient>
    <filter
       color-interpolation-filters="sRGB"
       id="filter7554">
      <feBlend
         id="feBlend7556"
         in2="BackgroundImage"
         mode="darken" />
    </filter>
  </defs>
  <g
     id="layer9"
     style="display:inline"
     transform="translate(-505.00043,431.00336)">
    <path
       style="color:#000000;fill:#000000;fill-opacity:1;stroke:none;opacity:0.35"
       id="path6589"
       d="m 519.0002,-426 c 0.004,0.003 0,1.33333 0,2 l -3,0 0,5 3,0 0,2 1,-0.8125 0,-3.1875 3.875,0 0.625,-0.5 -5.5,-4.5 z" />
    <path
       style="color:#000000;fill:#000000;fill-opacity:1;stroke:none;opacity:0.35"
       id="path6591"
       d="m 515.0002,-420 -5.5,4.5 5.5,4.5 c -0.004,-0.003 0,-1.33333 0,-2 1,0 3,0 3,0 l 0,-2.1875 0,-0.8125 0,-2 c 0,0 -2,0 -3,0 0,-0.66667 0,-2 0,-2 z" />
    <path
       style="color:#ffffff;fill:#000000;stroke:none;opacity:0.35"
       id="path6593"
       d="m 521.0002,-420 -10e-6,4 0.25,2 1.5,0 0.25,-2 10e-6,-4 z m 0,7 0,2 2,0 0,-2 z" />
    <path
       d="m 519.0002,-427 c 0.004,0.003 0,1.33333 0,2 l -3,0 0,5 3,0 0,2 1,-0.8125 0,-3.1875 3.875,0 0.625,-0.5 -5.5,-4.5 z"
       id="path9723"
       style="color:#000000;fill:#ffffff;fill-opacity:1;stroke:none" />
    <path
       d="m 515.0002,-421 -5.5,4.5 5.5,4.5 c -0.004,-0.003 0,-1.33333 0,-2 1,0 3,0 3,0 l 0,-2.1875 0,-0.8125 0,-2 c 0,0 -2,0 -3,0 0,-0.66667 0,-2 0,-2 z"
       id="path9727"
       style="color:#000000;fill:#ffffff;fill-opacity:1;stroke:none" />
    <path
       d="m 521.0002,-421 -10e-6,4 0.25,2 1.5,0 0.25,-2 10e-6,-4 z m 0,7 0,2 2,0 0,-2 z"
       id="path6053-9"
       style="color:#ffffff;fill:#ef2929;stroke:none" />
  </g>
  <g
     id="layer10"
     style="display:inline;filter:url(#filter7554)"
     transform="translate(-505.00043,431.00336)" />
  <g
     id="layer1"
     style="display:inline"
     transform="translate(-264.00023,-185.99664)" />
  <g
     id="layer14"
     style="display:inline"
     transform="translate(-505.00043,431.00336)" />
  <g
     id="layer15"
     style="display:inline"
     transform="translate(-505.00043,431.00336)" />
  <g
     id="g71291"
     style="display:inline"
     transform="translate(-505.00043,431.00336)" />
  <g
     id="layer2"
     style="display:inline"
     transform="translate(-264.00023,-35.996643)" />
  <g
     id="g6058"
     style="display:inline"
     transform="translate(-264.00023,-35.996643)" />
  <g
     id="layer12"
     style="display:inline"
     transform="translate(-505.00043,431.00336)" />
</svg>
