<?xml version="1.0" encoding="UTF-8" standalone="no"?>
<svg id="svg7384" xmlns:rdf="http://www.w3.org/1999/02/22-rdf-syntax-ns#" style="enable-background:new" xmlns="http://www.w3.org/2000/svg" xmlns:osb="http://www.openswatchbook.org/uri/2009/osb" height="24" width="24" version="1.1" xmlns:cc="http://creativecommons.org/ns#" xmlns:dc="http://purl.org/dc/elements/1.1/">
 <metadata id="metadata90">
  <rdf:RDF>
   <cc:Work rdf:about="">
    <dc:format>image/svg+xml</dc:format>
    <dc:type rdf:resource="http://purl.org/dc/dcmitype/StillImage"/>
    <dc:title>Moka Symbolic Icon Theme</dc:title>
   </cc:Work>
  </rdf:RDF>
 </metadata>
 <title id="title8473">Moka Symbolic Icon Theme</title>
 <defs id="defs7386">
  <filter id="filter7554" color-interpolation-filters="sRGB">
   <feBlend id="feBlend7556" in2="BackgroundImage" mode="darken"/>
  </filter>
 </defs>
 <g id="layer9" transform="translate(-281 428)">
  <path id="path6480" style="opacity:.35;color:#000000;enable-background:accumulate" d="m293-418c-2.2326 0-4.3046 0.73219-5.9688 1.9688l6 6.5312 0.96875-1.0625v-0.4375-1h1c0.0168-1.6374 1.3544-3 3-3 0.0107 0 0.0206-0.00012 0.0312 0l0.9375-1.0312c-1.6641-1.2366-3.7362-1.9688-5.9688-1.9688zm5 4c-1.108 0-2 0.91081-2 2.0312v0.96875h-1v1 2 1h1 4 1v-1-2-1h-1v-0.96875c0-1.12-0.892-2.0312-2-2.0312zm0 1c0.554 0 1 0.44236 1 1v1h-2v-1c0-0.55764 0.446-1 1-1z"/>
  <path id="path5907" style="opacity:.35;color:#000000;enable-background:accumulate;fill:#fff" d="m293.03-422c-3.0344 0-5.7659 1.0782-8.0312 2.75l8.0312 8.75 0.96875-1.0625v-0.4375-1h1c0.0168-1.6374 1.3544-3 3-3h0.0312l2.9688-3.2812c-2.2566-1.6533-4.9577-2.7188-7.9688-2.7188z"/>
  <path id="path5949" style="color:#000000;enable-background:accumulate;fill:#fff" d="m12 9c-2.2326 0-4.3046 0.7322-5.9688 1.969l6 6.5312 0.969-1.062v-0.438-1h1c0.0168-1.6374 1.3544-3 3-3 0.0107 0 0.02065-0.00012 0.03125 0l0.9375-1.0312c-1.663-1.2368-3.735-1.969-5.968-1.969zm5 4c-1.108 0-2 0.91081-2 2.0312v0.969h-1v1 2 1h1 4 1v-1-2-1h-1v-0.96875c0-1.12-0.892-2.031-2-2.031zm0 1c0.554 0 1 0.44236 1 1v1h-2v-1c0-0.55764 0.446-1 1-1z" transform="translate(281 -428)"/>
 </g>
</svg>
