<?xml version="1.0" encoding="UTF-8" standalone="no"?>
<svg id="svg4141" xmlns:rdf="http://www.w3.org/1999/02/22-rdf-syntax-ns#" xmlns="http://www.w3.org/2000/svg" height="24" width="24" version="1.0" xmlns:cc="http://creativecommons.org/ns#" xmlns:dc="http://purl.org/dc/elements/1.1/">
 <metadata id="metadata12">
  <rdf:RDF>
   <cc:Work rdf:about="">
    <dc:format>image/svg+xml</dc:format>
    <dc:type rdf:resource="http://purl.org/dc/dcmitype/StillImage"/>
   </cc:Work>
  </rdf:RDF>
 </metadata>
 <path id="path4925" style="opacity:.35" d="m17 14c-1.108 0-2 0.91081-2 2.0312v0.969h-1v1 2 1h1 4 1v-1-2-1h-1v-0.96875c0-1.12-0.892-2.031-2-2.031zm0 1c0.554 0 1 0.44236 1 1v1h-2v-1c0-0.55764 0.446-1 1-1z"/>
 <path id="path3767" style="fill:#fff" d="m17 13c-1.108 0-2 0.91081-2 2.0312v0.969h-1v1 2 1h1 4 1v-1-2-1h-1v-0.96875c0-1.12-0.892-2.031-2-2.031zm0 1c0.554 0 1 0.44236 1 1v1h-2v-1c0-0.55764 0.446-1 1-1z"/>
</svg>
