<?xml version="1.0" encoding="UTF-8" standalone="no"?>
<!-- Created with Inkscape (http://www.inkscape.org/) -->
<svg id="svg6530" xmlns:rdf="http://www.w3.org/1999/02/22-rdf-syntax-ns#" xmlns="http://www.w3.org/2000/svg" height="24" viewBox="0 0 24 24" width="24" version="1.1" xmlns:cc="http://creativecommons.org/ns#" xmlns:dc="http://purl.org/dc/elements/1.1/">
 <metadata id="metadata6535">
  <rdf:RDF>
   <cc:Work rdf:about="">
    <dc:format>image/svg+xml</dc:format>
    <dc:type rdf:resource="http://purl.org/dc/dcmitype/StillImage"/>
    <dc:title/>
   </cc:Work>
  </rdf:RDF>
 </metadata>
 <g id="layer1" transform="translate(-660 -916.27)">
  <path id="path5258" style="color:#bebebe;enable-background:new;fill:#dbdee0" d="m671 920.36s-3 0-3 3v1 6h-2v-6h-2v6c0 2 2 2 2 2h2v1c0 3 3 3 3 3h5v-4.5l-2 2.5-4-5h2v-6h4v2h4v-2c0.0783 0.52713 0-3-3-3h-6zm5 7v1h4v-1h-4z"/>
  <path id="path11098-9" style="color:#444444;fill:#e74c3c" d="m677 929.36-0.00001 4 0.25 2h1.5l0.25-2 0.00001-4zm0 7v2h2v-2z" class="error"/>
 </g>
</svg>
