<?xml version="1.0" encoding="UTF-8" standalone="no"?>
<!-- Created with Inkscape (http://www.inkscape.org/) -->
<svg id="svg6530" xmlns:rdf="http://www.w3.org/1999/02/22-rdf-syntax-ns#" xmlns="http://www.w3.org/2000/svg" height="24" viewBox="0 0 24 24" width="24" version="1.1" xmlns:cc="http://creativecommons.org/ns#" xmlns:dc="http://purl.org/dc/elements/1.1/">
 <metadata id="metadata6535">
  <rdf:RDF>
   <cc:Work rdf:about="">
    <dc:format>image/svg+xml</dc:format>
    <dc:type rdf:resource="http://purl.org/dc/dcmitype/StillImage"/>
    <dc:title/>
   </cc:Work>
  </rdf:RDF>
 </metadata>
 <g id="layer1" transform="translate(-50 -1006.4)">
  <path id="path6913" style="fill:#dbdee0" d="m62 1010.4c-2.0711 0-3.8347 1.2679-4.5938 3.0625-1.9278 0.2866-3.4062 1.9299-3.4062 3.9375 0 2.2091 1.7909 4 4 4h8.5c1.933 0 3.5-1.567 3.5-3.5 0-1.7965-1.3508-3.2687-3.0938-3.4687-0.45457-2.2934-2.4794-4.0313-4.9062-4.0313z"/>
  <path id="rect6932" style="opacity:.35;fill:#dbdee0" d="m57 1022.4v1.1328l-0.98242-0.5664-0.5 0.8672 0.98047 0.5664-0.98047 0.5664 0.5 0.8672 0.98242-0.5664v1.1328h1v-1.1328l0.98242 0.5664 0.5-0.8672-0.98047-0.5664 0.98047-0.5664-0.5-0.8672-0.98242 0.5664v-1.1328h-1z"/>
  <path id="path6939" style="opacity:.35;fill:#dbdee0" d="m62 1022.4v1.1328l-0.98242-0.5664-0.5 0.8672 0.98047 0.5664-0.98047 0.5664 0.5 0.8672 0.98242-0.5664v1.1328h1v-1.1328l0.98242 0.5664 0.5-0.8672-0.98047-0.5664 0.98047-0.5664-0.5-0.8672-0.98242 0.5664v-1.1328h-1z"/>
  <path id="path6941" style="opacity:.35;fill:#dbdee0" d="m67 1022.4v1.1328l-0.98242-0.5664-0.5 0.8672 0.98047 0.5664-0.98047 0.5664 0.5 0.8672 0.98242-0.5664v1.1328h1v-1.1328l0.98242 0.5664 0.5-0.8672-0.98047-0.5664 0.98047-0.5664-0.5-0.8672-0.98242 0.5664v-1.1328h-1z"/>
 </g>
</svg>
