<?xml version="1.0" encoding="UTF-8" standalone="no"?>
<!-- Created with Inkscape (http://www.inkscape.org/) -->
<svg id="svg6530" xmlns:rdf="http://www.w3.org/1999/02/22-rdf-syntax-ns#" xmlns="http://www.w3.org/2000/svg" height="24" viewBox="0 0 24 24" width="24" version="1.1" xmlns:cc="http://creativecommons.org/ns#" xmlns:dc="http://purl.org/dc/elements/1.1/">
 <metadata id="metadata6535">
  <rdf:RDF>
   <cc:Work rdf:about="">
    <dc:format>image/svg+xml</dc:format>
    <dc:type rdf:resource="http://purl.org/dc/dcmitype/StillImage"/>
    <dc:title/>
   </cc:Work>
  </rdf:RDF>
 </metadata>
 <g id="layer1" transform="translate(-76 -1006.4)">
  <path id="path6020" style="fill:#dbdee0" d="m88 1011.4c-2.0711 0-3.8347 1.2679-4.5938 3.0625-1.9278 0.2866-3.4062 1.9299-3.4062 3.9375 0 2.2091 1.7909 4 4 4h0.40625c0.45387-0.8012 1.2409-1.4273 2.125-1.6875 0.61973-1.322 1.9747-2.3383 3.4688-2.3125 1.9077-0.031 3.5817 1.4847 3.875 3.3438 0.14292 0.045 0.26925 0.091 0.40625 0.1562 1.0303-0.6091 1.7188-1.7164 1.7188-3 0-1.7965-1.3508-3.2687-3.0938-3.4687-0.45457-2.2934-2.4794-4.0313-4.9062-4.0313zm2 9c-0.33987-0.0008-0.67579 0.077-0.96875 0.25-0.58776 0.3186-0.89071 0.9468-1.0625 1.5625-0.0228 0.2123-0.28964 0.1241-0.4375 0.1875h4.4688c0.0209-1.0659-0.92424-2.0367-2-2z"/>
  <path id="path6051" style="fill:#dbdee0" d="m90 1019.4c-1.3117 0-2.4048 0.8584-2.8125 2.0313-1.2308 0.1559-2.1875 1.1955-2.1875 2.4687 0 1.3807 1.1193 2.5 2.5 2.5h5.5c1.1046 0 2-0.8954 2-2s-0.89543-2-2-2c0-1.6569-1.3432-3-3-3z"/>
 </g>
</svg>
