<?xml version="1.0" encoding="UTF-8" standalone="no"?>
<svg
   xmlns:osb="http://www.openswatchbook.org/uri/2009/osb"
   xmlns:dc="http://purl.org/dc/elements/1.1/"
   xmlns:cc="http://creativecommons.org/ns#"
   xmlns:rdf="http://www.w3.org/1999/02/22-rdf-syntax-ns#"
   xmlns:svg="http://www.w3.org/2000/svg"
   xmlns="http://www.w3.org/2000/svg"
   width="16.000244"
   version="1.1"
   style="enable-background:new"
   id="svg7384"
   height="16.003357">
  <metadata
     id="metadata90">
    <rdf:RDF>
      <cc:Work
         rdf:about="">
        <dc:format>image/svg+xml</dc:format>
        <dc:type
           rdf:resource="http://purl.org/dc/dcmitype/StillImage" />
        <dc:title>Moka Symbolic Icon Theme</dc:title>
      </cc:Work>
    </rdf:RDF>
  </metadata>
  <title
     id="title8473">Moka Symbolic Icon Theme</title>
  <defs
     id="defs7386">
    <linearGradient
       osb:paint="solid"
       id="linearGradient5606">
      <stop
         style="stop-color:#000000;stop-opacity:1;"
         offset="0"
         id="stop5608" />
    </linearGradient>
    <filter
       id="filter7554"
       color-interpolation-filters="sRGB">
      <feBlend
         mode="darken"
         in2="BackgroundImage"
         id="feBlend7556" />
    </filter>
  </defs>
  <g
     transform="translate(-725.0002,227)"
     style="display:inline"
     id="layer9" />
  <g
     transform="translate(-725.0002,227)"
     style="display:inline;filter:url(#filter7554)"
     id="layer10" />
  <g
     transform="translate(-484,-390)"
     style="display:inline"
     id="layer1" />
  <g
     transform="translate(-725.0002,227)"
     style="display:inline"
     id="layer14" />
  <g
     transform="translate(-725.0002,227)"
     style="display:inline"
     id="layer15">
    <path
       style="fill:#bebebe;fill-opacity:1;stroke:none"
       id="path4982"
       d="m 739.0002,-226.19664 -10,1 0,3.2 0,5.1875 c -0.31647,-0.11352 -0.64447,-0.1875 -1,-0.1875 -1.65685,0 -3,1.34315 -3,3 0,1.65685 1.34315,3 3,3 1.65685,0 3,-1.34315 3,-3 l 0,-8.01838 6,-0.5625 0,4.76838 c -0.31647,-0.11352 -0.64447,-0.1875 -1,-0.1875 -1.65685,0 -3,1.34315 -3,3 0,1.65685 1.34315,3 3,3 1.65685,0 3,-1.34315 3,-3 l 0,-7.79963 z" />
  </g>
  <g
     transform="translate(-725.0002,227)"
     style="display:inline"
     id="g71291" />
  <g
     transform="translate(-484,-240)"
     style="display:inline"
     id="layer2" />
  <g
     transform="translate(-484,-240)"
     style="display:inline"
     id="g6058" />
  <g
     transform="translate(-725.0002,227)"
     style="display:inline"
     id="layer12" />
</svg>
