<?xml version="1.0" encoding="UTF-8" standalone="no"?>
<svg
   xmlns:osb="http://www.openswatchbook.org/uri/2009/osb"
   xmlns:dc="http://purl.org/dc/elements/1.1/"
   xmlns:cc="http://creativecommons.org/ns#"
   xmlns:rdf="http://www.w3.org/1999/02/22-rdf-syntax-ns#"
   xmlns:svg="http://www.w3.org/2000/svg"
   xmlns="http://www.w3.org/2000/svg"
   width="16"
   version="1.1"
   style="enable-background:new"
   id="svg7384"
   height="16">
  <metadata
     id="metadata90">
    <rdf:RDF>
      <cc:Work
         rdf:about="">
        <dc:format>image/svg+xml</dc:format>
        <dc:type
           rdf:resource="http://purl.org/dc/dcmitype/StillImage" />
        <dc:title>Moka Symbolic Icon Theme</dc:title>
      </cc:Work>
    </rdf:RDF>
  </metadata>
  <title
     id="title8473">Moka Symbolic Icon Theme</title>
  <defs
     id="defs7386">
    <linearGradient
       osb:paint="solid"
       id="linearGradient5606">
      <stop
         style="stop-color:#000000;stop-opacity:1;"
         offset="0"
         id="stop5608" />
    </linearGradient>
    <filter
       id="filter7554"
       color-interpolation-filters="sRGB">
      <feBlend
         mode="darken"
         in2="BackgroundImage"
         id="feBlend7556" />
    </filter>
  </defs>
  <g
     transform="translate(-685.0004,227.0034)"
     style="display:inline"
     id="layer9" />
  <g
     transform="translate(-685.0004,227.0034)"
     style="display:inline;filter:url(#filter7554)"
     id="layer10" />
  <g
     transform="translate(-444.0002,-389.9966)"
     style="display:inline"
     id="layer1" />
  <g
     transform="translate(-685.0004,227.0034)"
     style="display:inline"
     id="layer14" />
  <g
     transform="translate(-685.0004,227.0034)"
     style="display:inline"
     id="layer15">
    <g
       transform="translate(338.8097,-1190.1815)"
       id="g35541">
      <path
         transform="translate(-97.8095,717.1815)"
         style="fill:#bebebe;fill-opacity:1;stroke:none"
         id="path35543"
         d="m 452,247 c -3.86599,0 -7,3.13401 -7,7 0,3.86599 3.13401,7 7,7 3.86599,0 7,-3.13401 7,-7 0,-3.86599 -3.13401,-7 -7,-7 z m -1,3 2,0 0,3 -0.25,2 -1.46875,0 -0.28125,-2 0,-3 z m 1,5.75 c 0.69036,0 1.25,0.55964 1.25,1.25 0,0.69036 -0.55964,1.25 -1.25,1.25 -0.69036,0 -1.25,-0.55964 -1.25,-1.25 0,-0.69036 0.55964,-1.25 1.25,-1.25 z" />
    </g>
  </g>
  <g
     transform="translate(-685.0004,227.0034)"
     style="display:inline"
     id="g71291" />
  <g
     transform="translate(-444.0002,-239.9966)"
     style="display:inline"
     id="layer2" />
  <g
     transform="translate(-444.0002,-239.9966)"
     style="display:inline"
     id="g6058" />
  <g
     transform="translate(-685.0004,227.0034)"
     style="display:inline"
     id="layer12" />
</svg>
