<?xml version="1.0" encoding="UTF-8" standalone="no"?>
<svg
   xmlns:osb="http://www.openswatchbook.org/uri/2009/osb"
   xmlns:dc="http://purl.org/dc/elements/1.1/"
   xmlns:cc="http://creativecommons.org/ns#"
   xmlns:rdf="http://www.w3.org/1999/02/22-rdf-syntax-ns#"
   xmlns:svg="http://www.w3.org/2000/svg"
   xmlns="http://www.w3.org/2000/svg"
   width="16"
   version="1.1"
   style="enable-background:new"
   id="svg7384"
   height="16.027742">
  <metadata
     id="metadata90">
    <rdf:RDF>
      <cc:Work
         rdf:about="">
        <dc:format>image/svg+xml</dc:format>
        <dc:type
           rdf:resource="http://purl.org/dc/dcmitype/StillImage" />
        <dc:title>Moka Symbolic Icon Theme</dc:title>
      </cc:Work>
    </rdf:RDF>
  </metadata>
  <title
     id="title8473">Moka Symbolic Icon Theme</title>
  <defs
     id="defs7386">
    <linearGradient
       osb:paint="solid"
       id="linearGradient5606">
      <stop
         style="stop-color:#000000;stop-opacity:1;"
         offset="0"
         id="stop5608" />
    </linearGradient>
    <filter
       id="filter7554"
       color-interpolation-filters="sRGB">
      <feBlend
         mode="darken"
         in2="BackgroundImage"
         id="feBlend7556" />
    </filter>
  </defs>
  <g
     transform="translate(-725.00021,207)"
     style="display:inline"
     id="layer9" />
  <g
     transform="translate(-725.00021,207)"
     style="display:inline;filter:url(#filter7554)"
     id="layer10" />
  <g
     transform="translate(-484.00001,-410)"
     style="display:inline"
     id="layer1" />
  <g
     transform="translate(-725.00021,207)"
     style="display:inline"
     id="layer14" />
  <g
     transform="translate(-725.00021,207)"
     style="display:inline"
     id="layer15">
    <g
       transform="matrix(0,1,1,0,764.02933,-632.01273)"
       id="g5089">
      <path
         style="fill:#bebebe;fill-opacity:1;stroke:none"
         id="path5091"
         d="m 433.01274,-24.000142 c -0.33516,3e-6 -0.67491,-0.0183 -1,-0.0625 l -1e-5,-2.062495 c 0.32425,0.0712 0.65294,0.125 1,0.124999 2.76143,-1e-6 5.00001,-2.238581 5.00001,-5.000002 0,-0.395259 -0.0672,-0.757248 -0.15625,-1.125 l -1.84375,1.124997 0,-3.968749 0,-2.343749 0,-0.187499 5,3.500001 -1.34376,0.8125 c 0.22886,0.689957 0.34376,1.419617 0.34375,2.187501 1e-5,3.865985 -3.134,6.999996 -6.99999,6.999997 z m -3.00001,-0.499997 -5,-3.500001 1.34376,-0.8125 c -0.22302,-0.682002 -0.34375,-1.429892 -0.34375,-2.187501 0,-3.865992 3.13401,-7.000003 6.99999,-6.999997 0.33705,-5e-6 0.67643,0.03974 1.00001,0.09375 l 0,2.031249 c -0.32168,-0.0731 -0.65447,-0.125001 -1,-0.124999 -2.76143,10e-7 -5.00001,2.238581 -5.00001,5.000002 0,0.38212 0.0416,0.768449 0.12501,1.124995 l 1.875,-1.125 0,3.96875 0,2.343749 -1e-5,0.187506 z" />
    </g>
  </g>
  <g
     transform="translate(-725.00021,207)"
     style="display:inline"
     id="g71291" />
  <g
     transform="translate(-484.00001,-260)"
     style="display:inline"
     id="layer2" />
  <g
     transform="translate(-484.00001,-260)"
     style="display:inline"
     id="g6058" />
  <g
     transform="translate(-725.00021,207)"
     style="display:inline"
     id="layer12" />
</svg>
