<?xml version="1.0" encoding="UTF-8" standalone="no"?>
<!-- Generator: Adobe Illustrator 14.0.0, SVG Export Plug-In  -->

<svg
   xmlns:dc="http://purl.org/dc/elements/1.1/"
   xmlns:cc="http://creativecommons.org/ns#"
   xmlns:rdf="http://www.w3.org/1999/02/22-rdf-syntax-ns#"
   xmlns:svg="http://www.w3.org/2000/svg"
   xmlns="http://www.w3.org/2000/svg"
   xmlns:sodipodi="http://sodipodi.sourceforge.net/DTD/sodipodi-0.dtd"
   xmlns:inkscape="http://www.inkscape.org/namespaces/inkscape"
   version="1.1"
   x="0px"
   y="0px"
   width="48"
   height="48"
   viewBox="-0.866 -0.866 48 48"
   enable-background="new -0.866 -0.866 285 285"
   xml:space="preserve"
   id="svg2"
   inkscape:version="0.91 r13725"
   sodipodi:docname="ubuntu.svg"><metadata
     id="metadata12"><rdf:RDF><cc:Work
         rdf:about=""><dc:format>image/svg+xml</dc:format><dc:type
           rdf:resource="http://purl.org/dc/dcmitype/StillImage" /><dc:title></dc:title></cc:Work></rdf:RDF></metadata><sodipodi:namedview
     pagecolor="#ffffff"
     bordercolor="#666666"
     borderopacity="1"
     objecttolerance="10"
     gridtolerance="10"
     guidetolerance="10"
     inkscape:pageopacity="0"
     inkscape:pageshadow="2"
     inkscape:window-width="1305"
     inkscape:window-height="744"
     id="namedview10"
     showgrid="false"
     inkscape:zoom="10.9774"
     inkscape:cx="24.143825"
     inkscape:cy="21.563568"
     inkscape:window-x="61"
     inkscape:window-y="24"
     inkscape:window-maximized="1"
     inkscape:current-layer="svg2" /><defs
     id="defs4" /><path
     d="m 46.722914,23.241916 c 0,12.97813 -10.52151,23.49967 -23.50024,23.49967 -12.97875,0 -23.49976009,-10.52138 -23.49976009,-23.49967 0,-12.97912 10.52084009,-23.50032991 23.49959009,-23.50032991 12.97874,0 23.50041,10.52120991 23.50041,23.50032991 z"
     id="path6"
     inkscape:connector-curvature="0"
     style="fill:#dd4814" /><path
     d="m 7.2431739,20.104536 c -1.73316,0 -3.13753,1.40438 -3.13753,3.13755 0,1.7325 1.40437,3.13704 3.13753,3.13704 1.7325,0 3.1370401,-1.40454 3.1370401,-3.13704 0,-1.73334 -1.4043701,-3.13755 -3.1370401,-3.13755 z m 22.4014601,14.25964 c -1.5007,0.86634 -2.01436,2.78437 -1.14837,4.28442 0.8665,1.50071 2.78437,2.0147 4.28508,1.14837 1.5002,-0.86617 2.0142,-2.78421 1.14787,-4.28476 -0.86617,-1.50003 -2.78437,-2.0142 -4.28458,-1.14803 z m -15.58652,-11.12259 c 0,-3.10074 1.54082,-5.83951 3.89708,-7.49791 l -2.29375,-3.84222 c -2.74574,1.83448 -4.78812,4.63892 -5.63655,7.92353 0.99102,0.80781 1.62423,2.03793 1.62423,3.41693 0,1.37867 -0.63321,2.6088 -1.6244,3.41643 0.84826,3.28494 2.89082,6.08938 5.63656,7.92369 l 2.29391,-3.84254 c -2.35626,-1.65806 -3.89708,-4.39667 -3.89708,-7.49791 z m 9.16488,-9.16492 c 4.78797,0 8.71539,3.67111 9.12708,8.35214 l 4.47145,-0.0653 c -0.22003,-3.45606 -1.72969,-6.55961 -4.0498,-8.8406 -1.19281,0.45066 -2.57081,0.38234 -3.76179,-0.30542 -1.19248,-0.68842 -1.94076,-1.84973 -2.14569,-3.11002 -1.15931,-0.3208299 -2.37947,-0.4957599 -3.64109,-0.4957599 -2.16972,0 -4.21957,0.5093699 -6.04045,1.4113499 l 2.17968,3.90638 c 1.1734,-0.546 2.48094,-0.85274 3.86061,-0.85274 z m 0,18.33001 c -1.37983,0 -2.68721,-0.30675 -3.86078,-0.85274 l -2.18,3.90671 c 1.82104,0.90165 3.87105,1.41117 6.04078,1.41117 1.26162,0 2.48177,-0.17492 3.64125,-0.49575 0.20493,-1.26029 0.95338,-2.4216 2.14602,-3.11052 1.19098,-0.68743 2.56899,-0.75574 3.7618,-0.30492 2.31994,-2.28116 3.8296,-5.38471 4.04929,-8.84076 l -4.47144,-0.0653 c -0.41136,4.68169 -4.33895,8.35214 -9.12692,8.35214 z m 6.42115,-20.28784 c 1.50053,0.86666 3.41874,0.3525 4.28473,-1.14754 0.86651,-1.5007199 0.35284,-3.4187499 -1.14786,-4.2852599 -1.50038,-0.86616 -3.41841,-0.35217 -4.28492,1.14854 -0.86616,1.50005 -0.35216,3.4182499 1.14805,4.2842599 z"
     id="path8"
     inkscape:connector-curvature="0"
     style="fill:#ffffff" /></svg>