<?xml version="1.0" encoding="UTF-8" standalone="no"?>
<svg
   xmlns:osb="http://www.openswatchbook.org/uri/2009/osb"
   xmlns:dc="http://purl.org/dc/elements/1.1/"
   xmlns:cc="http://creativecommons.org/ns#"
   xmlns:rdf="http://www.w3.org/1999/02/22-rdf-syntax-ns#"
   xmlns:svg="http://www.w3.org/2000/svg"
   xmlns="http://www.w3.org/2000/svg"
   width="16.000214"
   version="1.1"
   style="enable-background:new"
   id="svg7384"
   height="16.003357">
  <metadata
     id="metadata90">
    <rdf:RDF>
      <cc:Work
         rdf:about="">
        <dc:format>image/svg+xml</dc:format>
        <dc:type
           rdf:resource="http://purl.org/dc/dcmitype/StillImage" />
        <dc:title>Moka Symbolic Icon Theme</dc:title>
      </cc:Work>
    </rdf:RDF>
  </metadata>
  <title
     id="title8473">Moka Symbolic Icon Theme</title>
  <defs
     id="defs7386">
    <linearGradient
       osb:paint="solid"
       id="linearGradient5606">
      <stop
         style="stop-color:#000000;stop-opacity:1;"
         offset="0"
         id="stop5608" />
    </linearGradient>
    <filter
       id="filter7554"
       color-interpolation-filters="sRGB">
      <feBlend
         mode="darken"
         in2="BackgroundImage"
         id="feBlend7556" />
    </filter>
  </defs>
  <g
     transform="translate(-405.0002,271.00336)"
     style="display:inline"
     id="layer9">
    <path
       style="color:#000000;fill:#444444;fill-opacity:1;fill-rule:nonzero;stroke:none;stroke-width:1.54645538;marker:none;visibility:visible;display:inline;overflow:visible;enable-background:accumulate"
       id="path3029"
       d="m 413.0002,-271 c -4.41828,0 -8,3.58172 -8,8 0,4.41828 3.58172,8 8,8 4.41828,0 8,-3.58172 8,-8 0,-4.41828 -3.58172,-8 -8,-8 z m 0,3 c 1.65686,0 3,1.34315 3,3 0,1.65685 -1.34314,3 -3,3 -1.65686,0 -3,-1.34315 -3,-3 0,-1.65685 1.34314,-3 3,-3 z m -1,7 2,0 c 1.47366,0 2.72364,0.87824 3.40625,2.09375 -1.09558,1.17855 -2.67021,1.90625 -4.40625,1.90625 -1.73604,0 -3.31067,-0.7277 -4.40625,-1.90625 0.68261,-1.21551 1.93259,-2.09375 3.40625,-2.09375 z" />
  </g>
  <g
     transform="translate(-405.0002,271.00336)"
     style="display:inline;filter:url(#filter7554)"
     id="layer10" />
  <g
     transform="translate(-164,-345.99664)"
     style="display:inline"
     id="layer1" />
  <g
     transform="translate(-405.0002,271.00336)"
     style="display:inline"
     id="layer14" />
  <g
     transform="translate(-405.0002,271.00336)"
     style="display:inline"
     id="layer15" />
  <g
     transform="translate(-405.0002,271.00336)"
     style="display:inline"
     id="g71291" />
  <g
     transform="translate(-164,-195.99664)"
     style="display:inline"
     id="layer2" />
  <g
     transform="translate(-164,-195.99664)"
     style="display:inline"
     id="g6058" />
  <g
     transform="translate(-405.0002,271.00336)"
     style="display:inline"
     id="layer12" />
</svg>
