<?xml version="1.0" encoding="UTF-8" standalone="no"?>
<svg
   xmlns:osb="http://www.openswatchbook.org/uri/2009/osb"
   xmlns:dc="http://purl.org/dc/elements/1.1/"
   xmlns:cc="http://creativecommons.org/ns#"
   xmlns:rdf="http://www.w3.org/1999/02/22-rdf-syntax-ns#"
   xmlns:svg="http://www.w3.org/2000/svg"
   xmlns="http://www.w3.org/2000/svg"
   height="16"
   id="svg7384"
   style="enable-background:new"
   version="1.1"
   width="16">
  <metadata
     id="metadata90">
    <rdf:RDF>
      <cc:Work
         rdf:about="">
        <dc:format>image/svg+xml</dc:format>
        <dc:type
           rdf:resource="http://purl.org/dc/dcmitype/StillImage" />
        <dc:title>Moka Symbolic Icon Theme</dc:title>
      </cc:Work>
    </rdf:RDF>
  </metadata>
  <title
     id="title8473">Moka Symbolic Icon Theme</title>
  <defs
     id="defs7386">
    <linearGradient
       id="linearGradient5606"
       osb:paint="solid">
      <stop
         id="stop5608"
         offset="0"
         style="stop-color:#000000;stop-opacity:1;" />
    </linearGradient>
    <filter
       color-interpolation-filters="sRGB"
       id="filter7554">
      <feBlend
         id="feBlend7556"
         in2="BackgroundImage"
         mode="darken" />
    </filter>
  </defs>
  <g
     id="layer9"
     style="display:inline"
     transform="translate(-461.00018,368.00336)">
    <path
       d="m 467.0002,-367 0,1 4,0 0,-1 -4,0 z m -2.15625,2 c -0.28125,0.0469 -0.84375,0.25 -0.84375,1 l 0,10 c 0,1 1,1 1,1 l 8,0 c 1,0 1,-1 1,-1 l 0,-10 c 0,0 0,-1 -1,-1 l -8,0 c 0,0 -0.0625,-0.0156 -0.15625,0 z m 4.15625,2 0,3 3,0 -3,5 0,-3 -3,0 3,-5 z"
       id="path6141"
       style="opacity:0.35;fill:#444444;fill-opacity:1;stroke:none;display:inline;enable-background:new" />
    <path
       d="m 464.0002,-357 0,3 c 0,1 1,1 1,1 l 8,0 c 1,0 1,-1 1,-1 l 0,-3 -3.8125,0 -1.1875,2 0,-2 -5,0 z"
       id="path6143"
       style="fill:#444444;fill-opacity:1;stroke:none;display:inline;enable-background:new" />
  </g>
  <g
     id="layer10"
     style="display:inline;filter:url(#filter7554)"
     transform="translate(-461.00018,368.00336)" />
  <g
     id="layer1"
     style="display:inline"
     transform="translate(-219.99998,-248.99664)" />
  <g
     id="layer14"
     style="display:inline"
     transform="translate(-461.00018,368.00336)" />
  <g
     id="layer15"
     style="display:inline"
     transform="translate(-461.00018,368.00336)" />
  <g
     id="g71291"
     style="display:inline"
     transform="translate(-461.00018,368.00336)" />
  <g
     id="layer2"
     style="display:inline"
     transform="translate(-219.99998,-98.996643)" />
  <g
     id="g6058"
     style="display:inline"
     transform="translate(-219.99998,-98.996643)" />
  <g
     id="layer12"
     style="display:inline"
     transform="translate(-461.00018,368.00336)" />
</svg>
