<?xml version="1.0" encoding="UTF-8" standalone="no"?>
<svg id="svg2" xmlns:rdf="http://www.w3.org/1999/02/22-rdf-syntax-ns#" xmlns="http://www.w3.org/2000/svg" xmlns:osb="http://www.openswatchbook.org/uri/2009/osb" height="16" width="16.03" version="1.1" xmlns:cc="http://creativecommons.org/ns#" enable-background="new" xmlns:dc="http://purl.org/dc/elements/1.1/">
 <metadata id="metadata90">
  <rdf:RDF>
   <cc:Work rdf:about="">
    <dc:format>image/svg+xml</dc:format>
    <dc:type rdf:resource="http://purl.org/dc/dcmitype/StillImage"/>
   </cc:Work>
  </rdf:RDF>
 </metadata>
 <g id="layer9" transform="translate(-360.97 363)">
  <path id="path7627" d="m8.0312 2c-3.0343 0-5.7658 1.0782-8.0312 2.75l8.0312 8.75 7.9688-8.7812c-2.257-1.6533-4.958-2.7188-7.9688-2.7188zm-3.0312 3h6c1.108 0 2 0.892 2 2s-0.892 2-2 2h-6c-1.108 0-2-0.892-2-2s0.892-2 2-2z" style="opacity:.35;color:#000000;fill:#444" transform="translate(360.97 -363)"/>
  <path id="path4955" d="m366-357c-0.55228 0-1 0.44772-1 1s0.44772 1 1 1 1-0.44772 1-1-0.44772-1-1-1zm3 0c-0.55228 0-1 0.44772-1 1s0.44772 1 1 1 1-0.44772 1-1-0.44772-1-1-1zm3 0c-0.55228 0-1 0.44772-1 1s0.44772 1 1 1 1-0.44772 1-1-0.44772-1-1-1z" fill="#444"/>
 </g>
</svg>
