<?xml version="1.0" encoding="UTF-8" standalone="no"?>
<svg
   xmlns:osb="http://www.openswatchbook.org/uri/2009/osb"
   xmlns:dc="http://purl.org/dc/elements/1.1/"
   xmlns:cc="http://creativecommons.org/ns#"
   xmlns:rdf="http://www.w3.org/1999/02/22-rdf-syntax-ns#"
   xmlns:svg="http://www.w3.org/2000/svg"
   xmlns="http://www.w3.org/2000/svg"
   width="16"
   version="1.1"
   style="enable-background:new"
   id="svg7384"
   height="16.003326">
  <metadata
     id="metadata90">
    <rdf:RDF>
      <cc:Work
         rdf:about="">
        <dc:format>image/svg+xml</dc:format>
        <dc:type
           rdf:resource="http://purl.org/dc/dcmitype/StillImage" />
        <dc:title>Moka Symbolic Icon Theme</dc:title>
      </cc:Work>
    </rdf:RDF>
  </metadata>
  <title
     id="title8473">Moka Symbolic Icon Theme</title>
  <defs
     id="defs7386">
    <linearGradient
       osb:paint="solid"
       id="linearGradient5606">
      <stop
         style="stop-color:#000000;stop-opacity:1;"
         offset="0"
         id="stop5608" />
    </linearGradient>
    <filter
       id="filter7554"
       color-interpolation-filters="sRGB">
      <feBlend
         mode="darken"
         in2="BackgroundImage"
         id="feBlend7556" />
    </filter>
  </defs>
  <g
     transform="translate(-381.0004,327.00333)"
     style="display:inline"
     id="layer9">
    <path
       style="opacity:0.35;fill:#444444;fill-opacity:1;stroke:none"
       id="path6625"
       d="m 396.0002,-326 -4.1875,4.1875 c 0.30141,-0.0904 0.61318,-0.16931 0.9375,-0.1875 0.0214,-10e-4 0.0411,8.6e-4 0.0625,0 1.25676,-0.0503 2.40398,0.51569 3.1875,1.40625 l 0,-5.40625 z m -6.84375,6.84375 -7.15625,7.15625 9,0 c 0,-0.63155 0.34574,-1.1317 0.8125,-1.5 -0.47775,-0.36281 -0.8215,-0.83219 -0.8125,-1.5 0,-0.79995 0.33733,-1.43593 0.6875,-1.875 0.0435,-0.0546 0.0811,-0.0748 0.125,-0.125 l -1.8125,0 -0.9375,0 -0.0625,-0.9375 c -0.0242,-0.43139 0.0457,-0.82959 0.15625,-1.21875 z m 6.84375,3.75 c -0.2881,0.29578 -0.62417,0.5588 -1,0.84375 l 0,0.0312 c -0.0902,0.068 -0.17532,0.1493 -0.21875,0.1875 -0.006,0.006 -0.025,-0.007 -0.0312,0 -0.005,0.0131 -0.0263,0.0182 -0.0312,0.0312 -0.13247,0.33129 -0.25348,0.60156 -0.53125,0.8125 0.46676,0.3683 0.8125,0.86845 0.8125,1.5 l 1,0 0,-3.40625 z" />
    <path
       style="color:#444444;fill:#444444;fill-opacity:1;stroke:none;stroke-width:2;marker:none;visibility:visible;display:inline;overflow:visible;enable-background:new"
       id="path19592-2-2-4"
       d="m 392.8127,-321 c 1.64243,-0.092 3.0955,1.17008 3.1875,2.8125 -1e-4,1.40136 -0.37771,1.92177 -1.59375,2.84375 -0.19093,0.14364 -0.3256,0.2506 -0.375,0.3125 -0.0494,0.0621 -0.0312,0.0332 -0.0312,0.0312 0.007,0.52831 -0.47163,1 -1,1 -0.52837,0 -1.007,-0.47169 -1,-1 0,-0.50239 0.22424,-0.94342 0.46875,-1.25 0.24451,-0.30663 0.4913,-0.51638 0.71875,-0.6875 0.20405,-0.16056 0.46083,-0.38454 0.6875,-0.65625 0.0935,-0.1121 0.129,-0.30766 0.125,-0.4375 l 0,-0.0312 c -0.0316,-0.56324 -0.49926,-0.9691 -1.0625,-0.9375 -0.56324,0.0316 -0.9691,0.43676 -0.9375,1 l -2,0 c -0.092,-1.64243 1.17007,-2.9079 2.8125,-3 z m 0.1875,8 c 0.55228,0 1,0.44772 1,1 0,0.55228 -0.44772,1 -1,1 -0.55228,0 -1,-0.44772 -1,-1 0,-0.55228 0.44772,-1 1,-1 z" />
  </g>
  <g
     transform="translate(-381.0004,327.00333)"
     style="display:inline;filter:url(#filter7554)"
     id="layer10" />
  <g
     transform="translate(-140.0002,-289.99667)"
     style="display:inline"
     id="layer1" />
  <g
     transform="translate(-381.0004,327.00333)"
     style="display:inline"
     id="layer14" />
  <g
     transform="translate(-381.0004,327.00333)"
     style="display:inline"
     id="layer15" />
  <g
     transform="translate(-381.0004,327.00333)"
     style="display:inline"
     id="g71291" />
  <g
     transform="translate(-140.0002,-139.99667)"
     style="display:inline"
     id="layer2" />
  <g
     transform="translate(-140.0002,-139.99667)"
     style="display:inline"
     id="g6058" />
  <g
     transform="translate(-381.0004,327.00333)"
     style="display:inline"
     id="layer12" />
</svg>
