<?xml version="1.0" encoding="UTF-8" standalone="no"?>
<svg
   xmlns:osb="http://www.openswatchbook.org/uri/2009/osb"
   xmlns:dc="http://purl.org/dc/elements/1.1/"
   xmlns:cc="http://creativecommons.org/ns#"
   xmlns:rdf="http://www.w3.org/1999/02/22-rdf-syntax-ns#"
   xmlns:svg="http://www.w3.org/2000/svg"
   xmlns="http://www.w3.org/2000/svg"
   width="16"
   version="1.1"
   style="enable-background:new"
   id="svg7384"
   height="16">
  <metadata
     id="metadata90">
    <rdf:RDF>
      <cc:Work
         rdf:about="">
        <dc:format>image/svg+xml</dc:format>
        <dc:type
           rdf:resource="http://purl.org/dc/dcmitype/StillImage" />
        <dc:title>Moka Symbolic Icon Theme</dc:title>
      </cc:Work>
    </rdf:RDF>
  </metadata>
  <title
     id="title8473">Moka Symbolic Icon Theme</title>
  <defs
     id="defs7386">
    <linearGradient
       osb:paint="solid"
       id="linearGradient5606">
      <stop
         style="stop-color:#000000;stop-opacity:1;"
         offset="0"
         id="stop5608" />
    </linearGradient>
    <filter
       id="filter7554"
       color-interpolation-filters="sRGB">
      <feBlend
         mode="darken"
         in2="BackgroundImage"
         id="feBlend7556" />
    </filter>
  </defs>
  <g
     transform="translate(-545.00043,451.00336)"
     style="display:inline"
     id="layer9">
    <path
       style="opacity:0.35;color:#000000;fill:#444444;fill-opacity:1;stroke:none"
       id="path9763"
       d="m 555.0002,-451 c 0.004,0.003 0,1.33333 0,2 l -2.1875,0 c 2.15872,-0.0864 4.06543,1.57068 4.1875,3.75 l 0,0.0312 0,0.0312 c -5e-5,0.68375 -0.0897,1.29599 -0.34375,1.84375 l 3.84375,-3.15625 -5.5,-4.5 z m -3,2 0,0.125 c 0.24178,-0.0596 0.49473,-0.11069 0.75,-0.125 l -0.75,0 z m 0.34375,2.09375 c -0.13437,0.0453 -0.23054,0.11651 -0.34375,0.1875 l 0,0.0625 c 0.13234,-0.10114 0.28403,-0.19116 0.4375,-0.25 -0.028,0.008 -0.0666,-0.009 -0.0937,0 z m 2.46875,2.6875 c -0.0345,0.0667 -0.065,0.14266 -0.125,0.21875 0.0343,-0.0326 0.0805,-0.0711 0.0937,-0.0937 0.0183,-0.0312 0.0171,-0.0838 0.0312,-0.125 z m -5.03125,0.21875 -4.28125,3.5 5.5,4.5 c -0.004,-0.003 0,-1.33333 0,-2 l 0.28125,0 c -0.17206,-0.29452 -0.28125,-0.63895 -0.28125,-1 0,-0.63155 0.34574,-1.1317 0.8125,-1.5 -0.47006,-0.35697 -0.8115,-0.84587 -0.8125,-1.5 0,-0.0117 -1.4e-4,-0.0195 0,-0.0312 0.004,-0.35476 0.0795,-0.6815 0.1875,-0.96875 l -0.1875,0 0,-1 -1,0 -0.21875,0 z" />
    <path
       style="color:#444444;fill:#444444;fill-opacity:1;stroke:none"
       id="path19592-2-2-0-8"
       d="m 552.81292,-448.00336 c 1.64243,-0.092 3.0955,1.17008 3.1875,2.8125 -10e-5,1.40136 -0.37771,1.92177 -1.59375,2.84375 -0.19093,0.14364 -0.3256,0.2506 -0.375,0.3125 -0.0494,0.0621 -0.0312,0.0332 -0.0312,0.0312 0.007,0.52831 -0.47163,1 -1,1 -0.52837,0 -1.007,-0.47169 -1,-1 0,-0.50239 0.22424,-0.94342 0.46875,-1.25 0.24451,-0.30663 0.4913,-0.51638 0.71875,-0.6875 0.20405,-0.16056 0.46083,-0.38454 0.6875,-0.65625 0.0935,-0.1121 0.129,-0.30766 0.125,-0.4375 l 0,-0.0312 c -0.0316,-0.56324 -0.49926,-0.9691 -1.0625,-0.9375 -0.56324,0.0316 -0.9691,0.43676 -0.9375,1 l -2,0 c -0.092,-1.64243 1.17007,-2.9079 2.8125,-3 z m 0.1875,8 c 0.55228,0 1,0.44772 1,1 0,0.55228 -0.44772,1 -1,1 -0.55228,0 -1,-0.44772 -1,-1 0,-0.55228 0.44772,-1 1,-1 z" />
  </g>
  <g
     transform="translate(-545.00043,451.00336)"
     style="display:inline;filter:url(#filter7554)"
     id="layer10" />
  <g
     transform="translate(-304.00023,-165.99664)"
     style="display:inline"
     id="layer1" />
  <g
     transform="translate(-545.00043,451.00336)"
     style="display:inline"
     id="layer14" />
  <g
     transform="translate(-545.00043,451.00336)"
     style="display:inline"
     id="layer15" />
  <g
     transform="translate(-545.00043,451.00336)"
     style="display:inline"
     id="g71291" />
  <g
     transform="translate(-304.00023,-15.996643)"
     style="display:inline"
     id="layer2" />
  <g
     transform="translate(-304.00023,-15.996643)"
     style="display:inline"
     id="g6058" />
  <g
     transform="translate(-545.00043,451.00336)"
     style="display:inline"
     id="layer12" />
</svg>
