<?xml version="1.0" encoding="UTF-8" standalone="no"?>
<svg id="svg2" xmlns:rdf="http://www.w3.org/1999/02/22-rdf-syntax-ns#" xmlns="http://www.w3.org/2000/svg" xmlns:osb="http://www.openswatchbook.org/uri/2009/osb" height="16" width="16" version="1.1" xmlns:cc="http://creativecommons.org/ns#" enable-background="new" xmlns:dc="http://purl.org/dc/elements/1.1/">
 <metadata id="metadata90">
  <rdf:RDF>
   <cc:Work rdf:about="">
    <dc:format>image/svg+xml</dc:format>
    <dc:type rdf:resource="http://purl.org/dc/dcmitype/StillImage"/>
   </cc:Work>
  </rdf:RDF>
 </metadata>
 <g id="layer9" transform="translate(-421 362)">
  <path id="rect12924" color="#000000" stroke-width="4" fill="#f57900" d="m424-361s-2 0-2 2v10s-0.00009 2 2 2h10s2 0 2-2v-10s-0.00009-1.8876-2-1.9062l-10-0.0937zm5.0312 3c1.7079 0 3.243 0.55602 4.7188 1.3125l-3.6562 4.0312c-0.31-0.2-0.69-0.34-1.09-0.34-0.38541 0-0.7549 0.11844-1.0625 0.3125l-3.6875-3.9688c1.492-0.77095 3.0518-1.3438 4.7812-1.3438zm-0.0312 6c0.55228 0 1 0.44772 1 1s-0.44772 1-1 1-1-0.44772-1-1 0.44772-1 1-1z"/>
 </g>
</svg>
