<?xml version="1.0" encoding="UTF-8" standalone="no"?>
<svg id="svg7384" xmlns:rdf="http://www.w3.org/1999/02/22-rdf-syntax-ns#" style="enable-background:new" xmlns="http://www.w3.org/2000/svg" xmlns:osb="http://www.openswatchbook.org/uri/2009/osb" height="16" width="16" version="1.1" xmlns:cc="http://creativecommons.org/ns#" xmlns:dc="http://purl.org/dc/elements/1.1/">
 <metadata id="metadata90">
  <rdf:RDF>
   <cc:Work rdf:about="">
    <dc:format>image/svg+xml</dc:format>
    <dc:type rdf:resource="http://purl.org/dc/dcmitype/StillImage"/>
    <dc:title>Moka Symbolic Icon Theme</dc:title>
   </cc:Work>
  </rdf:RDF>
 </metadata>
 <title id="title8473">Moka Symbolic Icon Theme</title>
 <defs id="defs7386">
  <filter id="filter7554" color-interpolation-filters="sRGB">
   <feBlend id="feBlend7556" in2="BackgroundImage" mode="darken"/>
  </filter>
 </defs>
 <g id="layer9" transform="translate(-281 327)">
  <path id="path6535" style="fill:#444" d="m15 1l-14 14h8v-2-1-1h1c0.017-1.6374 1.354-3 3-3 0.768 0 1.469 0.2988 2 0.7812v-7.7812zm-4 12v2h4v-2h-1-2-1z" transform="translate(281 -327)"/>
  <path id="path5983" style="fill:#444" d="m294-318c-1.108 0-2 0.91081-2 2.0312v0.96875h-1v1 2 1h1 4 1v-1-2-1h-1v-0.96875c0-1.12-0.892-2.0312-2-2.0312zm0 1c0.554 0 1 0.44236 1 1v1h-2v-1c0-0.55764 0.446-1 1-1z"/>
 </g>
</svg>
