<?xml version="1.0" encoding="UTF-8" standalone="no"?>
<svg
   xmlns:osb="http://www.openswatchbook.org/uri/2009/osb"
   xmlns:dc="http://purl.org/dc/elements/1.1/"
   xmlns:cc="http://creativecommons.org/ns#"
   xmlns:rdf="http://www.w3.org/1999/02/22-rdf-syntax-ns#"
   xmlns:svg="http://www.w3.org/2000/svg"
   xmlns="http://www.w3.org/2000/svg"
   width="16.000017"
   version="1.1"
   style="enable-background:new"
   id="svg7384"
   height="16">
  <metadata
     id="metadata90">
    <rdf:RDF>
      <cc:Work
         rdf:about="">
        <dc:format>image/svg+xml</dc:format>
        <dc:type
           rdf:resource="http://purl.org/dc/dcmitype/StillImage" />
        <dc:title>Moka Symbolic Icon Theme</dc:title>
      </cc:Work>
    </rdf:RDF>
  </metadata>
  <title
     id="title8473">Moka Symbolic Icon Theme</title>
  <defs
     id="defs7386">
    <linearGradient
       osb:paint="solid"
       id="linearGradient5606">
      <stop
         style="stop-color:#000000;stop-opacity:1;"
         offset="0"
         id="stop5608" />
    </linearGradient>
    <filter
       id="filter7554"
       color-interpolation-filters="sRGB">
      <feBlend
         mode="darken"
         in2="BackgroundImage"
         id="feBlend7556" />
    </filter>
  </defs>
  <g
     transform="translate(-321.0002,428.00336)"
     style="display:inline"
     id="layer9">
    <path
       id="path5938"
       transform="translate(321.0002,-428.00336)"
       d="M 8.03125 2 C 4.9969 2 2.26537 3.07815 0 4.75 L 8.03125 13.5 L 9 12.4375 L 9 12 L 9 11 L 10 11 C 10.01675 9.36263 11.35439 8 13 8 L 13.03125 8 L 16 4.71875 C 13.74339 3.06546 11.0423 2 8.03125 2 z "
       style="opacity:0.35;color:#000000;fill:#444444;fill-opacity:1;fill-rule:nonzero;stroke:none;stroke-width:1;marker:none;visibility:visible;display:inline;overflow:visible;enable-background:accumulate" />
    <path
       d="m 334.0002,-419 c -1.108,0 -2,0.91081 -2,2.03125 l 0,0.96875 -1,0 0,1 0,2 0,1 1,0 4,0 1,0 0,-1 0,-2 0,-1 -1,0 0,-0.96875 c 0,-1.12 -0.892,-2.03125 -2,-2.03125 z m 0,1 c 0.554,0 1,0.44236 1,1 l 0,1 -2,0 0,-1 c 0,-0.55764 0.446,-1 1,-1 z"
       id="path3767"
       style="fill:#444444" />
  </g>
  <g
     transform="translate(-321.0002,428.00336)"
     style="display:inline;filter:url(#filter7554)"
     id="layer10" />
  <g
     transform="translate(-80,-188.99664)"
     style="display:inline"
     id="layer1" />
  <g
     transform="translate(-321.0002,428.00336)"
     style="display:inline"
     id="layer14" />
  <g
     transform="translate(-321.0002,428.00336)"
     style="display:inline"
     id="layer15" />
  <g
     transform="translate(-321.0002,428.00336)"
     style="display:inline"
     id="g71291" />
  <g
     transform="translate(-80,-38.996641)"
     style="display:inline"
     id="layer2" />
  <g
     transform="translate(-80,-38.996641)"
     style="display:inline"
     id="g6058" />
  <g
     transform="translate(-321.0002,428.00336)"
     style="display:inline"
     id="layer12" />
</svg>
