<?xml version="1.0" encoding="UTF-8" standalone="no"?>
<svg id="svg7384" xmlns:rdf="http://www.w3.org/1999/02/22-rdf-syntax-ns#" style="enable-background:new" xmlns="http://www.w3.org/2000/svg" xmlns:osb="http://www.openswatchbook.org/uri/2009/osb" height="16" width="16" version="1.1" xmlns:cc="http://creativecommons.org/ns#" xmlns:dc="http://purl.org/dc/elements/1.1/">
 <metadata id="metadata90">
  <rdf:RDF>
   <cc:Work rdf:about="">
    <dc:format>image/svg+xml</dc:format>
    <dc:type rdf:resource="http://purl.org/dc/dcmitype/StillImage"/>
    <dc:title>Moka Symbolic Icon Theme</dc:title>
   </cc:Work>
  </rdf:RDF>
 </metadata>
 <title id="title8473">Moka Symbolic Icon Theme</title>
 <defs id="defs7386">
  <filter id="filter7554" color-interpolation-filters="sRGB">
   <feBlend id="feBlend7556" mode="darken" in2="BackgroundImage"/>
  </filter>
 </defs>
 <g id="layer9" transform="translate(-301 428)">
  <path id="path5923" d="m8.0312 2c-3.0343 0-5.7658 1.0782-8.0312 2.75l8.0312 8.75 0.9688-1.062v-0.438-1h1c0.017-1.6374 1.354-3 3-3h0.031l2.969-3.2812c-2.257-1.6533-4.958-2.7188-7.9688-2.7188z" style="opacity:.35;color:#000000;enable-background:accumulate;fill:#444" transform="translate(301 -428)"/>
  <path id="path5964" d="m8 6c-1.9757 0-3.7969 0.6395-5.2812 1.7188l5.3124 5.7812 0.9688-1.062v-0.438-1h1c0.017-1.6374 1.354-3 3-3h0.031l0.25-0.2812c-1.484-1.0793-3.3053-1.7188-5.281-1.7188z" style="color:#000000;enable-background:accumulate;fill:#444" transform="translate(301 -428)"/>
  <path id="path3767" style="fill:#444" d="m314-419c-1.108 0-2 0.91081-2 2.0312v0.96875h-1v1 2 1h1 4 1v-1-2-1h-1v-0.96875c0-1.12-0.892-2.0312-2-2.0312zm0 1c0.554 0 1 0.44236 1 1v1h-2v-1c0-0.55764 0.446-1 1-1z"/>
 </g>
</svg>
