<?xml version="1.0" encoding="UTF-8" standalone="no"?>
<svg id="svg7384" xmlns:rdf="http://www.w3.org/1999/02/22-rdf-syntax-ns#" style="enable-background:new" xmlns="http://www.w3.org/2000/svg" xmlns:osb="http://www.openswatchbook.org/uri/2009/osb" height="16" width="16" version="1.1" xmlns:cc="http://creativecommons.org/ns#" xmlns:dc="http://purl.org/dc/elements/1.1/">
 <metadata id="metadata90">
  <rdf:RDF>
   <cc:Work rdf:about="">
    <dc:format>image/svg+xml</dc:format>
    <dc:type rdf:resource="http://purl.org/dc/dcmitype/StillImage"/>
    <dc:title>Moka Symbolic Icon Theme</dc:title>
   </cc:Work>
  </rdf:RDF>
 </metadata>
 <title id="title8473">Moka Symbolic Icon Theme</title>
 <defs id="defs7386">
  <filter id="filter7554" style="color-interpolation-filters:sRGB">
   <feBlend id="feBlend7556" mode="darken" in2="BackgroundImage"/>
  </filter>
 </defs>
 <g id="layer9" transform="translate(-381 368)">
  <path id="path7440-8" style="enable-background:new;fill:#bebebe" d="m386-363v3.0938l1.8438-3.0938zm4 0v2h2v-2zm2 4.9062-1.8438 3.0938h1.8438zm-6 1.0938v2h2v-2z"/>
  <path id="path7444-2" style="enable-background:new;fill:#bebebe" d="m387-367v1h4v-1zm-2.1562 2c-0.28125 0.0469-0.84375 0.25-0.84375 1v10c0 1 1 1 1 1h8c1 0 1-1 1-1v-10s0-1-1-1h-8s-0.0625-0.0156-0.15625 0zm0.15625 1h8v10h-8z"/>
  <path id="path7832" style="enable-background:new;fill:#bebebe" d="m389-363v3h3l-3 5v-3h-3z"/>
 </g>
</svg>
