<?xml version="1.0" encoding="UTF-8" standalone="no"?>
<svg id="svg2990" xmlns:rdf="http://www.w3.org/1999/02/22-rdf-syntax-ns#" xmlns="http://www.w3.org/2000/svg" xmlns:osb="http://www.openswatchbook.org/uri/2009/osb" height="24" width="24" version="1.1" xmlns:cc="http://creativecommons.org/ns#" enable-background="new" xmlns:dc="http://purl.org/dc/elements/1.1/">
 <metadata id="metadata90">
  <rdf:RDF>
   <cc:Work rdf:about="">
    <dc:format>image/svg+xml</dc:format>
    <dc:type rdf:resource="http://purl.org/dc/dcmitype/StillImage"/>
   </cc:Work>
  </rdf:RDF>
 </metadata>
 <g id="layer9" transform="translate(-257 351)">
  <path id="path4328" style="opacity:.35" d="m269.31-346c-3.047 0-5.5 2.676-5.5 6v4c0 3.324 2.453 6 5.5 6 0.23333 0 0.46197-0.032 0.6875-0.0625v-0.9375-1.5312l-0.21875 0.21875c-0.0252 0.0599-0.0798 0.11106-0.125 0.15625-0.0904 0.0904-0.20525 0.15625-0.34375 0.15625h-0.5v-0.5-4.4375l-2.1562 1.7812c-0.0905 0.0905-0.20568 0.15625-0.34375 0.15625h-0.5v-0.5c0-0.15322 0.079-0.28328 0.1875-0.375l2.5625-2.125-2.4375-2.0312c-0.0467-0.0197-0.0868-0.0616-0.125-0.0937-0.10854-0.0917-0.1875-0.22178-0.1875-0.375v-0.5h0.5c0.12292 0 0.22543 0.0514 0.3125 0.125 0.0107 0.009 0.0214 0.0213 0.0312 0.0312l2.1562 1.7812v-4.4375-0.5h0.5c0.20775 0 0.39305 0.13292 0.46875 0.3125l2.875 2.8438 0.40625 0.375-0.4375 0.34375-2.5625 2.125 1.5312 1.25c0.54668-0.74778 1.4176-1.25 2.4062-1.25 0.28461 0 0.55158 0.0491 0.8125 0.125v-2.125c0-3.324-2.453-6-5.5-6zm0.5 3.6875v3.25l1.7812-1.4688-1.7812-1.7812zm4.1875 5.3125c-1.108 0-2 0.91085-2 2.0312v0.96875h-1v1 2 1h1 4 1v-1-2-1h-1v-0.96875c0-1.1199-0.892-2.0312-2-2.0312zm-4.1875 0.0625v3.25l0.1875-0.1875v-0.125-1h1c0.003-0.29677 0.0725-0.57151 0.15625-0.84375l-1.3438-1.0938zm4.1875 0.9375c0.554 0 1 0.4424 1 1v1h-2v-1c0-0.5576 0.446-1 1-1z"/>
  <path id="path3787" d="m12.312 4c-3.0465 0-5.4995 2.676-5.4995 6v4c0 3.324 2.453 6 5.4995 6 0.234 0 0.462-0.032 0.688-0.062v-0.938-1.531l-0.219 0.219c-0.025 0.059-0.08 0.111-0.125 0.156-0.09 0.09-0.205 0.156-0.344 0.156h-0.5v-0.5-4.438l-2.1558 1.782c-0.0904 0.09-0.2056 0.156-0.3437 0.156h-0.5v-0.5c0-0.153 0.079-0.283 0.1875-0.375l2.562-2.125-2.437-2.0312c-0.0467-0.0198-0.0868-0.0616-0.125-0.0938-0.1085-0.0917-0.1875-0.2218-0.1875-0.375v-0.5h0.5c0.1229 0 0.2254 0.0514 0.3125 0.125 0.0107 0.009 0.0214 0.0214 0.0312 0.0312l2.1558 1.7818v-4.438-0.5h0.5c0.208 0 0.394 0.1329 0.469 0.3125l2.875 2.8437 0.406 0.375-0.437 0.3438-2.563 2.125 1.532 1.25c0.546-0.748 1.417-1.25 2.406-1.25 0.285 0 0.552 0.049 0.812 0.125v-2.125c0-3.324-2.452-6-5.5-6zm0.5 3.6875v3.2505l1.782-1.4692-1.782-1.7813zm4.188 5.3125c-1.108 0-2 0.911-2 2.031v0.969h-1v1 2 1h1 4 1v-1-2-1h-1v-0.969c0-1.12-0.892-2.031-2-2.031zm-4.188 0.062v3.25l0.188-0.187v-0.125-1h1c0.003-0.297 0.072-0.572 0.156-0.844l-1.344-1.094zm4.188 0.938c0.554 0 1 0.442 1 1v1h-2v-1c0-0.558 0.446-1 1-1z" style="fill:#fff" transform="translate(257 -351)"/>
 </g>
</svg>
