<?xml version="1.0" encoding="UTF-8" standalone="no"?>
<svg id="svg7384" xmlns:rdf="http://www.w3.org/1999/02/22-rdf-syntax-ns#" style="enable-background:new" xmlns="http://www.w3.org/2000/svg" xmlns:osb="http://www.openswatchbook.org/uri/2009/osb" height="16" width="16" version="1.1" xmlns:cc="http://creativecommons.org/ns#" xmlns:dc="http://purl.org/dc/elements/1.1/">
 <metadata id="metadata90">
  <rdf:RDF>
   <cc:Work rdf:about="">
    <dc:format>image/svg+xml</dc:format>
    <dc:type rdf:resource="http://purl.org/dc/dcmitype/StillImage"/>
    <dc:title>Moka Symbolic Icon Theme</dc:title>
   </cc:Work>
  </rdf:RDF>
 </metadata>
 <title id="title8473">Moka Symbolic Icon Theme</title>
 <defs id="defs7386">
  <filter id="filter7554" style="color-interpolation-filters:sRGB">
   <feBlend id="feBlend7556" in2="BackgroundImage" mode="darken"/>
  </filter>
 </defs>
 <g id="layer9" transform="translate(-340 227)">
  <g id="g7261" transform="translate(-137 176)">
   <path id="rect5137-0" style="color:#bebebe;enable-background:accumulate;fill:#bebebe" transform="translate(241 -467)" d="m243 64c-2.0157 0-4 2.0259-4 4v2h1v-2c0-1.662 1.338-3 3-3h2c1.662 0 3 1.338 3 3v2h1v-2c0-1.9949-1.9635-4-4-4h-2z"/>
   <path id="rect7229" style="color:#000000;enable-background:accumulate;fill:#bebebe" transform="translate(241 -467)" d="m238 71v1 1 0.5 1.25 0.25 0.5 1.5 0.5 0.5 0.5c0 0.831 0.669 1.5 1.5 1.5h9c0.831 0 1.5-0.669 1.5-1.5v-0.5-0.5-0.5-1.5-0.5-0.25-1.25-0.5-1-1h-12zm1 1h10v1h-1.25v0.5h1.25v1.25 0.25h-1.25v0.5h1.25v1.5h-1.25v0.5h1.25v0.5 0.5c0 0.2943-0.2057 0.5-0.5 0.5h-9c-0.2943 0-0.5-0.2057-0.5-0.5v-0.5-0.5h1.25v-0.5h-1.25v-1.5h1.25v-0.5h-1.25v-0.25-1.25h1.25v-0.5h-1.25v-1zm4.75 1c-0.9695 0-1.75 0.7805-1.75 1.75 0 0.70227 0.40576 1.3146 1 1.5938v1.656h2v-1.6562c0.59424-0.27912 1-0.89148 1-1.5938 0-0.9695-0.7805-1.75-1.75-1.75h-0.5z"/>
  </g>
 </g>
</svg>
