<?xml version="1.0" encoding="UTF-8" standalone="no"?>
<svg id="svg7384" xmlns:rdf="http://www.w3.org/1999/02/22-rdf-syntax-ns#" style="enable-background:new" xmlns="http://www.w3.org/2000/svg" xmlns:osb="http://www.openswatchbook.org/uri/2009/osb" height="16" width="16" version="1.1" xmlns:cc="http://creativecommons.org/ns#" xmlns:dc="http://purl.org/dc/elements/1.1/">
 <metadata id="metadata90">
  <rdf:RDF>
   <cc:Work rdf:about="">
    <dc:format>image/svg+xml</dc:format>
    <dc:type rdf:resource="http://purl.org/dc/dcmitype/StillImage"/>
    <dc:title>Moka Symbolic Icon Theme</dc:title>
   </cc:Work>
  </rdf:RDF>
 </metadata>
 <title id="title8473">Moka Symbolic Icon Theme</title>
 <defs id="defs7386">
  <filter id="filter7554" style="color-interpolation-filters:sRGB">
   <feBlend id="feBlend7556" mode="darken" in2="BackgroundImage"/>
  </filter>
 </defs>
 <g id="layer9" transform="translate(-580 266)">
  <path id="rect9618-8" style="color:#000000;text-indent:0;block-progression:tb;text-decoration-line:none;enable-background:accumulate;text-transform:none;fill:#bebebe" d="m583-265c-1.0994 0-2 0.90065-2 2v10c0 1.0994 0.90065 2 2 2h10c1.0994 0 2-0.90065 2-2v-10c0-1.0994-0.90065-2-2-2h-10zm0 1h10c0.56265 0 1 0.43735 1 1v0.3125l-1.125 1.2188-5.5938 5.5938-2.8125-2.8438-1.4062 1.4375 2.8125 2.8125 1.4062 1.4062 1.4375-1.4062 5.0625-5.0312 0.21875-0.3125v6.8125c0 0.56265-0.43735 1-1 1h-10c-0.56265 0-1-0.43735-1-1v-10c0-0.56265 0.43735-1 1-1z"/>
 </g>
</svg>
