<?xml version="1.0" encoding="UTF-8" standalone="no"?>
<svg id="svg7384" xmlns:rdf="http://www.w3.org/1999/02/22-rdf-syntax-ns#" style="enable-background:new" xmlns="http://www.w3.org/2000/svg" xmlns:osb="http://www.openswatchbook.org/uri/2009/osb" height="16" width="16" version="1.1" xmlns:cc="http://creativecommons.org/ns#" xmlns:dc="http://purl.org/dc/elements/1.1/">
 <metadata id="metadata90">
  <rdf:RDF>
   <cc:Work rdf:about="">
    <dc:format>image/svg+xml</dc:format>
    <dc:type rdf:resource="http://purl.org/dc/dcmitype/StillImage"/>
    <dc:title>Moka Symbolic Icon Theme</dc:title>
   </cc:Work>
  </rdf:RDF>
 </metadata>
 <title id="title8473">Moka Symbolic Icon Theme</title>
 <defs id="defs7386">
  <filter id="filter7554" style="color-interpolation-filters:sRGB">
   <feBlend id="feBlend7556" mode="darken" in2="BackgroundImage"/>
  </filter>
 </defs>
 <g id="layer9" transform="translate(-321 288)">
  <path id="path35480" style="color:#000000;text-indent:0;block-progression:tb;text-decoration-line:none;enable-background:accumulate;text-transform:none;fill:#bebebe" d="m329.5-287c-1.3584 0-2.4635 1.0793-2.5 2.4062a0.50005 0.50005 0 0 0 0 0.0312c-0.00015 0.0112 0 0.02 0 0.0312 0 0.008-0.00008 0.0232 0 0.0312a0.50573 0.49443 0 0 0 0 0.125v5.2812a0.50005 0.50005 0 0 0 0 0.0312 0.50005 0.50005 0 0 0 0 0.0312 0.50005 0.50005 0 0 0 0 0.0312c-0.002 0.8225 0.6775 1.498 1.5 1.5 0.82158 0.00099 1.498-0.67819 1.5-1.5a0.50005 0.50005 0 0 0 0 -0.0625v-3.4372a0.50005 0.50005 0 0 0 -0.59375 -0.5 0.50005 0.50005 0 0 0 -0.40625 0.5v3.4688a0.50005 0.50005 0 0 0 0 0.0937c-0.0323 0.24849-0.2408 0.43817-0.5 0.4375-0.28207-0.00072-0.50073-0.21794-0.5-0.5a0.50005 0.50005 0 0 0 0 -0.0937v-5.25a0.50573 0.49443 0 0 0 0 -0.0625v-0.0937a0.50005 0.50005 0 0 0 0 -0.0625c0.018-0.8138 0.68359-1.4375 1.5-1.4375 0.80506 0 1.4647 0.60867 1.5 1.4062a0.50005 0.50005 0 0 0 0 0.0312c0.00025 0.0113 0 0.0199 0 0.0312a0.50573 0.49443 0 0 0 0 0.15625v6.375 0.3125a0.50005 0.50005 0 0 0 0 0.0937v0.0937c0 1.3866-1.1134 2.5-2.5 2.5-1.3546 0-2.4502-1.0644-2.5-2.4062-0.00078-0.0211 0.00026-0.0412 0-0.0625a0.50005 0.50005 0 0 0 0 -0.031c0-0.008-0.00008-0.0231 0-0.0312v-0.5-5.4688a0.50005 0.50005 0 0 0 -0.59375 -0.50005 0.50005 0.50005 0 0 0 -0.40625 0.5v5.4688 0.5 0.0312a0.50005 0.50005 0 0 0 0 0.125c0.00076 0.0215 0.0301 0.0411 0.0312 0.0625 0.0986 1.84 1.605 3.3125 3.4688 3.3125 1.9271 0 3.5-1.5729 3.5-3.5v-0.0937-0.0625a0.50005 0.50005 0 0 0 0 -0.0312v-0.31255-6.5a0.50573 0.49443 0 0 0 0 -0.0312 0.50005 0.50005 0 0 0 0 -0.0312c-0.0185-1.3424-1.1301-2.4376-2.5-2.4376z"/>
 </g>
</svg>
