<?xml version="1.0" encoding="UTF-8" standalone="no"?>
<svg id="svg7384" xmlns:rdf="http://www.w3.org/1999/02/22-rdf-syntax-ns#" style="enable-background:new" xmlns="http://www.w3.org/2000/svg" xmlns:osb="http://www.openswatchbook.org/uri/2009/osb" height="16" width="16" version="1.1" xmlns:cc="http://creativecommons.org/ns#" xmlns:dc="http://purl.org/dc/elements/1.1/">
 <metadata id="metadata90">
  <rdf:RDF>
   <cc:Work rdf:about="">
    <dc:format>image/svg+xml</dc:format>
    <dc:type rdf:resource="http://purl.org/dc/dcmitype/StillImage"/>
    <dc:title>Moka Symbolic Icon Theme</dc:title>
   </cc:Work>
  </rdf:RDF>
 </metadata>
 <title id="title8473">Moka Symbolic Icon Theme</title>
 <defs id="defs7386">
  <filter id="filter7554" style="color-interpolation-filters:sRGB">
   <feBlend id="feBlend7556" mode="darken" in2="BackgroundImage"/>
  </filter>
 </defs>
 <g id="layer9" transform="translate(-481 288)">
  <path id="path4544-6" style="color:#bebebe;text-indent:0;block-progression:tb;text-transform:none;fill:#bebebe" d="m482-285v0.9375 1.0625h4c0.5713 0 1 0.4287 1 1v4c0 1.6447 1.3553 3 3 3h5v-2h-5c-0.5713 0-1-0.4287-1-1v-4c0-1.6447-1.3553-3-3-3z"/>
  <path id="path4544-1-5" style="color:#bebebe;fill:#bebebe;text-transform:none;text-indent:0pt" d="m490-285c-0.22957 0-0.44085 0.0438-0.65625 0.0937 0.4813 0.5511 0.86125 1.1776 1.0312 1.9062h4.625v-2h-5zm-8 10h4c0.22957 0 0.44085-0.0438 0.65625-0.0937-0.4813-0.55115-0.86125-1.1777-1.0312-1.9063h-3.625z"/>
  <path id="path3003-08" style="fill:#bebebe" d="m493-287v6l4-3z"/>
  <path id="path3773" style="fill:#bebebe" d="m493-279v6l4-3z"/>
 </g>
</svg>
