<?xml version="1.0" encoding="UTF-8" standalone="no"?>
<svg id="svg7384" xmlns:rdf="http://www.w3.org/1999/02/22-rdf-syntax-ns#" style="enable-background:new" xmlns="http://www.w3.org/2000/svg" xmlns:osb="http://www.openswatchbook.org/uri/2009/osb" height="16" width="16" version="1.1" xmlns:cc="http://creativecommons.org/ns#" xmlns:dc="http://purl.org/dc/elements/1.1/">
 <metadata id="metadata90">
  <rdf:RDF>
   <cc:Work rdf:about="">
    <dc:format>image/svg+xml</dc:format>
    <dc:type rdf:resource="http://purl.org/dc/dcmitype/StillImage"/>
    <dc:title>Moka Symbolic Icon Theme</dc:title>
   </cc:Work>
  </rdf:RDF>
 </metadata>
 <title id="title8473">Moka Symbolic Icon Theme</title>
 <defs id="defs7386">
  <filter id="filter7554" style="color-interpolation-filters:sRGB">
   <feBlend id="feBlend7556" in2="BackgroundImage" mode="darken"/>
  </filter>
 </defs>
 <g id="layer9" transform="translate(-461 268)">
  <path id="path5086" style="color:#000000;text-indent:0;block-progression:tb;text-transform:none;fill:#bebebe" d="m465-265c-1.6447 0-3 1.3553-3 3v4c0 1.6447 1.3553 3 3 3h1 0.65625 1.625c-0.16854-0.47255-0.28125-0.96957-0.28125-1.5 0-0.17178 0.0438-0.33323 0.0625-0.5h-1.4062-0.65625-1c-0.5713 0-1-0.4287-1-1v-4c0-0.5713 0.4287-1 1-1h3v-2h-3zm7 0v0.5 1 0.5h1c0.5713 0 1 0.4287 1 1v1.2812c0.79448 0.28335 1.4829 0.76028 2 1.4062v-2.6875c0-1.6447-1.3553-3-3-3h-1z"/>
  <path id="path5088" style="fill:#bebebe" d="m471-264-4-3v6z"/>
  <path id="path5092" style="color:#bebebe;enable-background:accumulate;fill:#bebebe" d="m472.5-260c-1.933 0-3.5 1.567-3.5 3.5s1.567 3.5 3.5 3.5 3.5-1.567 3.5-3.5-1.567-3.5-3.5-3.5zm-0.5 1h1v5h-1v-3.5h-1v-0.5c1 0 1-1 1-1z"/>
 </g>
</svg>
