<?xml version="1.0" encoding="UTF-8" standalone="no"?>
<svg id="svg7384" xmlns:rdf="http://www.w3.org/1999/02/22-rdf-syntax-ns#" style="enable-background:new" xmlns="http://www.w3.org/2000/svg" xmlns:osb="http://www.openswatchbook.org/uri/2009/osb" height="16" width="16" version="1.1" xmlns:cc="http://creativecommons.org/ns#" xmlns:dc="http://purl.org/dc/elements/1.1/">
 <metadata id="metadata90">
  <rdf:RDF>
   <cc:Work rdf:about="">
    <dc:format>image/svg+xml</dc:format>
    <dc:type rdf:resource="http://purl.org/dc/dcmitype/StillImage"/>
    <dc:title>Moka Symbolic Icon Theme</dc:title>
   </cc:Work>
  </rdf:RDF>
 </metadata>
 <title id="title8473">Moka Symbolic Icon Theme</title>
 <defs id="defs7386">
  <filter id="filter7554" style="color-interpolation-filters:sRGB">
   <feBlend id="feBlend7556" mode="darken" in2="BackgroundImage"/>
  </filter>
 </defs>
 <g id="layer9" transform="translate(-421 288)">
  <g id="g6930" transform="translate(380 -565)">
   <g id="g6924">
    <g id="layer9-28" style="fill:#bebebe" transform="translate(.0002)">
     <path id="path3991-1" d="m180 219c-1.6447 0-3 1.3553-3 3v4c0 1.6447 1.3553 3 3 3h1 0.65625 3.3438 3c1.6447 0 3-1.3553 3-3v-4c0-1.6447-1.3553-3-3-3h-0.25-0.75v0.5 1 0.5h0.75 0.25c0.5713 0 1 0.4287 1 1v4c0 0.5713-0.4287 1-1 1h-3-3.3438-0.65625-1c-0.5713 0-1-0.4287-1-1v-4c0-0.5713 0.4287-1 1-1h3v-2h-3z" style="color:#000000;text-indent:0;block-progression:tb;text-transform:none;fill:#bebebe" transform="translate(-135 61)"/>
    </g>
    <path id="path3764" style="fill:#bebebe" d="m51 281-4-3v6z"/>
   </g>
  </g>
 </g>
</svg>
