<?xml version="1.0" encoding="UTF-8" standalone="no"?>
<svg
   xmlns:osb="http://www.openswatchbook.org/uri/2009/osb"
   xmlns:dc="http://purl.org/dc/elements/1.1/"
   xmlns:cc="http://creativecommons.org/ns#"
   xmlns:rdf="http://www.w3.org/1999/02/22-rdf-syntax-ns#"
   xmlns:svg="http://www.w3.org/2000/svg"
   xmlns="http://www.w3.org/2000/svg"
   height="16"
   id="svg7384"
   style="enable-background:new"
   version="1.1"
   width="16">
  <metadata
     id="metadata90">
    <rdf:RDF>
      <cc:Work
         rdf:about="">
        <dc:format>image/svg+xml</dc:format>
        <dc:type
           rdf:resource="http://purl.org/dc/dcmitype/StillImage" />
        <dc:title>Moka Symbolic Icon Theme</dc:title>
      </cc:Work>
    </rdf:RDF>
  </metadata>
  <title
     id="title8473">Moka Symbolic Icon Theme</title>
  <defs
     id="defs7386">
    <linearGradient
       id="linearGradient5606"
       osb:paint="solid">
      <stop
         id="stop5608"
         offset="0"
         style="stop-color:#000000;stop-opacity:1;" />
    </linearGradient>
    <filter
       id="filter7554"
       style="color-interpolation-filters:sRGB">
      <feBlend
         id="feBlend7556"
         in2="BackgroundImage"
         mode="darken" />
    </filter>
  </defs>
  <g
     id="layer9"
     style="display:inline"
     transform="translate(-341.00021,388.00336)">
    <path
       d="m 349.0002,-387.00336 c -1.662,0 -3,1.338 -3,3 l 0,2 0,3 c 0,0.56381 0.16913,1.0816 0.4375,1.53125 l 5.5625,-5.53125 0,-0.0312 0,-0.96875 c 0,-1.662 -1.338,-3 -3,-3 z m -5,5 0,2.90625 a 0.50030048,0.49979969 0 0 0 0,0.0937 c 0,1.11812 0.37403,2.13918 1,2.96875 l 0.6875,-0.6875 c -0.005,-0.007 0.005,-0.0243 0,-0.0312 -0.43059,-0.6384 -0.6875,-1.42028 -0.6875,-2.25005 a 0.50030048,0.49979969 0 0 0 0,-0.0312 l 0,-2.9688 -1,0 z m 9.09375,0 -0.0937,0.0937 0,2.71875 a 0.50030048,0.49979969 0 0 0 0,0.0937 l -5e-5,0.0939 c 0,2.21271 -1.78508,4 -4,4 -0.8209,0 -1.58493,-0.26583 -2.21875,-0.6875 l -0.0312,0 -0.65625,0.6875 c 0.5653,0.40706 1.19986,0.73047 1.90625,0.875 l 0,2.125 2,0 0,-2.125 c 2.27415,-0.4653 4,-2.46623 4,-4.875 a 0.50030048,0.49979969 0 0 0 0,-0.0312 l 0,-0.0625 a 0.50030048,0.49979969 0 0 0 0,-0.0937 l 0,-2.8125 -0.90625,0 z m -1.09375,1.09375 -4.5,4.5 c 0.4418,0.25553 0.9509,0.40625 1.5,0.40625 1.662,0 3,-1.338 3,-3 l 0,-1.90625 z"
       id="path6337"
       style="color:#bebebe;display:inline;overflow:visible;visibility:visible;fill:#bebebe;fill-opacity:1;fill-rule:nonzero;stroke:none;stroke-width:2;marker:none" />
    <path
       d="m 353.46894,-386.51902 -11,11 1.0625,1.0625 11,-11 -1.0625,-1.0625 z"
       id="path6365"
       style="color:#000000;font-style:normal;font-variant:normal;font-weight:normal;font-stretch:normal;font-size:medium;line-height:normal;font-family:Sans;-inkscape-font-specification:Sans;text-indent:0;text-align:start;text-decoration:none;text-decoration-line:none;letter-spacing:normal;word-spacing:normal;text-transform:none;direction:ltr;block-progression:tb;writing-mode:lr-tb;baseline-shift:baseline;text-anchor:start;display:inline;overflow:visible;visibility:visible;fill:#bebebe;fill-opacity:1;stroke:none;stroke-width:1.5;marker:none;enable-background:accumulate" />
  </g>
  <g
     id="layer10"
     style="display:inline;filter:url(#filter7554)"
     transform="translate(-341.00021,388.00336)" />
  <g
     id="layer1"
     style="display:inline"
     transform="translate(-100.00001,-228.99664)" />
  <g
     id="layer14"
     style="display:inline"
     transform="translate(-341.00021,388.00336)" />
  <g
     id="layer15"
     style="display:inline"
     transform="translate(-341.00021,388.00336)" />
  <g
     id="g71291"
     style="display:inline"
     transform="translate(-341.00021,388.00336)" />
  <g
     id="layer2"
     style="display:inline"
     transform="translate(-100.00001,-78.996641)" />
  <g
     id="g6058"
     style="display:inline"
     transform="translate(-100.00001,-78.996641)" />
  <g
     id="layer12"
     style="display:inline"
     transform="translate(-341.00021,388.00336)" />
</svg>
