<?xml version="1.0" encoding="UTF-8" standalone="no"?>
<svg id="svg7384" xmlns:rdf="http://www.w3.org/1999/02/22-rdf-syntax-ns#" style="enable-background:new" xmlns="http://www.w3.org/2000/svg" xmlns:osb="http://www.openswatchbook.org/uri/2009/osb" height="16" width="16" version="1.1" xmlns:cc="http://creativecommons.org/ns#" xmlns:dc="http://purl.org/dc/elements/1.1/">
 <metadata id="metadata90">
  <rdf:RDF>
   <cc:Work rdf:about="">
    <dc:format>image/svg+xml</dc:format>
    <dc:type rdf:resource="http://purl.org/dc/dcmitype/StillImage"/>
    <dc:title>Moka Symbolic Icon Theme</dc:title>
   </cc:Work>
  </rdf:RDF>
 </metadata>
 <title id="title8473">Moka Symbolic Icon Theme</title>
 <defs id="defs7386">
  <filter id="filter7554" style="color-interpolation-filters:sRGB">
   <feBlend id="feBlend7556" mode="darken" in2="BackgroundImage"/>
  </filter>
 </defs>
 <g id="layer9" transform="translate(-421 427)">
  <path id="rect12924" style="color:#000000;enable-background:accumulate;fill:#f57900" d="m424-426s-2 0-2 2v10s-0.00009 2 2 2h10s2 0 2-2v-10s-0.00009-1.8876-2-1.9062l-10-0.0937zm5.0312 3c1.7079 0 3.243 0.55602 4.7188 1.3125l-3.6562 4.0312c-0.31499-0.20793-0.69355-0.34375-1.0938-0.34375-0.38541 0-0.7549 0.11844-1.0625 0.3125l-3.6875-3.9688c1.492-0.77095 3.0518-1.3438 4.7812-1.3438zm-0.0312 6c0.55228 0 1 0.44772 1 1 0 0.55229-0.44772 1-1 1s-1-0.44771-1-1c0-0.55228 0.44772-1 1-1z"/>
 </g>
</svg>
