<?xml version="1.0" encoding="UTF-8" standalone="no"?>
<svg id="svg7384" xmlns:rdf="http://www.w3.org/1999/02/22-rdf-syntax-ns#" style="enable-background:new" xmlns="http://www.w3.org/2000/svg" xmlns:osb="http://www.openswatchbook.org/uri/2009/osb" height="16" width="16" version="1.1" xmlns:cc="http://creativecommons.org/ns#" xmlns:dc="http://purl.org/dc/elements/1.1/">
 <metadata id="metadata90">
  <rdf:RDF>
   <cc:Work rdf:about="">
    <dc:format>image/svg+xml</dc:format>
    <dc:type rdf:resource="http://purl.org/dc/dcmitype/StillImage"/>
    <dc:title>Moka Symbolic Icon Theme</dc:title>
   </cc:Work>
  </rdf:RDF>
 </metadata>
 <title id="title8473">Moka Symbolic Icon Theme</title>
 <defs id="defs7386">
  <filter id="filter7554" style="color-interpolation-filters:sRGB">
   <feBlend id="feBlend7556" mode="darken" in2="BackgroundImage"/>
  </filter>
 </defs>
 <g id="layer9" transform="translate(-461 408)">
  <path id="path5983-7" style="opacity:.35;fill:#bebebe" d="m471-407.53v1.0312 1.5h-2.5-0.5v1h0.5 3 0.5v-0.5-0.96875l3.4062 2.9687-1.6562 1.5626c0.1496 0.28061 0.25 0.5961 0.25 0.9375 0.0428 0 0.0826-0.002 0.125 0l2.8749-2.5001 0.00008 0.00007-5.1875-4.375zm-4 4-0.8125 0.65625-5.1875 4.375 5.1875 4.375 0.8125 0.65625v-1.0312-1.5h2.5 0.5v-1h-0.5-3-0.5v0.5 0.96875l-3.4062-2.9688 1.4062-1.375c-0.003-0.0417 0-0.0826 0-0.125 0-1.108 0.892-2 2-2h1v-0.5zm7 4.5312c-0.0961 0-0.18881 0.018-0.28125 0.0312-0.29767 0.49886-0.80781 0.84404-1.4062 0.9375-0.19227 0.31227-0.3125 0.66733-0.3125 1.0625v0.96875h-1v1 2 1h1 4 1v-1-2-1h-1v-0.96875c0-1.1199-0.892-2.0312-2-2.0312zm-3 1v0.53125l0.0625-0.0312c0.0318-0.17525 0.0647-0.3358 0.125-0.5h-0.1875zm3 0c0.554 0 1 0.4424 1 1v1h-2v-1c0-0.5576 0.446-1 1-1z"/>
  <path id="path6015-5" style="fill:#bebebe" d="m466-401c-0.55228 0-1 0.44772-1 1s0.44772 1 1 1 1-0.44772 1-1-0.44772-1-1-1zm3 0c-0.55228 0-1 0.44772-1 1s0.44772 1 1 1 1-0.44772 1-1-0.44772-1-1-1zm3 0c-0.55228 0-1 0.44772-1 1s0.44772 1 1 1 1-0.44772 1-1-0.44772-1-1-1z"/>
 </g>
</svg>
