<?xml version="1.0" encoding="UTF-8" standalone="no"?>
<svg id="svg7384" xmlns:rdf="http://www.w3.org/1999/02/22-rdf-syntax-ns#" style="enable-background:new" xmlns="http://www.w3.org/2000/svg" xmlns:osb="http://www.openswatchbook.org/uri/2009/osb" height="16" width="16" version="1.1" xmlns:cc="http://creativecommons.org/ns#" xmlns:dc="http://purl.org/dc/elements/1.1/">
 <metadata id="metadata90">
  <rdf:RDF>
   <cc:Work rdf:about="">
    <dc:format>image/svg+xml</dc:format>
    <dc:type rdf:resource="http://purl.org/dc/dcmitype/StillImage"/>
    <dc:title>Moka Symbolic Icon Theme</dc:title>
   </cc:Work>
  </rdf:RDF>
 </metadata>
 <title id="title8473">Moka Symbolic Icon Theme</title>
 <defs id="defs7386">
  <filter id="filter7554" style="color-interpolation-filters:sRGB">
   <feBlend id="feBlend7556" mode="darken" in2="BackgroundImage"/>
  </filter>
 </defs>
 <g id="layer9" transform="translate(-481 428)">
  <path id="path3766-7" style="color:#000000;opacity:.35;fill:#bebebe" d="m491-427.53v1.0312 1.5h-2.5-0.5v1h0.5 3 0.5v-0.5-0.96875l3.4063 2.9688-1.6563 1.5625c0.1496 0.28061 0.25 0.5961 0.25 0.9375 0 0.0424 0.003 0.0833 0 0.125l3-2.625-5.1875-4.375zm0 9.5312v0.53125l0.65625-0.53125z"/>
  <path id="path3783-95" style="color:#000000;opacity:.35;fill:#bebebe" d="m487-423.53-0.8125 0.65625-5.1875 4.375 5.1875 4.375 0.8125 0.65625v-1.0312-1.5h2.5 0.5v-1h-0.5-3-0.5v0.5 0.96875l-3.4062-2.9688 1.4062-1.375c-0.003-0.0417 0-0.0826 0-0.125 0-1.108 0.892-2 2-2h1v-0.5z"/>
  <path id="path5858-0" style="fill:#bebebe" d="m486-421c-0.55228 0-1 0.44772-1 1s0.44772 1 1 1 1-0.44772 1-1-0.44772-1-1-1zm3 0c-0.55228 0-1 0.44772-1 1s0.44772 1 1 1 1-0.44772 1-1-0.44772-1-1-1zm3 0c-0.55228 0-1 0.44772-1 1s0.44772 1 1 1 1-0.44772 1-1-0.44772-1-1-1z"/>
 </g>
</svg>
