<?xml version="1.0" encoding="UTF-8" standalone="no"?>
<svg id="svg7384" xmlns:rdf="http://www.w3.org/1999/02/22-rdf-syntax-ns#" style="enable-background:new" xmlns="http://www.w3.org/2000/svg" xmlns:osb="http://www.openswatchbook.org/uri/2009/osb" height="16" width="16" version="1.1" xmlns:cc="http://creativecommons.org/ns#" xmlns:dc="http://purl.org/dc/elements/1.1/">
 <metadata id="metadata90">
  <rdf:RDF>
   <cc:Work rdf:about="">
    <dc:format>image/svg+xml</dc:format>
    <dc:type rdf:resource="http://purl.org/dc/dcmitype/StillImage"/>
    <dc:title>Moka Symbolic Icon Theme</dc:title>
   </cc:Work>
  </rdf:RDF>
 </metadata>
 <title id="title8473">Moka Symbolic Icon Theme</title>
 <defs id="defs7386">
  <filter id="filter7554" style="color-interpolation-filters:sRGB">
   <feBlend id="feBlend7556" mode="darken" in2="BackgroundImage"/>
  </filter>
 </defs>
 <g id="layer9" transform="translate(-301 348)">
  <g id="layer9-23" style="fill:#bebebe" transform="translate(220 -585)">
   <path id="path1244" style="color:#bebebe;fill:#bebebe" d="m81 240.06-0.0005 9.9375c-0.000101 2 2 2 2 2h12c2 0 2-2 2-2v-10s0.000012-2-2-2h-12s-1.9994 0.00043-1.9995 2.0625zm2-0.06h4c0.66639 0.0162 1.1672 0.83815 0.8755 1.4375l-1.375 2.7812c0.35458 0.11552 0.74913 0.19557 0.96875 0.4375 0.33238 0.36614 0.53125 0.8102 0.53125 1.3438v2c0 1.1124-0.90732 2-2 2h-3l-0.0005-2h3v-2h-0.9995c-0.66639-0.0162-1.1667-0.83815-0.875-1.4375l1.25-2.5625h-2.375zm10 0c2 0 2 2 2 2v1h-2v-1h-2v6h2v-2h-1l0.0008-1.9688 1.999-0.03 1.0008 0.0312v1 2.9375s-0.001 2.03-2.001 2.03l-1.9992-0.00005s-2.001 0-2.001-2v-6c0-2 2-2 2-2z"/>
  </g>
 </g>
</svg>
