<?xml version="1.0" encoding="UTF-8" standalone="no"?>
<svg id="svg7384" xmlns:rdf="http://www.w3.org/1999/02/22-rdf-syntax-ns#" style="enable-background:new" xmlns="http://www.w3.org/2000/svg" xmlns:osb="http://www.openswatchbook.org/uri/2009/osb" height="16" width="16" version="1.1" xmlns:cc="http://creativecommons.org/ns#" xmlns:dc="http://purl.org/dc/elements/1.1/">
 <metadata id="metadata90">
  <rdf:RDF>
   <cc:Work rdf:about="">
    <dc:format>image/svg+xml</dc:format>
    <dc:type rdf:resource="http://purl.org/dc/dcmitype/StillImage"/>
    <dc:title>Moka Symbolic Icon Theme</dc:title>
   </cc:Work>
  </rdf:RDF>
 </metadata>
 <title id="title8473">Moka Symbolic Icon Theme</title>
 <defs id="defs7386">
  <filter id="filter7554" style="color-interpolation-filters:sRGB">
   <feBlend id="feBlend7556" mode="darken" in2="BackgroundImage"/>
  </filter>
 </defs>
 <g id="layer9" transform="translate(-501 408)">
  <path id="path3766" style="color:#000000;opacity:.35;fill:#bebebe" d="m511-407.53v1.0312 1.5h-2.5-0.5v1h0.5 3 0.5v-0.5-0.96875l3.5641 2.9688-0.56407 0.5625v1.25l2-1.8125-0.00002-0.00001-5.1875-4.375zm-2 6.5312v1h2v-1z"/>
  <path id="path3783" style="color:#000000;opacity:.35;fill:#bebebe" d="m507-403.53-0.8125 0.65625-5.1875 4.375 5.1875 4.375 0.8125 0.65625v-1.0312-1.5h2.5 0.5v-1h-0.5-3-0.5v0.5 0.96875l-3.4062-2.9688 3.4062-2.9688v0.96875 0.5h0.5 2.5v-1h-2v-1.5z"/>
  <path id="path6053-9" style="color:#444444;fill:#ef2929" d="m512-402-0.00001 4 0.25 2h1.5l0.25-2 0.00001-4zm0 7v2h2v-2z"/>
 </g>
</svg>
