<?xml version="1.0" encoding="UTF-8" standalone="no"?>
<svg id="svg7384" xmlns:rdf="http://www.w3.org/1999/02/22-rdf-syntax-ns#" style="enable-background:new" xmlns="http://www.w3.org/2000/svg" xmlns:osb="http://www.openswatchbook.org/uri/2009/osb" height="16" width="16" version="1.1" xmlns:cc="http://creativecommons.org/ns#" xmlns:dc="http://purl.org/dc/elements/1.1/">
 <metadata id="metadata90">
  <rdf:RDF>
   <cc:Work rdf:about="">
    <dc:format>image/svg+xml</dc:format>
    <dc:type rdf:resource="http://purl.org/dc/dcmitype/StillImage"/>
    <dc:title>Moka Symbolic Icon Theme</dc:title>
   </cc:Work>
  </rdf:RDF>
 </metadata>
 <title id="title8473">Moka Symbolic Icon Theme</title>
 <defs id="defs7386">
  <filter id="filter7554" style="color-interpolation-filters:sRGB">
   <feBlend id="feBlend7556" mode="darken" in2="BackgroundImage"/>
  </filter>
 </defs>
 <g id="layer9" transform="translate(-261 348)">
  <g id="layer9-8" style="fill:#bebebe" transform="translate(200 -585)">
   <path id="rect7011" d="m2.9998 0.99998s-2 0-2 2.0625v9.9375c0 2 2 2 2 2h10c2 0 2-2 2-2v-10s0-2-2-2zm3.0002 2h4c2 0 2.0522 2.3514 2 2v1h-2v-1h-4v6h4v-1h-2v-1-1h4v1.0312 1.9688s0 2-2 2h-4s-2 0-2-2v-6c0-2 2-2 2-2z" style="color:#bebebe;fill:#bebebe" transform="translate(61,237)"/>
  </g>
 </g>
</svg>
