<?xml version="1.0" encoding="UTF-8" standalone="no"?>
<svg id="svg7384" xmlns:rdf="http://www.w3.org/1999/02/22-rdf-syntax-ns#" style="enable-background:new" xmlns="http://www.w3.org/2000/svg" xmlns:osb="http://www.openswatchbook.org/uri/2009/osb" height="16" width="16.028" version="1.1" xmlns:cc="http://creativecommons.org/ns#" xmlns:dc="http://purl.org/dc/elements/1.1/">
 <metadata id="metadata90">
  <rdf:RDF>
   <cc:Work rdf:about="">
    <dc:format>image/svg+xml</dc:format>
    <dc:type rdf:resource="http://purl.org/dc/dcmitype/StillImage"/>
    <dc:title>Moka Symbolic Icon Theme</dc:title>
   </cc:Work>
  </rdf:RDF>
 </metadata>
 <title id="title8473">Moka Symbolic Icon Theme</title>
 <defs id="defs7386">
  <filter id="filter7554" style="color-interpolation-filters:sRGB">
   <feBlend id="feBlend7556" mode="darken" in2="BackgroundImage"/>
  </filter>
 </defs>
 <g id="layer9" transform="translate(-360.97 412)">
  <path id="path5739" style="color:#000000;enable-background:accumulate;fill:#bebebe" d="m369-410c1.0043 0 1.8929 0.5137 2.4375 1.2812 1.4126 0.346 2.7144 0.98617 3.9375 1.75l-2.375 2.5938v1.375 0.0937l3.9688-4.375c-2.2566-1.6533-4.9577-2.7188-7.9688-2.7188zc-3.0344 0-5.7659 1.0782-8.0312 2.75l4.0312 4.4062v-0.15625-1.3125l-2.4375-2.6875c1.2492-0.77456 2.5888-1.3845 4.0312-1.7188 0.54558-0.75916 1.4087-1.2812 2.4062-1.2812zm0 1c-1.108 0-2 0.91081-2 2.0312v0.96875h-1v1 2 1h1 4 1v-1-2-1h-1v-0.96875c0-1.12-0.892-2.0312-2-2.0312zm0 1c0.554 0 1 0.44236 1 1v1h-2v-1c0-0.55764 0.446-1 1-1zm-2.2812 7 2.2812 2.5 2.2812-2.5h-0.28125-1.125l-0.9375 1.0312-0.9375-1.0312h-1-0.28125z"/>
 </g>
</svg>
