<?xml version="1.0" encoding="UTF-8" standalone="no"?>
<svg id="svg7384" xmlns:rdf="http://www.w3.org/1999/02/22-rdf-syntax-ns#" style="enable-background:new" xmlns="http://www.w3.org/2000/svg" xmlns:osb="http://www.openswatchbook.org/uri/2009/osb" height="16" width="16" version="1.1" xmlns:cc="http://creativecommons.org/ns#" xmlns:dc="http://purl.org/dc/elements/1.1/">
 <metadata id="metadata90">
  <rdf:RDF>
   <cc:Work rdf:about="">
    <dc:format>image/svg+xml</dc:format>
    <dc:type rdf:resource="http://purl.org/dc/dcmitype/StillImage"/>
    <dc:title>Moka Symbolic Icon Theme</dc:title>
   </cc:Work>
  </rdf:RDF>
 </metadata>
 <title id="title8473">Moka Symbolic Icon Theme</title>
 <defs id="defs7386">
  <filter id="filter7554" style="color-interpolation-filters:sRGB">
   <feBlend id="feBlend7556" mode="darken" in2="BackgroundImage"/>
  </filter>
 </defs>
 <g id="layer9" transform="translate(-441 408)">
  <path id="path5983-3" style="fill:#bebebe" d="m451-407.53v1.0312 1.5h-2.5-0.5v1h0.5 3 0.5v-0.5-0.96875l3.4063 2.9687-3.4063 2.9688v-0.96875-0.5h-0.5-2.5-2v-1.5-1.0312l-0.8125 0.65625-5.1875 4.375 5.1875 4.375 0.8125 0.65625v-1.0312-1.5h2.5 0.5v-1h-0.5-3-0.5v0.5 0.96875l-3.4062-2.9688 3.4062-2.9688v0.96875 0.5h0.5 2.5 2v1.5 1.0312l0.0625-0.0312c0.25416-1.402 1.4655-2.5 2.9375-2.5 0.0428 0 0.0826-0.002 0.125 0l2.875-2.5001 0.00002 0.00001-5.1875-4.375-0.8125-0.65625zm3 8.5312c-1.108 0-2 0.91085-2 2.0312v0.96875h-1v1 2 1h1 4 1v-1-2-1h-1v-0.96875c0-1.1199-0.892-2.0312-2-2.0312zm0 1c0.554 0 1 0.4424 1 1v1h-2v-1c0-0.5576 0.446-1 1-1z"/>
 </g>
</svg>
