<?xml version="1.0" encoding="UTF-8" standalone="no"?>
<svg id="svg7384" xmlns:rdf="http://www.w3.org/1999/02/22-rdf-syntax-ns#" style="enable-background:new" xmlns="http://www.w3.org/2000/svg" xmlns:osb="http://www.openswatchbook.org/uri/2009/osb" height="16" width="16" version="1.1" xmlns:cc="http://creativecommons.org/ns#" xmlns:dc="http://purl.org/dc/elements/1.1/">
 <metadata id="metadata90">
  <rdf:RDF>
   <cc:Work rdf:about="">
    <dc:format>image/svg+xml</dc:format>
    <dc:type rdf:resource="http://purl.org/dc/dcmitype/StillImage"/>
    <dc:title>Moka Symbolic Icon Theme</dc:title>
   </cc:Work>
  </rdf:RDF>
 </metadata>
 <title id="title8473">Moka Symbolic Icon Theme</title>
 <defs id="defs7386">
  <filter id="filter7554" style="color-interpolation-filters:sRGB">
   <feBlend id="feBlend7556" in2="BackgroundImage" mode="darken"/>
  </filter>
 </defs>
 <g id="layer9" transform="translate(-340 328)">
  <path id="rect7124" style="opacity:.35;color:#bebebe;enable-background:accumulate;fill:#bebebe" d="m350.5-325c-0.277 0-0.5 0.223-0.5 0.5v6.5h1 1v-6.5c0-0.277-0.223-0.5-0.5-0.5z"/>
  <rect id="rect7126" style="opacity:.35;color:#bebebe;enable-background:accumulate;fill:#bebebe" ry=".5" height="9" width="2" y="-322" x="347"/>
  <rect id="rect7128" style="opacity:.35;color:#bebebe;enable-background:accumulate;fill:#bebebe" ry=".5" height="6" width="2" y="-319" x="344"/>
  <rect id="rect7130" style="opacity:.35;color:#bebebe;enable-background:accumulate;fill:#bebebe" ry=".5" height="3" width="2" y="-316" x="341"/>
  <path id="rect7132" style="opacity:.35;color:#bebebe;enable-background:accumulate;fill:#bebebe" d="m353.5-328c-0.277 0-0.5 0.223-0.5 0.5v9.5h2v-9.5c0-0.277-0.223-0.5-0.5-0.5h-1z"/>
  <path id="path2987-7-9-8-5-1" style="enable-background:new;fill:#bebebe" d="m351-317v1c0 0.27614 0.10029 0.53779 0.28125 0.71875l0.78125 0.78125-0.78125 0.78125c-0.18096 0.18096-0.28125 0.44261-0.28125 0.71875v1h1c0.27614 0 0.53779-0.10029 0.71875-0.28125l0.78125-0.78125 0.78125 0.78125c0.18096 0.18096 0.44261 0.28125 0.71875 0.28125h1v-1c0-0.27614-0.10029-0.53779-0.28125-0.71875l-0.78125-0.78125 0.78125-0.78125c0.18096-0.18096 0.28125-0.44261 0.28125-0.71875v-1h-1c-0.27614 0-0.53779 0.10029-0.71875 0.28125l-0.78125 0.78125-0.78125-0.78125c-0.18096-0.18096-0.44261-0.28125-0.71875-0.28125h-1z"/>
 </g>
</svg>
