<?xml version="1.0" encoding="UTF-8" standalone="no"?>
<svg id="svg7384" xmlns:rdf="http://www.w3.org/1999/02/22-rdf-syntax-ns#" style="enable-background:new" xmlns="http://www.w3.org/2000/svg" xmlns:osb="http://www.openswatchbook.org/uri/2009/osb" height="16" width="16" version="1.1" xmlns:cc="http://creativecommons.org/ns#" xmlns:dc="http://purl.org/dc/elements/1.1/">
 <metadata id="metadata90">
  <rdf:RDF>
   <cc:Work rdf:about="">
    <dc:format>image/svg+xml</dc:format>
    <dc:type rdf:resource="http://purl.org/dc/dcmitype/StillImage"/>
    <dc:title>Moka Symbolic Icon Theme</dc:title>
   </cc:Work>
  </rdf:RDF>
 </metadata>
 <title id="title8473">Moka Symbolic Icon Theme</title>
 <defs id="defs7386">
  <filter id="filter7554" style="color-interpolation-filters:sRGB">
   <feBlend id="feBlend7556" mode="darken" in2="BackgroundImage"/>
  </filter>
 </defs>
 <g id="layer9" transform="translate(-461 328)">
  <path id="path5169" style="color:#000000;enable-background:accumulate;fill:#bebebe" d="m464-327v6h-1c-1 0-1 1-1 1v5h2v2h7v-1h-6v-1h6v-6h-6v-5h8v4h1v-5h-10zm11 6v6h1v-5s0.108-1-1-1zm-11 2h1v1h-1v-1z"/>
  <path id="path5140" class="warning" style="color:#bebebe;enable-background:accumulate;fill:#f57900" d="m472-321 0.00001 4 0.25 2h1.5l0.25-2-0.00001-4zm0 7v2h2v-2z"/>
 </g>
</svg>
