<?xml version="1.0" encoding="UTF-8" standalone="no"?>
<svg id="svg7384" xmlns:rdf="http://www.w3.org/1999/02/22-rdf-syntax-ns#" style="enable-background:new" xmlns="http://www.w3.org/2000/svg" xmlns:osb="http://www.openswatchbook.org/uri/2009/osb" height="16" width="16" version="1.1" xmlns:cc="http://creativecommons.org/ns#" xmlns:dc="http://purl.org/dc/elements/1.1/">
 <metadata id="metadata90">
  <rdf:RDF>
   <cc:Work rdf:about="">
    <dc:format>image/svg+xml</dc:format>
    <dc:type rdf:resource="http://purl.org/dc/dcmitype/StillImage"/>
    <dc:title>Moka Symbolic Icon Theme</dc:title>
   </cc:Work>
  </rdf:RDF>
 </metadata>
 <title id="title8473">Moka Symbolic Icon Theme</title>
 <defs id="defs7386">
  <filter id="filter7554" style="color-interpolation-filters:sRGB">
   <feBlend id="feBlend7556" mode="darken" in2="BackgroundImage"/>
  </filter>
 </defs>
 <g id="layer9" transform="translate(-560 266)">
  <path id="path9555" style="color:#bebebe;text-indent:0pt;text-decoration-line:none;text-transform:none;fill:#bebebe" d="m568-261c-1.6556 0-3 1.3444-3 3s1.3444 3 3 3 3-1.3444 3-3-1.3444-3-3-3z"/>
  <path id="path9557" style="color:#bebebe;text-indent:0pt;block-progression:tb;text-decoration-line:none;enable-background:accumulate;text-transform:none;fill:#bebebe" d="m568-265c-3.8577 0-7 3.1423-7 7s3.1423 7 7 7 7-3.1423 7-7-3.1423-7-7-7zm0 1c3.3163 0 6 2.6837 6 6s-2.6837 6-6 6-6-2.6837-6-6 2.6837-6 6-6z"/>
 </g>
</svg>
