<?xml version="1.0" encoding="UTF-8" standalone="no"?>
<svg id="svg7384" xmlns:rdf="http://www.w3.org/1999/02/22-rdf-syntax-ns#" style="enable-background:new" xmlns="http://www.w3.org/2000/svg" xmlns:osb="http://www.openswatchbook.org/uri/2009/osb" height="16" width="16" version="1.1" xmlns:cc="http://creativecommons.org/ns#" xmlns:dc="http://purl.org/dc/elements/1.1/">
 <metadata id="metadata90">
  <rdf:RDF>
   <cc:Work rdf:about="">
    <dc:format>image/svg+xml</dc:format>
    <dc:type rdf:resource="http://purl.org/dc/dcmitype/StillImage"/>
    <dc:title>Moka Symbolic Icon Theme</dc:title>
   </cc:Work>
  </rdf:RDF>
 </metadata>
 <title id="title8473">Moka Symbolic Icon Theme</title>
 <defs id="defs7386">
  <filter id="filter7554" style="color-interpolation-filters:sRGB">
   <feBlend id="feBlend7556" mode="darken" in2="BackgroundImage"/>
  </filter>
 </defs>
 <g id="layer9" transform="translate(-460 248)">
  <path id="path5215" style="fill:#bebebe" d="m473-239c-1.108 0-2 0.91085-2 2.0312v0.96875h-1v1 2 1h1 4 1v-1-2-1h-1v-0.96875c0-1.1199-0.892-2.0312-2-2.0312zm0 1c0.554 0 1 0.4424 1 1v1h-2v-1c0-0.5576 0.446-1 1-1z"/>
  <path id="path5261" style="color:#bebebe;enable-background:accumulate;fill:#bebebe" d="m468-247c-3.866 0-7 3.134-7 7s3.134 7 7 7c0.33536 0 0.67757-0.0168 1-0.0625v-2.0625c-0.32378 0.068-0.65495 0.125-1 0.125-2.7614 0-5-2.2386-5-5s2.2386-5 5-5c1.6386 0 3.0664 0.80776 3.9688 2.0312l-1.9688 1.9688h5v-5l-1.5938 1.5938c-1.2815-1.5727-3.2158-2.5938-5.4062-2.5938z"/>
 </g>
</svg>
