<?xml version="1.0" encoding="UTF-8" standalone="no"?>
<svg id="svg7384" xmlns:rdf="http://www.w3.org/1999/02/22-rdf-syntax-ns#" style="enable-background:new" xmlns="http://www.w3.org/2000/svg" xmlns:osb="http://www.openswatchbook.org/uri/2009/osb" height="16" width="16" version="1.1" xmlns:cc="http://creativecommons.org/ns#" xmlns:dc="http://purl.org/dc/elements/1.1/">
 <metadata id="metadata90">
  <rdf:RDF>
   <cc:Work rdf:about="">
    <dc:format>image/svg+xml</dc:format>
    <dc:type rdf:resource="http://purl.org/dc/dcmitype/StillImage"/>
    <dc:title>Moka Symbolic Icon Theme</dc:title>
   </cc:Work>
  </rdf:RDF>
 </metadata>
 <title id="title8473">Moka Symbolic Icon Theme</title>
 <defs id="defs7386">
  <filter id="filter7554" style="color-interpolation-filters:sRGB">
   <feBlend id="feBlend7556" mode="darken" in2="BackgroundImage"/>
  </filter>
 </defs>
 <g id="layer9" transform="translate(-539 368.01)">
  <path id="path7299" style="color:#bebebe;text-indent:0;block-progression:tb;text-decoration-line:none;enable-background:accumulate;text-transform:none;fill:#bebebe" d="m541-367.01v1 7c0 2.0716 1.5749 3.5218 2.9375 4.4688 1.3626 0.94693 2.6875 1.4688 2.6875 1.4688l0.375 0.125 0.375-0.125s1.3293-0.54445 2.6875-1.5 2.9375-2.3932 2.9375-4.4375v-7-1h-1-5.25-4.75-1zm1 1h4.75 5.25v7c0 2.964-5 5-5 5s-5-1.9493-5-5v-7z"/>
  <path id="path7301" style="color:#bebebe;text-indent:0;block-progression:tb;text-decoration-line:none;enable-background:accumulate;text-transform:none;fill:#bebebe" d="m543-365.01v6c0 0.97901 0.92512 2.0221 2.0625 2.8125 0.94964 0.65993 1.6458 0.90854 1.9375 1.0312 0.29177-0.12746 0.98307-0.39096 1.9375-1.0625 1.1419-0.80345 2.0625-1.8616 2.0625-2.7812v-6h-4.25-3.75z"/>
 </g>
</svg>
