<?xml version="1.0" encoding="UTF-8" standalone="no"?>
<svg id="svg7384" xmlns:rdf="http://www.w3.org/1999/02/22-rdf-syntax-ns#" style="enable-background:new" xmlns="http://www.w3.org/2000/svg" xmlns:osb="http://www.openswatchbook.org/uri/2009/osb" height="16" width="16.969" version="1.1" xmlns:cc="http://creativecommons.org/ns#" xmlns:dc="http://purl.org/dc/elements/1.1/">
 <metadata id="metadata90">
  <rdf:RDF>
   <cc:Work rdf:about="">
    <dc:format>image/svg+xml</dc:format>
    <dc:type rdf:resource="http://purl.org/dc/dcmitype/StillImage"/>
    <dc:title>Moka Symbolic Icon Theme</dc:title>
   </cc:Work>
  </rdf:RDF>
 </metadata>
 <title id="title8473">Moka Symbolic Icon Theme</title>
 <defs id="defs7386">
  <filter id="filter7554" style="color-interpolation-filters:sRGB">
   <feBlend id="feBlend7556" mode="darken" in2="BackgroundImage"/>
  </filter>
 </defs>
 <g id="layer9" transform="translate(-400.03 208)">
  <path id="path5658" style="fill:#bebebe" d="m411-197v1c0 0.27614 0.10029 0.53779 0.28125 0.71875l0.78125 0.78125-0.78125 0.78125c-0.18096 0.18096-0.28125 0.44261-0.28125 0.71875v1h1c0.27614 0 0.53779-0.10029 0.71875-0.28125l0.78125-0.78125 0.78125 0.78125c0.18096 0.18096 0.44261 0.28125 0.71875 0.28125h1v-1c0-0.27614-0.10029-0.53779-0.28125-0.71875l-0.78125-0.78125 0.78125-0.78125c0.18096-0.18096 0.28125-0.44261 0.28125-0.71875v-1h-1c-0.27614 0-0.53779 0.10029-0.71875 0.28125l-0.78125 0.78125-0.78125-0.78125c-0.18096-0.18096-0.44261-0.28125-0.71875-0.28125z"/>
  <path id="path6055" style="color:#000000;enable-background:accumulate;fill:#bebebe" d="m408-208c-1.1046 0-2 0.89543-2 2h-4v10 3h1.6562 6.3438v-1h-5-1-1v-10-0.5-0.5h3v1s-1 0-1 1h1 4 1c0-0.75-0.5625-0.95312-0.84375-1h-0.15625v-1h2 1v2 5h1v-8h-4c0-0.13807-0.005-0.27605-0.0312-0.40625-0.19-0.91-1-1.59-1.97-1.59zm0 1c0.41421 0 0.75444 0.26608 0.90625 0.625 0.0506 0.11964 0.0937 0.23693 0.0937 0.375 0 0.55228-0.44771 1-1 1s-1-0.44772-1-1 0.44771-1 1-1z"/>
 </g>
</svg>
