<?xml version="1.0" encoding="UTF-8" standalone="no"?>
<svg id="svg7384" xmlns:rdf="http://www.w3.org/1999/02/22-rdf-syntax-ns#" style="enable-background:new" xmlns="http://www.w3.org/2000/svg" xmlns:osb="http://www.openswatchbook.org/uri/2009/osb" height="16.031" width="16" version="1.1" xmlns:cc="http://creativecommons.org/ns#" xmlns:dc="http://purl.org/dc/elements/1.1/">
 <metadata id="metadata90">
  <rdf:RDF>
   <cc:Work rdf:about="">
    <dc:format>image/svg+xml</dc:format>
    <dc:type rdf:resource="http://purl.org/dc/dcmitype/StillImage"/>
    <dc:title>Moka Symbolic Icon Theme</dc:title>
   </cc:Work>
  </rdf:RDF>
 </metadata>
 <title id="title8473">Moka Symbolic Icon Theme</title>
 <defs id="defs7386">
  <filter id="filter7554" style="color-interpolation-filters:sRGB">
   <feBlend id="feBlend7556" mode="darken" in2="BackgroundImage"/>
  </filter>
 </defs>
 <g id="layer9" transform="translate(-501 308.03)">
  <path id="path6093-9" style="color:#000000;text-indent:0;block-progression:tb;text-decoration-line:none;enable-background:accumulate;text-transform:none;fill:#bebebe" d="m507.5-308.03c-1.9271 0-3.5 1.5729-3.5 3.5 0 0.17852 0.0365 0.35978 0.0625 0.53125-1.7244 0.21437-3.0625 1.6881-3.0625 3.4688 0 1.8014 1.3716 3.2819 3.125 3.4688l1.3125-1.3125 0.34375-0.34375 0.71875-0.6875 0.71875 0.6875 0.34375 0.34375 0.6875 0.6875c0.18435-0.48507 0.43171-0.93171 0.78125-1.2812l1.4062-1.4062 0.34375-0.34375 0.71875-0.6875 0.71875 0.6875 0.34375 0.34375 1.4062 1.4062c0.46181 0.46181 0.82303 1.0628 0.96875 1.75 1.1858-0.40094 2.0625-1.4952 2.0625-2.8125 0-1.6509-1.3491-3-3-3-0.17414 0-0.33381 0.0337-0.5 0.0625-0.10013-1.1461-1.0792-2.0625-2.25-2.0625-0.0997 0-0.18491 0.0186-0.28125 0.0312-0.22776-1.7098-1.6985-3.0312-3.4688-3.0312zm4 9.4688-1.0312 1.0312c-0.15254 0.15254-0.26267 0.31843-0.34375 0.5h2.75c-0.0811-0.18157-0.19121-0.34746-0.34375-0.5l-1.0312-1.0312z"/>
  <path id="path7625" class="link" style="color:#000000;text-indent:0;block-progression:tb;text-decoration-line:none;enable-background:accumulate;text-transform:none;fill:#bebebe" d="m511.5-300-0.34375 0.34375-1.4062 1.4062c-0.45315 0.45315-0.75 1.0626-0.75 1.75 0 1.3748 1.1252 2.5 2.5 2.5s2.5-1.1252 2.5-2.5c0-0.6874-0.29685-1.2968-0.75-1.75l-1.4062-1.4062zm-5 2-0.34375 0.34375-1.4062 1.4062c-0.45315 0.45315-0.75 1.0626-0.75 1.75 0 1.3748 1.1252 2.5 2.5 2.5s2.5-1.1252 2.5-2.5c0-0.6874-0.29685-1.2968-0.75-1.75l-1.4062-1.4062z"/>
 </g>
</svg>
