<?xml version="1.0" encoding="UTF-8" standalone="no"?>
<svg id="svg7384" xmlns:rdf="http://www.w3.org/1999/02/22-rdf-syntax-ns#" style="enable-background:new" xmlns="http://www.w3.org/2000/svg" xmlns:osb="http://www.openswatchbook.org/uri/2009/osb" height="16" width="16" version="1.1" xmlns:cc="http://creativecommons.org/ns#" xmlns:dc="http://purl.org/dc/elements/1.1/">
 <metadata id="metadata90">
  <rdf:RDF>
   <cc:Work rdf:about="">
    <dc:format>image/svg+xml</dc:format>
    <dc:type rdf:resource="http://purl.org/dc/dcmitype/StillImage"/>
    <dc:title>Moka Symbolic Icon Theme</dc:title>
   </cc:Work>
  </rdf:RDF>
 </metadata>
 <title id="title8473">Moka Symbolic Icon Theme</title>
 <defs id="defs7386">
  <filter id="filter7554" style="color-interpolation-filters:sRGB">
   <feBlend id="feBlend7556" mode="darken" in2="BackgroundImage"/>
  </filter>
 </defs>
 <g id="layer9" transform="translate(-361 308)">
  <path id="path6112" style="color:#bebebe;enable-background:accumulate;fill:#bebebe" d="m369-308-0.5 1.0312c0.16526-0.0117 0.33177-0.0312 0.5-0.0312s0.33474 0.0196 0.5 0.0312l-0.5-1.0312zm0 2c-3.3137 0-6 2.6863-6 6s2.6863 6 6 6 6-2.6863 6-6-2.6863-6-6-6zm-5.6562 0.34375 0.375 1.0938c0.21793-0.25121 0.46754-0.50082 0.71875-0.71875l-1.0938-0.375zm11.312 0-1.0938 0.375c0.25121 0.21793 0.50082 0.46754 0.71875 0.71875l0.375-1.0938zm-12.625 5.1562-1.0312 0.5 1.0312 0.5c-0.0117-0.16526-0.0312-0.33177-0.0312-0.5s0.0196-0.33474 0.0312-0.5zm13.938 0c0.0117 0.16526 0.0312 0.33177 0.0312 0.5s-0.0196 0.33474-0.0312 0.5l1.0312-0.5-1.0312-0.5zm-12.25 5.0625-0.375 1.0938 1.0938-0.375c-0.25121-0.21793-0.50082-0.46754-0.71875-0.71875zm10.562 0c-0.21793 0.25121-0.46754 0.50082-0.71875 0.71875l1.0938 0.375-0.375-1.0938zm-5.7812 2.4062 0.5 1.0312 0.5-1.0312c-0.16526 0.0117-0.33177 0.0312-0.5 0.0312s-0.33474-0.0196-0.5-0.0312z"/>
 </g>
</svg>
