<?xml version="1.0" encoding="UTF-8" standalone="no"?>
<svg id="svg7384" xmlns:rdf="http://www.w3.org/1999/02/22-rdf-syntax-ns#" style="enable-background:new" xmlns="http://www.w3.org/2000/svg" xmlns:osb="http://www.openswatchbook.org/uri/2009/osb" height="16" width="16" version="1.1" xmlns:cc="http://creativecommons.org/ns#" xmlns:dc="http://purl.org/dc/elements/1.1/">
 <metadata id="metadata90">
  <rdf:RDF>
   <cc:Work rdf:about="">
    <dc:format>image/svg+xml</dc:format>
    <dc:type rdf:resource="http://purl.org/dc/dcmitype/StillImage"/>
    <dc:title>Moka Symbolic Icon Theme</dc:title>
   </cc:Work>
  </rdf:RDF>
 </metadata>
 <title id="title8473">Moka Symbolic Icon Theme</title>
 <defs id="defs7386">
  <filter id="filter7554" style="color-interpolation-filters:sRGB">
   <feBlend id="feBlend7556" mode="darken" in2="BackgroundImage"/>
  </filter>
 </defs>
 <g id="layer9" transform="translate(-401 308)">
  <path id="path6096" style="color:#bebebe;enable-background:accumulate;fill:#bebebe" d="m408-308-0.5 1.0312c0.16191-0.0133 0.3348-0.0312 0.5-0.0312h0.5l-0.5-1zm0 2c-2.7614 0-5 2.2386-5 5 0 1.4514 0.63724 2.7428 1.625 3.6562 0.37328-0.47435 0.90196-0.85142 1.4688-1.125 0.00006-0.007 0-0.0242 0-0.0312 0-1.9204 1.5796-3.5 3.5-3.5 0.92961 0 1.7139 0.42878 2.3438 1.0312 0.10471-0.0117 0.20297-0.0312 0.3125-0.0312 0.265 0 0.5174 0.0529 0.75 0.125 0.001-0.0427 0-0.082 0-0.125 0-2.7614-2.2386-5-5-5zm-4.9375 0.0625 0.34375 1.0625c0.21905-0.25922 0.45953-0.4997 0.71875-0.71875l-1.0625-0.34375zm9.875 0-1.1562 0.375c0.27835 0.2219 0.54723 0.45225 0.78125 0.71875l0.375-1.0938zm-10.906 4.4375-1.0312 0.5 1.0312 0.5c-0.0135-0.16237-0.0312-0.33377-0.0312-0.5 0-0.1652 0.018-0.33809 0.0312-0.5zm11.938 0c0.0148 0.16931 0.0312 0.3264 0.0312 0.5 0 0.0275 0.002 0.0836 0 0.15625v0.34375l1-0.5-1.0312-0.5zm-4.375 1.5c-0.82915 0-1.5 0.67085-1.5 1.5 0 0.20412-0.002 0.3035 0 0.3125l0.21875 1.0312-1.0312 0.1875c-0.41122 0.063-0.76665 0.29996-1 0.625 0.54119 0.20058 1.1078 0.34375 1.7188 0.34375 2.0203 0 3.7426-1.2129 4.5312-2.9375-0.0934-0.0289-0.17848-0.0625-0.28125-0.0625-0.0927 0-0.17939 0.0306-0.28125 0.0625l-0.71875 0.21875-0.40625-0.625c-0.27219-0.40199-0.72319-0.65625-1.25-0.65625zm-6.1562 2.8125-0.375 1.125 1.0938-0.375-0.21875-0.1875c-0.18383-0.16999-0.33772-0.37112-0.5-0.5625z"/>
  <path id="path9684" style="color:#bebebe;text-indent:0;block-progression:tb;text-decoration-line:none;enable-background:accumulate;text-transform:none;fill:#bebebe" d="m409.59-301c-1.3748 0-2.5 1.1252-2.5 2.5 0 0.18216-0.006 0.35989 0.0312 0.53125-1.1974 0.18341-2.125 1.2222-2.125 2.4688 0 1.3748 1.1252 2.5 2.5 2.5h7c1.3748 0 2.5-1.1252 2.5-2.5s-1.1252-2.5-2.5-2.5c-0.0859 0-0.16624 0.0227-0.25 0.0312 0.00016-0.0105 0-0.0207 0-0.0312 0-1.0986-0.90135-2-2-2-0.206 0-0.40627 0.035-0.59375 0.0937-0.45043-0.66524-1.2032-1.0937-2.0624-1.0937z"/>
 </g>
</svg>
