<?xml version="1.0" encoding="UTF-8" standalone="no"?>
<svg
   xmlns:osb="http://www.openswatchbook.org/uri/2009/osb"
   xmlns:dc="http://purl.org/dc/elements/1.1/"
   xmlns:cc="http://creativecommons.org/ns#"
   xmlns:rdf="http://www.w3.org/1999/02/22-rdf-syntax-ns#"
   xmlns:svg="http://www.w3.org/2000/svg"
   xmlns="http://www.w3.org/2000/svg"
   width="16"
   version="1.1"
   style="enable-background:new"
   id="svg7384"
   height="16">
  <metadata
     id="metadata90">
    <rdf:RDF>
      <cc:Work
         rdf:about="">
        <dc:format>image/svg+xml</dc:format>
        <dc:type
           rdf:resource="http://purl.org/dc/dcmitype/StillImage" />
        <dc:title>Moka Symbolic Icon Theme</dc:title>
      </cc:Work>
    </rdf:RDF>
  </metadata>
  <title
     id="title8473">Moka Symbolic Icon Theme</title>
  <defs
     id="defs7386">
    <linearGradient
       osb:paint="solid"
       id="linearGradient5606">
      <stop
         style="stop-color:#000000;stop-opacity:1;"
         offset="0"
         id="stop5608" />
    </linearGradient>
    <filter
       style="color-interpolation-filters:sRGB"
       id="filter7554">
      <feBlend
         mode="darken"
         in2="BackgroundImage"
         id="feBlend7556" />
    </filter>
  </defs>
  <g
     transform="translate(-501.00018,-23.996641)"
     style="display:inline"
     id="layer9" />
  <g
     transform="translate(-501.00018,-23.996641)"
     style="display:inline;filter:url(#filter7554)"
     id="layer10" />
  <g
     transform="translate(-259.99998,-640.99664)"
     style="display:inline"
     id="layer1" />
  <g
     transform="translate(-501.00018,-23.996641)"
     style="display:inline"
     id="layer14" />
  <g
     transform="translate(-501.00018,-23.996641)"
     style="display:inline"
     id="layer15" />
  <g
     transform="translate(-501.00018,-23.996641)"
     style="display:inline"
     id="g71291" />
  <g
     transform="translate(-259.99998,-490.99664)"
     style="display:inline"
     id="layer2" />
  <g
     transform="translate(-259.99998,-490.99664)"
     style="display:inline"
     id="g6058" />
  <g
     transform="translate(-501.00018,-23.996641)"
     style="display:inline"
     id="layer12">
    <g
       transform="matrix(0.4886273,0,0,0.4886273,495.742,23.848893)"
       style="display:inline;fill:#bebebe;fill-opacity:1;stroke:none;enable-background:new"
       id="g3">
      <g
         style="fill:#bebebe;fill-opacity:1;stroke:none"
         id="g5">
        <g
           style="fill:#bebebe;fill-opacity:1;stroke:none"
           id="g7">
          <g
             style="fill:#bebebe;fill-opacity:1;stroke:none"
             id="g9" />
        </g>
      </g>
      <path
         style="clip-rule:evenodd;fill:#bebebe;fill-opacity:1;fill-rule:evenodd;stroke:none"
         id="path13"
         d="m 19.251152,2.3843919 c 1.6898,-0.3192 2.7972,1.5862 3.64,2.9008 0.8204,1.2768 1.8298,2.7748 1.4224,4.4366 -0.2268,0.9324001 -1.0696,1.4406001 -1.7066,1.9908001 -0.6286,0.5432 -1.5862,1.0416 -1.8186,1.876 -0.3794,1.3538 0.4508,2.7748 0.9646,3.584 1.1676,1.8284 2.5788,3.4762 4.3806,4.9476 0.8722,0.714 2.0832,1.6674 3.297,1.4224 1.813,-0.3668 2.2918,-2.6026 4.2658,-2.9008 1.8788,-0.2842 3.15,1.078 4.2112,1.9908 1.022,0.8834 2.6712,2.0146 2.5592,3.528 -0.0658,0.8694 -0.763,1.4084 -1.3678,1.9334 -0.6146,0.5362 -1.1536,1.1382 -1.7612,1.5344 -1.4714,0.9604 -3.276,1.4308 -5.348,1.3664 -2.0314,-0.063 -3.6498,-0.7532 -5.1184,-1.5358 -2.8714,-1.5316 -5.1408,-3.6862 -7.2786,-6.0872 -2.1028,-2.3604 -4.0446,-5.1548 -5.1184,-8.2446 -1.3398,-3.8584 -0.6314,-7.8218001 1.5372,-10.2942001 0.3668,-0.42 0.9464,-0.8582 1.477,-1.309 0.5292,-0.4522 1.0192,-0.9996 1.7626,-1.1396 z" />
    </g>
  </g>
</svg>
