<?xml version="1.0" encoding="UTF-8" standalone="no"?>
<svg id="svg7384" xmlns:rdf="http://www.w3.org/1999/02/22-rdf-syntax-ns#" style="enable-background:new" xmlns="http://www.w3.org/2000/svg" xmlns:osb="http://www.openswatchbook.org/uri/2009/osb" height="16" width="16" version="1.1" xmlns:cc="http://creativecommons.org/ns#" xmlns:dc="http://purl.org/dc/elements/1.1/">
 <metadata id="metadata90">
  <rdf:RDF>
   <cc:Work rdf:about="">
    <dc:format>image/svg+xml</dc:format>
    <dc:type rdf:resource="http://purl.org/dc/dcmitype/StillImage"/>
    <dc:title>Moka Symbolic Icon Theme</dc:title>
   </cc:Work>
  </rdf:RDF>
 </metadata>
 <title id="title8473">Moka Symbolic Icon Theme</title>
 <defs id="defs7386">
  <filter id="filter7554" style="color-interpolation-filters:sRGB">
   <feBlend id="feBlend7556" mode="darken" in2="BackgroundImage"/>
  </filter>
 </defs>
 <g id="layer12" transform="translate(-421 -23.997)">
  <path id="path6751-4-4" style="color:#bebebe;enable-background:accumulate;fill:#bebebe" d="m429 24.997c-2.2091 0-4 1.7909-4 4s1.7909 4 4 4 4-1.7909 4-4-1.7909-4-4-4zm-3.2188 7.7812c-2.2487 1.1646-2.7812 3.5116-2.7812 6.2188h7v-1-2-1h1 1v-1-1h0.5625c-0.11629-0.0732-0.21672-0.15296-0.34375-0.21875-0.87459 0.74817-1.9848 1.2188-3.2188 1.2188-1.2339 0-2.3442-0.47058-3.2188-1.2188zm7.2188 1.2188v2h-2v2h2v2h2v-2h2v-2h-2v-2z"/>
 </g>
</svg>
