<?xml version="1.0" encoding="UTF-8" standalone="no"?>
<svg id="svg7384" xmlns:rdf="http://www.w3.org/1999/02/22-rdf-syntax-ns#" style="enable-background:new" xmlns="http://www.w3.org/2000/svg" xmlns:osb="http://www.openswatchbook.org/uri/2009/osb" height="16" width="16" version="1.1" xmlns:cc="http://creativecommons.org/ns#" xmlns:dc="http://purl.org/dc/elements/1.1/">
 <metadata id="metadata90">
  <rdf:RDF>
   <cc:Work rdf:about="">
    <dc:format>image/svg+xml</dc:format>
    <dc:type rdf:resource="http://purl.org/dc/dcmitype/StillImage"/>
    <dc:title>Moka Symbolic Icon Theme</dc:title>
   </cc:Work>
  </rdf:RDF>
 </metadata>
 <title id="title8473">Moka Symbolic Icon Theme</title>
 <defs id="defs7386">
  <filter id="filter7554" style="color-interpolation-filters:sRGB">
   <feBlend id="feBlend7556" mode="darken" in2="BackgroundImage"/>
  </filter>
 </defs>
 <g id="layer12" transform="translate(-501 15.003)">
  <path id="path4929" style="color:#bebebe;enable-background:accumulate;fill:#bebebe" d="m503-14.01v14l6 0.0067v-1l-5-0.0067v-12h10v6.0067h1v-7.0067z"/>
  <path id="path6355-2" style="color:#000000;enable-background:accumulate;fill:#bebebe" d="m513-6.0034v0.5625c-0.45253 0.0753-0.89155 0.24731-1.25 0.5l-0.15625-0.1875c-0.0979-0.0979-0.21594-0.125-0.34375-0.125h-0.5v0.5c0 0.12781 0.0583 0.27706 0.15625 0.375l0.15625 0.125c-0.25889 0.36223-0.42342 0.79092-0.5 1.25h-0.5625v1h0.5625c0.0766 0.45908 0.24111 0.88777 0.5 1.25l-0.15625 0.125c-0.0979 0.0979-0.15625 0.24719-0.15625 0.375v0.5h0.5c0.12781 0 0.27706-0.0271 0.375-0.125l0.15625-0.1875c0.35844 0.25269 0.76622 0.42467 1.2188 0.5v0.5625h1v-0.5625c0.45253-0.0753 0.86031-0.24731 1.2188-0.5l0.15625 0.1875c0.0979 0.0979 0.25 0.0984 0.375 0.125h0.5v-0.5c0-0.12781-0.0583-0.27706-0.15625-0.375l-0.15625-0.125c0.25889-0.36223 0.42343-0.79092 0.5-1.25h0.5625v-1h-0.5625c-0.0766-0.45908-0.24111-0.88777-0.5-1.25l0.15625-0.125c0.0979-0.0979 0.13942-0.2483 0.15625-0.375v-0.5h-0.5c-0.12781 0-0.27706 0.0271-0.375 0.125l-0.15625 0.1875c-0.35844-0.25269-0.76622-0.42467-1.2188-0.5v-0.5625zm0.5 1.5c1.1046 0 2 0.89543 2 2s-0.89543 2-2 2-2-0.89543-2-2 0.89543-2 2-2z"/>
 </g>
</svg>
