<?xml version="1.0" encoding="UTF-8" standalone="no"?>
<svg id="svg7384" xmlns:rdf="http://www.w3.org/1999/02/22-rdf-syntax-ns#" style="enable-background:new" xmlns="http://www.w3.org/2000/svg" xmlns:osb="http://www.openswatchbook.org/uri/2009/osb" height="16" width="16" version="1.1" xmlns:cc="http://creativecommons.org/ns#" xmlns:dc="http://purl.org/dc/elements/1.1/">
 <metadata id="metadata90">
  <rdf:RDF>
   <cc:Work rdf:about="">
    <dc:format>image/svg+xml</dc:format>
    <dc:type rdf:resource="http://purl.org/dc/dcmitype/StillImage"/>
    <dc:title>Moka Symbolic Icon Theme</dc:title>
   </cc:Work>
  </rdf:RDF>
 </metadata>
 <title id="title8473">Moka Symbolic Icon Theme</title>
 <defs id="defs7386">
  <filter id="filter7554" style="color-interpolation-filters:sRGB">
   <feBlend id="feBlend7556" mode="darken" in2="BackgroundImage"/>
  </filter>
 </defs>
 <g id="layer12" transform="translate(-301 -3.9966)">
  <path id="path3810" style="color:#000000;enable-background:accumulate;fill:#bebebe" d="m309 3.9966c-1.1046 0-2 0.89543-2 2h-4v10 3h1.6562 10.344v-13h-4c0-0.13807-0.005-0.27605-0.0312-0.40625-0.18649-0.91137-1.0022-1.5938-1.9688-1.5938zm0 1c0.41421 0 0.75444 0.26608 0.90625 0.625 0.0506 0.11964 0.0937 0.23693 0.0937 0.375 0 0.55228-0.44771 1-1 1s-1-0.44772-1-1 0.44771-1 1-1zm-5 2h3v1s-1 0-1 1h1 4 1c0-0.75-0.5625-0.95312-0.84375-1h-0.15625v-1h2 1v2 6 3h-8-1-1v-10-0.5z"/>
 </g>
</svg>
