<?xml version="1.0" encoding="UTF-8" standalone="no"?>
<svg id="svg7384" xmlns:rdf="http://www.w3.org/1999/02/22-rdf-syntax-ns#" style="enable-background:new" xmlns="http://www.w3.org/2000/svg" xmlns:osb="http://www.openswatchbook.org/uri/2009/osb" height="16" width="16" version="1.1" xmlns:cc="http://creativecommons.org/ns#" xmlns:dc="http://purl.org/dc/elements/1.1/">
 <metadata id="metadata90">
  <rdf:RDF>
   <cc:Work rdf:about="">
    <dc:format>image/svg+xml</dc:format>
    <dc:type rdf:resource="http://purl.org/dc/dcmitype/StillImage"/>
    <dc:title>Moka Symbolic Icon Theme</dc:title>
   </cc:Work>
  </rdf:RDF>
 </metadata>
 <title id="title8473">Moka Symbolic Icon Theme</title>
 <defs id="defs7386">
  <filter id="filter7554" style="color-interpolation-filters:sRGB">
   <feBlend id="feBlend7556" mode="darken" in2="BackgroundImage"/>
  </filter>
 </defs>
 <g id="layer12" transform="translate(-381 16.003)">
  <path id="path10839-3-4" style="color:#bebebe;text-indent:0;block-progression:tb;enable-background:new;text-transform:none;fill:#bebebe" d="m389.03-14.941c-3.8533 0-6.9688 3.1154-6.9688 6.9688 0 3.8533 3.1154 6.9688 6.9688 6.9688 3.8533 0 6.9688-3.1154 6.9688-6.9688 0-3.8533-3.1154-6.9688-6.9688-6.9688zm-4.0312 2.9375h1c0.27614 0 0.53779 0.10028 0.71875 0.28125l2.2812 2.2812 2.2812-2.2812c0.18096-0.18097 0.44261-0.28125 0.71875-0.28125h1v1c0 0.27614-0.10029 0.53778-0.28125 0.71875l-2.2812 2.2812 2.2812 2.2812c0.18096 0.18097 0.28125 0.44261 0.28125 0.71875v1h-1c-0.27614 0-0.53779-0.10028-0.71875-0.28125l-2.2812-2.2812-2.2812 2.2812c-0.18096 0.18097-0.44261 0.28125-0.71875 0.28125h-1v-1c0-0.27614 0.10029-0.53778 0.28125-0.71875l2.2812-2.2812-2.2812-2.2812c-0.18096-0.18097-0.28125-0.44261-0.28125-0.71875v-1z"/>
 </g>
</svg>
