<?xml version="1.0" encoding="UTF-8" standalone="no"?>
<svg id="svg7384" xmlns:rdf="http://www.w3.org/1999/02/22-rdf-syntax-ns#" style="enable-background:new" xmlns="http://www.w3.org/2000/svg" xmlns:osb="http://www.openswatchbook.org/uri/2009/osb" height="16" width="16" version="1.1" xmlns:cc="http://creativecommons.org/ns#" xmlns:dc="http://purl.org/dc/elements/1.1/">
 <metadata id="metadata90">
  <rdf:RDF>
   <cc:Work rdf:about="">
    <dc:format>image/svg+xml</dc:format>
    <dc:type rdf:resource="http://purl.org/dc/dcmitype/StillImage"/>
    <dc:title>Moka Symbolic Icon Theme</dc:title>
   </cc:Work>
  </rdf:RDF>
 </metadata>
 <title id="title8473">Moka Symbolic Icon Theme</title>
 <defs id="defs7386">
  <filter id="filter7554" style="color-interpolation-filters:sRGB">
   <feBlend id="feBlend7556" mode="darken" in2="BackgroundImage"/>
  </filter>
 </defs>
 <g id="layer12" transform="translate(-421 -43.997)">
  <path id="path11643-3-2-6" style="fill:#bebebe" d="m425 46.997v2h6c0.42816 0 1 0.61414 1 1h2c0-1.6343-1.3198-3-3-3h-6zm-1 7c0.006 0.72062 0.26893 1.4527 0.78125 2.0312 0.51232 0.57854 1.3105 0.96875 2.2188 0.96875h5 1 1v-0.84375c0.0156-0.09375 0-0.15625 0-0.15625v-1-1h-2v1h-5c-0.39787 0-0.56691-0.10979-0.71875-0.28125s-0.27877-0.43937-0.28125-0.71875h-2z"/>
  <path id="path5100-8" style="color:#000000;text-indent:0;block-progression:tb;text-decoration-line:none;enable-background:accumulate;text-transform:none;fill:#bebebe" d="m422 50.997v2h14v-2h-14z"/>
 </g>
</svg>
