<?xml version="1.0" encoding="UTF-8" standalone="no"?>
<svg id="svg7384" xmlns:rdf="http://www.w3.org/1999/02/22-rdf-syntax-ns#" style="enable-background:new" xmlns="http://www.w3.org/2000/svg" xmlns:osb="http://www.openswatchbook.org/uri/2009/osb" height="16" width="16" version="1.1" xmlns:cc="http://creativecommons.org/ns#" xmlns:dc="http://purl.org/dc/elements/1.1/">
 <metadata id="metadata90">
  <rdf:RDF>
   <cc:Work rdf:about="">
    <dc:format>image/svg+xml</dc:format>
    <dc:type rdf:resource="http://purl.org/dc/dcmitype/StillImage"/>
    <dc:title>Moka Symbolic Icon Theme</dc:title>
   </cc:Work>
  </rdf:RDF>
 </metadata>
 <title id="title8473">Moka Symbolic Icon Theme</title>
 <defs id="defs7386">
  <filter id="filter7554" style="color-interpolation-filters:sRGB">
   <feBlend id="feBlend7556" mode="darken" in2="BackgroundImage"/>
  </filter>
 </defs>
 <g id="layer12" transform="translate(-301 -63.997)">
  <path id="path3482-5-5" class="error" style="color:#bebebe;enable-background:accumulate;fill:#e13f2b" d="m313.5 72.997c-1.933 0-3.5 1.567-3.5 3.5s1.567 3.5 3.5 3.5 3.5-1.567 3.5-3.5-1.567-3.5-3.5-3.5zm0 3h2.5v1h-2.5-2.5v-1z"/>
  <rect id="rect6620" style="color:#000000;enable-background:new;fill:#bebebe" height="2" width="10" y="66.997" x="304"/>
  <path id="rect6622" style="color:#000000;enable-background:new;fill:#bebebe" d="m304 70.997v2h6.6875c0.77002-0.61639 1.7494-1 2.8125-1 0.17178 0 0.33323 0.0438 0.5 0.0625v-1.0625h-10z"/>
  <path id="rect6624" style="color:#000000;enable-background:new;fill:#bebebe" d="m304 74.997v2h5.0625c-0.0187-0.16677-0.0625-0.32822-0.0625-0.5 0-0.53043 0.11271-1.0274 0.28125-1.5h-5.2812z"/>
 </g>
</svg>
