<?xml version="1.0" encoding="UTF-8" standalone="no"?>
<svg id="svg7384" xmlns:rdf="http://www.w3.org/1999/02/22-rdf-syntax-ns#" style="enable-background:new" xmlns="http://www.w3.org/2000/svg" xmlns:osb="http://www.openswatchbook.org/uri/2009/osb" height="16" width="15.982" version="1.1" xmlns:cc="http://creativecommons.org/ns#" xmlns:dc="http://purl.org/dc/elements/1.1/">
 <metadata id="metadata90">
  <rdf:RDF>
   <cc:Work rdf:about="">
    <dc:format>image/svg+xml</dc:format>
    <dc:type rdf:resource="http://purl.org/dc/dcmitype/StillImage"/>
    <dc:title>Moka Symbolic Icon Theme</dc:title>
   </cc:Work>
  </rdf:RDF>
 </metadata>
 <title id="title8473">Moka Symbolic Icon Theme</title>
 <path id="path9296" style="fill:#bebebe" d="m0-0.000001v2c0.55228 0 1 0.44772 1 1s-0.44772 1-1 1v1c0.55229 0 1 0.44772 1 1s-0.44771 1-1 1v1c0.55228 0 1 0.44772 1 1s-0.44772 1-1 1v1c0.55228 0 1 0.44772 1 1s-0.44772 1-1 1v2h2c0-0.55228 0.44772-1 1-1s1 0.44772 1 1h1c0-0.55228 0.44772-1 1-1s1 0.44772 1 1h1c0-0.55228 0.44772-1 1-1 0.55229 0 1 0.44772 1 1h1c0-0.55228 0.44771-1 1-1s1 0.44772 1 1h2v-2c-0.55229 0-1-0.44772-1-1s0.44771-1 1-1v-1c-0.55229 0-1-0.44772-1-1s0.44771-1 1-1v-1c-0.55229 0-1-0.44772-1-1s0.44771-1 1-1v-1c-0.55229 0-1-0.44772-1-1s0.44771-1 1-1v-2h-2c0 0.55228-0.44771 1-1 1s-1-0.44772-1-1h-1c0 0.55228-0.44771 1-1 1-0.55228 0-1-0.44772-1-1h-1c0 0.55228-0.44772 1-1 1s-1-0.44772-1-1h-1c0 0.55228-0.44772 1-1 1s-1-0.44772-1-1h-2zm2 2h11v11h-1.5c0-1.2394-0.19074-2.3521-0.78125-3.1875-0.048-0.0852-0.0986-0.17154-0.15625-0.25-0.0195-0.0227-0.0422-0.0403-0.0625-0.0625-0.0999-0.1266-0.22226-0.20834-0.34375-0.3125-0.15198-0.1303-0.32321-0.25565-0.5-0.34375-0.12335-0.0615-0.24366-0.11859-0.375-0.15625-0.49379 0.47964-1.0704 0.6875-1.7812 0.6875-0.71086 0-1.2875-0.20786-1.7812-0.6875-0.11157 0.0402-0.22867 0.0985-0.34375 0.15625-0.009 0.004-0.0226-0.004-0.0312 0-0.0348 0.018-0.0602 0.0436-0.0937 0.0625-0.25438 0.14299-0.5108 0.32554-0.71875 0.5625-0.031 0.0329-0.0645 0.0597-0.0937 0.0937-0.0389 0.0501-0.0588 0.10222-0.0937 0.15625-0.6428 0.8432-0.844 1.9982-0.844 3.2812h-1.5v-11z"/>
 <circle id="path9298" cy="6.3077" cx="7.5" r="2.3077" style="color:#bebebe;enable-background:accumulate;fill:#bebebe"/>
</svg>
