<?xml version="1.0" encoding="UTF-8" standalone="no"?>
<svg
   xmlns:osb="http://www.openswatchbook.org/uri/2009/osb"
   xmlns:dc="http://purl.org/dc/elements/1.1/"
   xmlns:cc="http://creativecommons.org/ns#"
   xmlns:rdf="http://www.w3.org/1999/02/22-rdf-syntax-ns#"
   xmlns:svg="http://www.w3.org/2000/svg"
   xmlns="http://www.w3.org/2000/svg"
   width="16.000013"
   version="1.1"
   style="enable-background:new"
   id="svg7384"
   height="16">
  <metadata
     id="metadata90">
    <rdf:RDF>
      <cc:Work
         rdf:about="">
        <dc:format>image/svg+xml</dc:format>
        <dc:type
           rdf:resource="http://purl.org/dc/dcmitype/StillImage" />
        <dc:title>Moka Symbolic Icon Theme</dc:title>
      </cc:Work>
    </rdf:RDF>
  </metadata>
  <title
     id="title8473">Moka Symbolic Icon Theme</title>
  <defs
     id="defs7386">
    <linearGradient
       osb:paint="solid"
       id="linearGradient5606">
      <stop
         style="stop-color:#000000;stop-opacity:1;"
         offset="0"
         id="stop5608" />
    </linearGradient>
    <filter
       style="color-interpolation-filters:sRGB"
       id="filter7554">
      <feBlend
         mode="darken"
         in2="BackgroundImage"
         id="feBlend7556" />
    </filter>
  </defs>
  <g
     transform="translate(-361.0002,-103.99664)"
     style="display:inline"
     id="layer9" />
  <g
     transform="translate(-361.0002,-103.99664)"
     style="display:inline;filter:url(#filter7554)"
     id="layer10" />
  <g
     transform="translate(-120,-720.99664)"
     style="display:inline"
     id="layer1" />
  <g
     transform="translate(-361.0002,-103.99664)"
     style="display:inline"
     id="layer14" />
  <g
     transform="translate(-361.0002,-103.99664)"
     style="display:inline"
     id="layer15" />
  <g
     transform="translate(-361.0002,-103.99664)"
     style="display:inline"
     id="g71291" />
  <g
     transform="translate(-120,-570.99664)"
     style="display:inline"
     id="layer2" />
  <g
     transform="translate(-120,-570.99664)"
     style="display:inline"
     id="g6058" />
  <g
     transform="translate(-361.0002,-103.99664)"
     style="display:inline"
     id="layer12">
    <path
       style="display:inline;fill:#bebebe;fill-opacity:1;stroke:none"
       id="path3015-9-2"
       d="m 361.84395,105.00352 c -0.28125,0.0469 -0.84375,0.25 -0.84375,1 l 0,9 c 0,0 0,1 1,1 l 6,0 0,-4 c 0,0 7e-5,-0.0712 0,-0.0937 l -6.28125,-4.5 0.5625,-0.8125 6.03125,4.3125 c 0.29997,-0.44866 0.9383,-0.90625 1.6875,-0.90625 l 0.96875,0 4.75,-3.40625 0.5625,0.8125 -3.625,2.59375 3.34375,0 c 0.36709,0 0.71142,0.11486 1,0.28125 l 0,-4.28125 c 0,0 0,-1 -1,-1 l -14,0 c 0,0 -0.0625,-0.0156 -0.15625,0 z" />
    <path
       style="color:#bebebe;display:inline;overflow:visible;visibility:visible;fill:#f57900;fill-opacity:1;fill-rule:nonzero;stroke:none;stroke-width:2;marker:none"
       id="path6872-9"
       d="m 370.0002,119.00352 c -1,0 -1,-1 -1,-1 l 0,-6 c 0,-1 1,-1 1,-1 l 6,0 c 0,0 1,0 1,1 l 0,6 c 0,0 0,1 -1,1 z m 2,-1 2,0 0,-4 -2,0 z m 0,-5 2,0 0,-1 -2,0 z"
       class="warning" />
  </g>
</svg>
