<?xml version="1.0" encoding="UTF-8" standalone="no"?>
<svg id="svg7384" xmlns:rdf="http://www.w3.org/1999/02/22-rdf-syntax-ns#" style="enable-background:new" xmlns="http://www.w3.org/2000/svg" xmlns:osb="http://www.openswatchbook.org/uri/2009/osb" height="16" width="16" version="1.1" xmlns:cc="http://creativecommons.org/ns#" xmlns:dc="http://purl.org/dc/elements/1.1/">
 <metadata id="metadata90">
  <rdf:RDF>
   <cc:Work rdf:about="">
    <dc:format>image/svg+xml</dc:format>
    <dc:type rdf:resource="http://purl.org/dc/dcmitype/StillImage"/>
    <dc:title>Moka Symbolic Icon Theme</dc:title>
   </cc:Work>
  </rdf:RDF>
 </metadata>
 <title id="title8473">Moka Symbolic Icon Theme</title>
 <defs id="defs7386">
  <filter id="filter7554" style="color-interpolation-filters:sRGB">
   <feBlend id="feBlend7556" in2="BackgroundImage" mode="darken"/>
  </filter>
 </defs>
 <g id="layer12" transform="translate(-281 -149)">
  <path id="path3791" style="color:#000000;text-indent:0;block-progression:tb;text-decoration-line:none;enable-background:accumulate;text-transform:none;fill:#bebebe" d="m286.22 150-0.3125 0.28125-3.625 3.625-0.28125 0.3125v0.40625 4.75 0.40625l0.28125 0.3125 3.625 3.625 0.3125 0.28125h0.40625 4.75 0.40625l0.3125-0.28125 3.625-3.625 0.28125-0.3125v-0.40625-4.75-0.40625l-0.28125-0.3125-3.625-3.625-0.3125-0.28125h-0.40625-4.75-0.40625zm0.40625 1h4.75l3.625 3.625v4.75l-3.625 3.625h-4.75l-3.625-3.625v-4.75l3.625-3.625zm1.375 2c0 3.3488 0.003 4.3152 0 5h2c-0.005-2-0.009-3 0-5h-2zm0 6v2h2v-2h-2z"/>
 </g>
</svg>
