<?xml version="1.0" encoding="UTF-8" standalone="no"?>
<svg id="svg7384" xmlns:rdf="http://www.w3.org/1999/02/22-rdf-syntax-ns#" style="enable-background:new" xmlns="http://www.w3.org/2000/svg" xmlns:osb="http://www.openswatchbook.org/uri/2009/osb" height="16" width="16" version="1.1" xmlns:cc="http://creativecommons.org/ns#" xmlns:dc="http://purl.org/dc/elements/1.1/">
 <metadata id="metadata90">
  <rdf:RDF>
   <cc:Work rdf:about="">
    <dc:format>image/svg+xml</dc:format>
    <dc:type rdf:resource="http://purl.org/dc/dcmitype/StillImage"/>
    <dc:title>Moka Symbolic Icon Theme</dc:title>
   </cc:Work>
  </rdf:RDF>
 </metadata>
 <title id="title8473">Moka Symbolic Icon Theme</title>
 <defs id="defs7386">
  <filter id="filter7554" style="color-interpolation-filters:sRGB">
   <feBlend id="feBlend7556" mode="darken" in2="BackgroundImage"/>
  </filter>
 </defs>
 <g id="layer12" transform="translate(-381 -23.997)">
  <path id="path5874" style="color:#000000;enable-background:new;fill:#bebebe" d="m389 23.997c-2.7614 0-5 2.2386-5 5 0 0.17259 0.0142 0.33191 0.0312 0.5 0.0137 0.16725 0.0358 0.33617 0.0625 0.5 0.57248 3.5144 3.9906 6.2532 4.9062 9 0.91561-2.7468 4.3338-5.4856 4.9062-9 0.0267-0.16383 0.0488-0.33275 0.0625-0.5 0.0171-0.16809 0.0312-0.32741 0.0312-0.5 0-2.7614-2.2386-5-5-5zm0 3c1.1046 0 2 0.89543 2 2s-0.89543 2-2 2-2-0.89543-2-2 0.89543-2 2-2z"/>
 </g>
</svg>
