<?xml version="1.0" encoding="UTF-8" standalone="no"?>
<svg id="svg7384" xmlns:rdf="http://www.w3.org/1999/02/22-rdf-syntax-ns#" style="enable-background:new" xmlns="http://www.w3.org/2000/svg" xmlns:osb="http://www.openswatchbook.org/uri/2009/osb" height="16" width="16" version="1.1" xmlns:cc="http://creativecommons.org/ns#" xmlns:dc="http://purl.org/dc/elements/1.1/">
 <metadata id="metadata90">
  <rdf:RDF>
   <cc:Work rdf:about="">
    <dc:format>image/svg+xml</dc:format>
    <dc:type rdf:resource="http://purl.org/dc/dcmitype/StillImage"/>
    <dc:title>Moka Symbolic Icon Theme</dc:title>
   </cc:Work>
  </rdf:RDF>
 </metadata>
 <title id="title8473">Moka Symbolic Icon Theme</title>
 <defs id="defs7386">
  <filter id="filter7554" style="color-interpolation-filters:sRGB">
   <feBlend id="feBlend7556" mode="darken" in2="BackgroundImage"/>
  </filter>
 </defs>
 <g id="layer12" transform="translate(-501 56.003)">
  <path id="path5757" style="color:#000000;enable-background:new;fill:#bebebe" d="m505-52.003v1c0 0.27614 0.10028 0.53778 0.28125 0.71875l2.2812 2.2812-2.2812 2.2812c-0.18097 0.18097-0.28125 0.44261-0.28125 0.71875v1h1c0.27614 0 0.53778-0.10028 0.71875-0.28125l2.2812-2.2812 2.2812 2.2812c0.18096 0.18097 0.44261 0.28125 0.71875 0.28125h1v-1c0-0.27614-0.10029-0.53778-0.28125-0.71875l-2.2812-2.2812 2.2812-2.2812c0.18096-0.18097 0.3178-0.44504 0.28125-0.71875v-1h-1c-0.27614 0-0.53779 0.10028-0.71875 0.28125l-2.2812 2.2812-2.2812-2.2812c-0.18097-0.18097-0.44261-0.28125-0.71875-0.28125z"/>
 </g>
</svg>
