<?xml version="1.0" encoding="UTF-8" standalone="no"?>
<svg id="svg7384" xmlns:rdf="http://www.w3.org/1999/02/22-rdf-syntax-ns#" style="enable-background:new" xmlns="http://www.w3.org/2000/svg" xmlns:osb="http://www.openswatchbook.org/uri/2009/osb" height="16" width="15.982" version="1.1" xmlns:cc="http://creativecommons.org/ns#" xmlns:dc="http://purl.org/dc/elements/1.1/">
 <metadata id="metadata90">
  <rdf:RDF>
   <cc:Work rdf:about="">
    <dc:format>image/svg+xml</dc:format>
    <dc:type rdf:resource="http://purl.org/dc/dcmitype/StillImage"/>
    <dc:title>Moka Symbolic Icon Theme</dc:title>
   </cc:Work>
  </rdf:RDF>
 </metadata>
 <title id="title8473">Moka Symbolic Icon Theme</title>
 <path id="path5311" style="color:#bebebe;fill:#bebebe" d="m3.1873 2c-0.6627 0-1.1875 0.54894-1.1875 1.2188v9.5625c0 0.66976 0.5248 1.2188 1.1875 1.2188h9.625c0.6627 0 1.1875-0.54894 1.1875-1.2188v-9.5625c0-0.66976-0.5248-1.2188-1.1875-1.2188h-9.625zm0.8125 2h3v2h-1v1h-2v-3zm5 0h3v3h-2v-1h-1v-2zm-5 5h2v1h1v2h-3v-3zm6 0h2v3h-3v-2h1v-1z"/>
</svg>
