<?xml version="1.0" encoding="UTF-8" standalone="no"?>
<svg id="svg7384" xmlns:rdf="http://www.w3.org/1999/02/22-rdf-syntax-ns#" style="enable-background:new" xmlns="http://www.w3.org/2000/svg" xmlns:osb="http://www.openswatchbook.org/uri/2009/osb" height="16" width="16" version="1.1" xmlns:cc="http://creativecommons.org/ns#" xmlns:dc="http://purl.org/dc/elements/1.1/">
 <metadata id="metadata90">
  <rdf:RDF>
   <cc:Work rdf:about="">
    <dc:format>image/svg+xml</dc:format>
    <dc:type rdf:resource="http://purl.org/dc/dcmitype/StillImage"/>
    <dc:title>Moka Symbolic Icon Theme</dc:title>
   </cc:Work>
  </rdf:RDF>
 </metadata>
 <title id="title8473">Moka Symbolic Icon Theme</title>
 <path id="path1234-2" style="fill:#bebebe" d="m2 2c-0.52358 0.00005-0.99995 0.47642-1 1v10c0.00005 0.52358 0.47642 0.99995 1 1h4l-0.0002-1.9966h-3v-8h11v8h-2v1.997h3c0.51929 0 1-0.43513 1-1v-10c0.001-0.4666-0.437-1.0002-1-1z"/>
 <path id="path4136-5" style="fill:#bebebe" d="m8.7176 6.0133a3 3 0 0 0 -2.7188 3.0625 3 3 0 0 0 6 0 3 3 0 0 0 -3.2812 -3.0625zm0.28125 1c1.1046 0 2 0.89543 2 2s-0.89544 2-2 2-2-0.89543-2-2 0.89543-2 2-2z"/>
 <path id="path3655-4-1" style="fill:#bebebe;fill-rule:evenodd" d="m6.9998 11v5l0.00012 0.00002 2.0002-2 1.9998 2-0.00013-0.00002v-5"/>
</svg>
