<?xml version="1.0" encoding="UTF-8" standalone="no"?>
<svg id="svg2" xmlns:rdf="http://www.w3.org/1999/02/22-rdf-syntax-ns#" xmlns="http://www.w3.org/2000/svg" xmlns:osb="http://www.openswatchbook.org/uri/2009/osb" height="16" width="16" version="1.1" xmlns:cc="http://creativecommons.org/ns#" enable-background="new" xmlns:dc="http://purl.org/dc/elements/1.1/">
 <metadata id="metadata90">
  <rdf:RDF>
   <cc:Work rdf:about="">
    <dc:format>image/svg+xml</dc:format>
    <dc:type rdf:resource="http://purl.org/dc/dcmitype/StillImage"/>
   </cc:Work>
  </rdf:RDF>
 </metadata>
 <g id="layer14" transform="translate(-801 239)">
  <path id="path5998" d="m809-238c-3.866 0-7 3.134-7 7s3.134 7 7 7 7-3.134 7-7-3.134-7-7-7zm0 1a6 6 0 0 1 6 6 6 6 0 0 1 -6 6 6 6 0 0 1 -6 -6 6 6 0 0 1 0.1875 -1.4688c0.003-0.0139-0.004-0.0174 0-0.0312a6 6 0 0 1 0.1875 -0.59375c0.0115-0.0314 0.0193-0.0626 0.0312-0.0937a6 6 0 0 1 0.25 -0.53125c0.0105-0.0208 0.0205-0.0419 0.0312-0.0625a6 6 0 0 1 0.3125 -0.5c0.0184-0.0281 0.0124-0.066 0.0312-0.0937a6 6 0 0 1 0.0312 0 6 6 0 0 1 0.375 -0.5c0.0912-0.10821 0.18272-0.21109 0.28125-0.3125a6 6 0 0 1 0.125 -0.125c0.11933-0.11562 0.24632-0.23836 0.375-0.34375a6 6 0 0 1 0.0625 -0.0625c0.13446-0.10607 0.29391-0.21812 0.4375-0.3125a6 6 0 0 1 0.0625 -0.0312c0.14935-0.0947 0.31061-0.1998 0.46875-0.28125a6 6 0 0 1 0.0625 -0.0312c0.11098-0.0554 0.22885-0.10765 0.34375-0.15625 0.0553-0.0234 0.1002-0.0409 0.15625-0.0625 0.17166-0.0659 0.35248-0.13797 0.53125-0.1875a6 6 0 0 1 0.1875 -0.0312c0.0869-0.0215 0.16157-0.0444 0.25-0.0625 0.0372-0.008 0.0876-0.0241 0.125-0.0312a6 6 0 0 1 0.21875 -0.0312c0.0802-0.0121 0.16843-0.023 0.25-0.0312 0.0233-0.002 0.0383-0.00025 0.0625 0a6 6 0 0 1 0.57 -0.06zm-0.5 0.9375c-0.16822 0.0171-0.33709 0.0292-0.5 0.0625-0.32709 0.0669-0.63693 0.15412-0.9375 0.28125-1.4365 0.60759-2.5201 1.8682-2.9062 3.4062 0.01 0.0109 0.0198 0.019 0.0312 0.0312 0.26953 0.28784 0.97643 0.68555 1.5 0.875 0.28637 0.10363 0.84017 0.26615 1.2188 0.34375 0.37859 0.0775 0.63105 0.15325 0.59375 0.15625s-0.20667 0.12991-0.375 0.28125c-0.32108 0.28867-0.48623 0.54313-0.625 1-0.0761 0.25015-0.0679 0.33334 0.0312 0.46875 0.0598 0.0816 0.32777 0.27286 0.59375 0.4375 0.26597 0.16465 0.57658 0.39248 0.6875 0.5 0.41326 0.40055 0.6875 1.1167 0.6875 1.8125 0 0.17804 0.0182 0.272 0.0312 0.3125 0.0338 0.003 0.0598-0.003 0.0937 0 0.0765-0.0295 0.19268-0.065 0.375-0.15625 1.5276-0.76473 2.225-1.7525 2.1562-3.0625-0.0548-1.0446-0.54454-1.4227-2.5312-1.8438-1.4629-0.31006-2.25-0.83706-2.25-1.5 0-0.17482 0.059-0.27779 0.25-0.46875 0.20527-0.20529 0.24758-0.2192 0.40625-0.1875 0.10105 0.0202 0.36187 0.15364 0.5625 0.3125 0.45163 0.35763 0.67268 0.5 0.90625 0.5 0.0995 0 0.1875-0.0163 0.1875-0.0312s-0.0746-0.12954-0.15625-0.25c-0.45092-0.66439-0.42336-1.9074 0.0625-2.9688 0.0763-0.16663 0.133-0.28051 0.125-0.3125-0.0675 0.004-0.15186-0.007-0.21875 0zm4.6875 2.3438c-0.0909-0.0561-0.83013 0.72101-1 1.0625-0.33684 0.67717-0.21039 1.1202 0.59375 1.9688 0.27859 0.29395 0.6138 0.68906 0.71875 0.875 0.10494 0.18597 0.19415 0.3391 0.21875 0.3125s0.0986-0.24031 0.15625-0.46875c0.15161-0.60025 0.16344-1.6458 0-2.25-0.12659-0.46795-0.57005-1.4274-0.6875-1.5z" fill="#bebebe"/>
 </g>
</svg>
