<?xml version="1.0" encoding="UTF-8" standalone="no"?>
<svg
   xmlns:osb="http://www.openswatchbook.org/uri/2009/osb"
   xmlns:dc="http://purl.org/dc/elements/1.1/"
   xmlns:cc="http://creativecommons.org/ns#"
   xmlns:rdf="http://www.w3.org/1999/02/22-rdf-syntax-ns#"
   xmlns:svg="http://www.w3.org/2000/svg"
   xmlns="http://www.w3.org/2000/svg"
   width="16"
   version="1.1"
   style="enable-background:new"
   id="svg7384"
   height="16">
  <metadata
     id="metadata90">
    <rdf:RDF>
      <cc:Work
         rdf:about="">
        <dc:format>image/svg+xml</dc:format>
        <dc:type
           rdf:resource="http://purl.org/dc/dcmitype/StillImage" />
        <dc:title>Moka Symbolic Icon Theme</dc:title>
      </cc:Work>
    </rdf:RDF>
  </metadata>
  <title
     id="title8473">Moka Symbolic Icon Theme</title>
  <defs
     id="defs7386">
    <linearGradient
       osb:paint="solid"
       id="linearGradient5606">
      <stop
         style="stop-color:#000000;stop-opacity:1;"
         offset="0"
         id="stop5608" />
    </linearGradient>
    <filter
       id="filter7554"
       color-interpolation-filters="sRGB">
      <feBlend
         mode="darken"
         in2="BackgroundImage"
         id="feBlend7556" />
    </filter>
  </defs>
  <g
     transform="translate(-686.0002,289.00336)"
     style="display:inline"
     id="layer9" />
  <g
     transform="translate(-686.0002,289.00336)"
     style="display:inline;filter:url(#filter7554)"
     id="layer10" />
  <g
     transform="translate(-445,-327.99664)"
     style="display:inline"
     id="layer1" />
  <g
     transform="translate(-686.0002,289.00336)"
     style="display:inline"
     id="layer14">
    <path
       style="font-size:medium;font-style:normal;font-variant:normal;font-weight:normal;font-stretch:normal;text-indent:0;text-align:start;text-decoration:none;line-height:normal;letter-spacing:normal;word-spacing:normal;text-transform:none;direction:ltr;block-progression:tb;writing-mode:lr-tb;text-anchor:start;baseline-shift:baseline;color:#000000;fill:#bebebe;fill-opacity:1;stroke:none;stroke-width:1.99999988;marker:none;visibility:visible;display:inline;overflow:visible;enable-background:accumulate;font-family:Sans;-inkscape-font-specification:Sans"
       id="path35681"
       d="m 688.81289,-288.00336 a 1.0000999,1.0000999 0 0 0 -0.8125,1 l 0,13 a 1.0000999,1.0000999 0 0 0 1,1 l 10,0 a 1.0000999,1.0000999 0 0 0 1,-1 l 0,-9.4375 a 1.0000999,1.0000999 0 0 0 -0.28125,-0.71875 l -3.5625,-3.5625 a 1.0000999,1.0000999 0 0 0 -0.71875,-0.28125 l -6.4375,0 a 1.0000999,1.0000999 0 0 0 -0.0937,0 1.0000999,1.0000999 0 0 0 -0.0937,0 z m 1.1875,2 5,0 0,3 3,0 0,8 -8,0 0,-11 z" />
    <path
       style="font-size:medium;font-style:normal;font-variant:normal;font-weight:normal;font-stretch:normal;text-indent:0;text-align:start;text-decoration:none;line-height:normal;letter-spacing:normal;word-spacing:normal;text-transform:none;direction:ltr;block-progression:tb;writing-mode:lr-tb;text-anchor:start;baseline-shift:baseline;color:#000000;fill:#bebebe;fill-opacity:1;stroke:none;stroke-width:1;marker:none;visibility:visible;display:inline;overflow:visible;enable-background:accumulate;font-family:Sans;-inkscape-font-specification:Sans"
       id="path35302-7"
       d="m 694.5625,-278.6875 c -0.46643,-0.0643 -1.04585,-0.0985 -1.53125,0.28125 -0.40319,0.3154 -0.7654,0.72703 -1.09375,1.03125 -0.32835,0.30422 -0.65996,0.4375 -0.59375,0.4375 l -2.34375,0 0,1 2.34375,0 c 0.58207,0 0.88604,-0.38153 1.25,-0.71875 0.36396,-0.33722 0.75079,-0.72492 1.0625,-0.96875 0.10629,-0.0831 0.40859,-0.11389 0.78125,-0.0625 0.37266,0.0514 0.69959,0.1875 1.09375,0.1875 0.14648,0 0.20407,0.0328 0.3125,0.125 0.10843,0.0922 0.24045,0.24389 0.375,0.4375 0.13455,0.19361 0.28193,0.42119 0.5,0.625 0.21807,0.20381 0.56155,0.375 0.9375,0.375 l 0.84375,0 0,-1 -0.84375,0 c -0.0991,0 -0.15147,-0.002 -0.25,-0.0937 -0.0985,-0.0921 -0.23537,-0.26783 -0.375,-0.46875 -0.13963,-0.20092 -0.29184,-0.42134 -0.53125,-0.625 -0.23941,-0.20366 -0.57764,-0.375 -0.96875,-0.375 -0.0328,0 -0.50232,-0.12318 -0.96875,-0.1875 z" />
    <path
       style="font-size:medium;font-style:normal;font-variant:normal;font-weight:normal;font-stretch:normal;text-indent:0;text-align:start;text-decoration:none;line-height:normal;letter-spacing:normal;word-spacing:normal;text-transform:none;direction:ltr;block-progression:tb;writing-mode:lr-tb;text-anchor:start;baseline-shift:baseline;color:#000000;fill:#bebebe;fill-opacity:1;stroke:none;stroke-width:1.18468678;marker:none;visibility:visible;display:inline;overflow:visible;enable-background:accumulate;font-family:Sans;-inkscape-font-specification:Sans"
       id="path35306-9"
       d="m 692.41889,-283.1413 c -0.86024,0 -1.55632,0.72246 -1.55632,1.58269 0,0.86024 0.69608,1.55632 1.55632,1.55632 0.86024,0 1.5827,-0.69608 1.5827,-1.55632 0,-0.86023 -0.72246,-1.58269 -1.5827,-1.58269 z m 0,1.00237 c 0.3198,0 0.58032,0.26053 0.58032,0.58032 0,0.3198 -0.26052,0.55395 -0.58032,0.55395 -0.3198,0 -0.55394,-0.23415 -0.55394,-0.55395 0,-0.31979 0.23414,-0.58032 0.55394,-0.58032 z" />
  </g>
  <g
     transform="translate(-686.0002,289.00336)"
     style="display:inline"
     id="layer15" />
  <g
     transform="translate(-686.0002,289.00336)"
     style="display:inline"
     id="g71291" />
  <g
     transform="translate(-445,-177.99664)"
     style="display:inline"
     id="layer2" />
  <g
     transform="translate(-445,-177.99664)"
     style="display:inline"
     id="g6058" />
  <g
     transform="translate(-686.0002,289.00336)"
     style="display:inline"
     id="layer12" />
</svg>
