<?xml version="1.0" encoding="UTF-8" standalone="no"?>
<svg id="svg2" xmlns:rdf="http://www.w3.org/1999/02/22-rdf-syntax-ns#" xmlns="http://www.w3.org/2000/svg" xmlns:osb="http://www.openswatchbook.org/uri/2009/osb" height="16" width="16" version="1.1" xmlns:cc="http://creativecommons.org/ns#" enable-background="new" xmlns:dc="http://purl.org/dc/elements/1.1/">
 <metadata id="metadata90">
  <rdf:RDF>
   <cc:Work rdf:about="">
    <dc:format>image/svg+xml</dc:format>
    <dc:type rdf:resource="http://purl.org/dc/dcmitype/StillImage"/>
   </cc:Work>
  </rdf:RDF>
 </metadata>
 <g id="g71291" transform="translate(-741 63)">
  <path id="path5107" color="#bebebe" d="m749-62c-3.866 0-7 3.134-7 7s3.134 7 7 7 7-3.134 7-7-3.134-7-7-7zm-3 4c0.55404 0 1 0.44936 1 1s-0.44596 1-1 1c-0.55422 0-1-0.44936-1-1s0.44578-1 1-1zm6 0c0.55418 0 1 0.44936 1 1s-0.44582 1-1 1-1-0.44936-1-1 0.44582-1 1-1zm-3 4c1.1083 0 2 0.89889 2 2 0 1.1013-0.89174 2-2 2-1.1084 0-2-0.89871-2-2 0-1.1011 0.89165-2 2-2z" fill="#bebebe"/>
 </g>
</svg>
