<?xml version="1.0" encoding="UTF-8" standalone="no"?>
<svg
   xmlns:osb="http://www.openswatchbook.org/uri/2009/osb"
   xmlns:dc="http://purl.org/dc/elements/1.1/"
   xmlns:cc="http://creativecommons.org/ns#"
   xmlns:rdf="http://www.w3.org/1999/02/22-rdf-syntax-ns#"
   xmlns:svg="http://www.w3.org/2000/svg"
   xmlns="http://www.w3.org/2000/svg"
   id="svg2"
   enable-background="new"
   width="16"
   version="1.1"
   height="16">
  <metadata
     id="metadata90">
    <rdf:RDF>
      <cc:Work
         rdf:about="">
        <dc:format>image/svg+xml</dc:format>
        <dc:type
           rdf:resource="http://purl.org/dc/dcmitype/StillImage" />
      </cc:Work>
    </rdf:RDF>
  </metadata>
  <defs
     id="defs7386">
    <linearGradient
       osb:paint="solid"
       id="linearGradient5606">
      <stop
         id="stop5608" />
    </linearGradient>
  </defs>
  <g
     transform="translate(-680.99997,42.999998)"
     id="g71291">
    <g
       transform="translate(-2.3114062e-4,7.000002)"
       id="g4935">
      <path
         stroke-width="2"
         color="#bebebe"
         fill="#bebebe"
         transform="translate(241.0002,-436)"
         id="path7939"
         d="m 448,387 c -2.37562,0 -4.48452,1.19054 -5.75,3 l 11.5,0 c -1.26548,-1.80946 -3.37438,-3 -5.75,-3 z m 5.96875,3.34375 L 454,391.875 c 0,1.5064 -0.67495,2.625 -2.03125,2.625 l -0.84375,0 c -1.3563,0 -2.71875,-1.2435 -2.71875,-2.75 l 0,-0.4375 -0.8125,0 0,0.4375 c -0.0181,1.5064 -1.36235,2.75 -2.71875,2.75 l -0.84375,0 c -1.3561,0 -2.02025,-1.1186 -2.03125,-2.625 l -0.0312,-1.4375 C 441.35095,391.48086 441,392.69957 441,394 c 0,3.86599 3.13401,7 7,7 3.86599,0 7,-3.13401 7,-7 0,-1.34169 -0.37671,-2.59129 -1.03125,-3.65625 z m -9.09375,6.0625 c 0.7011,0.2849 1.77725,0.46875 2.96875,0.46875 1.1915,0 2.2364,-0.18385 2.9375,-0.46875 0.1414,0.144 0.25,0.30495 0.25,0.46875 0,0.7028 -1.4296,1.90625 -3.1875,1.90625 -1.7578,0 -3.1875,-1.20345 -3.1875,-1.90625 0,-0.1638 0.0772,-0.32475 0.21875,-0.46875 z" />
    </g>
  </g>
</svg>
