<?xml version="1.0" encoding="UTF-8" standalone="no"?>
<svg id="svg2" xmlns:rdf="http://www.w3.org/1999/02/22-rdf-syntax-ns#" xmlns="http://www.w3.org/2000/svg" xmlns:osb="http://www.openswatchbook.org/uri/2009/osb" height="16" width="16" version="1.1" xmlns:cc="http://creativecommons.org/ns#" enable-background="new" xmlns:dc="http://purl.org/dc/elements/1.1/">
 <metadata id="metadata90">
  <rdf:RDF>
   <cc:Work rdf:about="">
    <dc:format>image/svg+xml</dc:format>
    <dc:type rdf:resource="http://purl.org/dc/dcmitype/StillImage"/>
   </cc:Work>
  </rdf:RDF>
 </metadata>
 <g id="g71291" transform="translate(-801 43)">
  <g id="g4913" transform="translate(-206 -301)">
   <path id="path7986" d="m568 387c-3.866 0-7 3.134-7 7s3.134 7 7 7 7-3.134 7-7-3.134-7-7-7zm-3 4c0.5541 0 1 0.44954 1 1 0 0.55064-0.4459 1-1 1s-1-0.44936-1-1c0-0.55046 0.4459-1 1-1zm6 0c0.5541 0 1 0.44954 1 1 0 0.55064-0.4459 1-1 1-0.5542 0-1-0.44936-1-1 0-0.55046 0.4458-1 1-1zm-5.5 5h5c0.27698 0 0.5 0.17255 0.5 0.40625v0.15625c0 0.2337-0.22302 0.4375-0.5 0.4375h-0.5v1.25c0 0.9272-0.669 1.6875-1.5 1.6875-0.8313 0-1.5-0.7603-1.5-1.6875v-1.25h-1.5c-0.27698 0-0.5-0.2038-0.5-0.4375v-0.15625c0-0.24 0.22-0.41 0.5-0.41z" color="#bebebe" transform="translate(447 -128)" stroke-width="2" fill="#bebebe"/>
  </g>
 </g>
</svg>
