<?xml version="1.0" encoding="UTF-8" standalone="no"?>
<svg id="svg2" xmlns:rdf="http://www.w3.org/1999/02/22-rdf-syntax-ns#" xmlns="http://www.w3.org/2000/svg" xmlns:osb="http://www.openswatchbook.org/uri/2009/osb" height="16" width="16" version="1.1" xmlns:cc="http://creativecommons.org/ns#" enable-background="new" xmlns:dc="http://purl.org/dc/elements/1.1/">
 <metadata id="metadata90">
  <rdf:RDF>
   <cc:Work rdf:about="">
    <dc:format>image/svg+xml</dc:format>
    <dc:type rdf:resource="http://purl.org/dc/dcmitype/StillImage"/>
   </cc:Work>
  </rdf:RDF>
 </metadata>
 <g id="g71291" transform="translate(-861 43)">
  <path id="path8009" color="#bebebe" d="m869-42c-3.866 0-7 3.134-7 7s3.134 7 7 7 7-3.134 7-7-3.134-7-7-7zm-3 4c0.55407 0 1 0.44945 1 1 0 0.55064-0.44593 1-1 1-0.55424 0-1-0.44936-1-1 0-0.55055 0.44576-1 1-1zm6 0c0.55415 0 1 0.44945 1 1 0 0.55064-0.44585 1-1 1-0.55407 0-1-0.44936-1-1 0-0.55055 0.44593-1 1-1zm-6.875 3a0.50005 0.50005 0 0 1 0.0625 0 0.50005 0.50005 0 0 1 0.375 0.0625c0.72245 0.44361 1.1725 1.1663 1.3438 1.9375h4.1875c0.17125-0.77124 0.6213-1.4626 1.3438-1.9062a0.50005 0.50005 0 0 1 0.375 -0.0625 0.50005 0.50005 0 0 1 0.15625 0.90625c-0.94633 0.58108-1.2686 1.8037-0.6875 2.75 0.0962 0.15658 0.23992 0.31293 0.375 0.4375a0.50871 0.50871 0 0 1 -0.6875 0.75c-0.20262-0.18685-0.38703-0.42138-0.53125-0.65625-0.23297-0.37941-0.35813-0.80247-0.40625-1.2188h-4.0625c-0.0481 0.41628-0.17328 0.80809-0.40625 1.1875-0.14827 0.24146-0.32148 0.46577-0.53125 0.65625a0.50871 0.50871 0 0 1 -0.6875 -0.75c0.13985-0.12699 0.2762-0.27652 0.375-0.4375 0.58108-0.94633 0.25883-2.1689-0.6875-2.75a0.50005 0.50005 0 0 1 0.1 -0.908z" fill="#bebebe"/>
 </g>
</svg>
