<?xml version="1.0" encoding="UTF-8" standalone="no"?>
<svg id="svg2" xmlns:rdf="http://www.w3.org/1999/02/22-rdf-syntax-ns#" xmlns="http://www.w3.org/2000/svg" xmlns:osb="http://www.openswatchbook.org/uri/2009/osb" height="16" width="16" version="1.1" xmlns:cc="http://creativecommons.org/ns#" enable-background="new" xmlns:dc="http://purl.org/dc/elements/1.1/">
 <metadata id="metadata90">
  <rdf:RDF>
   <cc:Work rdf:about="">
    <dc:format>image/svg+xml</dc:format>
    <dc:type rdf:resource="http://purl.org/dc/dcmitype/StillImage"/>
   </cc:Work>
  </rdf:RDF>
 </metadata>
 <g id="g71291" transform="translate(-761 43)">
  <path id="path8003" color="#bebebe" d="m769-42c-3.866 0-7 3.134-7 7s3.134 7 7 7 7-3.134 7-7-3.134-7-7-7zm-3 4c0.55404 0 1 0.44936 1 1s-0.44596 1-1 1c-0.55422 0-1-0.44936-1-1 0-0.55055 0.44578-1 1-1zm6 0c0.55418 0 1 0.44936 1 1s-0.44582 1-1 1-1-0.44936-1-1c0-0.55055 0.44582-1 1-1zm-4.9375 4.5c0.755-0.1008 1.6036 0.19715 2.375 0.96875 0.5861 0.5855 0.9858 0.64875 1.375 0.59375 0.389-0.0549 0.81685-0.2948 1.2188-0.625a0.60257 0.60257 0 1 1 0.75 0.90625c-0.4692 0.3853-1.0575 0.79975-1.8125 0.90625-0.7548 0.1067-1.6306-0.1618-2.4062-0.9375-0.5901-0.5906-0.96425-0.676-1.3438-0.625-0.3795 0.0507-0.8294 0.30655-1.25 0.65625a0.60257 0.60257 0 1 1 -0.75 -0.90625c0.4882-0.406 1.0888-0.8368 1.8438-0.9375z" stroke-width="2" fill="#bebebe"/>
 </g>
</svg>
