<?xml version="1.0" encoding="UTF-8" standalone="no"?>
<svg id="svg2" xmlns:rdf="http://www.w3.org/1999/02/22-rdf-syntax-ns#" xmlns="http://www.w3.org/2000/svg" xmlns:osb="http://www.openswatchbook.org/uri/2009/osb" height="16" width="16" version="1.1" xmlns:cc="http://creativecommons.org/ns#" enable-background="new" xmlns:dc="http://purl.org/dc/elements/1.1/">
 <metadata id="metadata90">
  <rdf:RDF>
   <cc:Work rdf:about="">
    <dc:format>image/svg+xml</dc:format>
    <dc:type rdf:resource="http://purl.org/dc/dcmitype/StillImage"/>
   </cc:Work>
  </rdf:RDF>
 </metadata>
 <g id="g71291" transform="translate(-761 63.031)">
  <path id="path5944" color="#bebebe" d="m769-62.031c-3.866 0-7 3.134-7 7s3.134 7 7 7 7-3.134 7-7-3.134-7-7-7zm-3 4.0312c0.55228 0 1 0.44772 1 1s-0.44772 1-1 1-1-0.44772-1-1 0.44772-1 1-1zm6 0c0.55228 0 1 0.44772 1 1s-0.44772 1-1 1-1-0.44772-1-1 0.44772-1 1-1zm-6.6875 5c0.87981 0.30105 2.1923 0.5 3.6875 0.5s2.8077-0.19895 3.6875-0.5c0.17732 0.15216 0.3125 0.32681 0.3125 0.5 0 1.25-1.794 2.5-4 2.5-2.2059 0-4-1.25-4-2.5 0-0.17319 0.1348-0.34784 0.3125-0.5z" fill="#bebebe"/>
 </g>
</svg>
