<?xml version="1.0" encoding="UTF-8" standalone="no"?>
<svg id="svg2" xmlns:rdf="http://www.w3.org/1999/02/22-rdf-syntax-ns#" xmlns="http://www.w3.org/2000/svg" xmlns:osb="http://www.openswatchbook.org/uri/2009/osb" height="16" width="16" version="1.1" xmlns:cc="http://creativecommons.org/ns#" enable-background="new" xmlns:dc="http://purl.org/dc/elements/1.1/">
 <metadata id="metadata90">
  <rdf:RDF>
   <cc:Work rdf:about="">
    <dc:format>image/svg+xml</dc:format>
    <dc:type rdf:resource="http://purl.org/dc/dcmitype/StillImage"/>
   </cc:Work>
  </rdf:RDF>
 </metadata>
 <g id="g71291" transform="translate(-741 43)">
  <path id="rect5869" color="#bebebe" d="m749-42c-3.866 0-7 3.134-7 7s3.134 7 7 7 7-3.134 7-7-3.134-7-7-7zm-3 4c0.55427 0 1 0.44949 1 1 0 0.55069-0.44573 1-1 1-0.55409 0-1-0.44931-1-1 0-0.55051 0.44591-1 1-1zm6 0c0.55411 0 1 0.44949 1 1 0 0.55069-0.44589 1-1 1-0.55412 0-1-0.44931-1-1 0-0.55051 0.44588-1 1-1zm-7 4 4 1 4-1c0.0206 0.14762 0.0192 0.27798 0 0.40625-0.0576 0.38481-0.27337 0.6646-0.65625 0.75l-1.3438 0.34375 1.3125 0.3125c0.53601 0.14363 0.6606 0.49922 0.6875 0.84375 0.009 0.11484 0 0.23785 0 0.34375l-4-1-4 1c-0.0655-0.63125 0.0484-0.97818 0.53125-1.125l1.4688-0.375-1.5-0.34375c-0.4745-0.12796-0.5831-0.67248-0.5-1.1562z" stroke-width="2" fill="#bebebe"/>
 </g>
</svg>
