<?xml version="1.0" encoding="UTF-8" standalone="no"?>
<svg id="svg2" xmlns:rdf="http://www.w3.org/1999/02/22-rdf-syntax-ns#" xmlns="http://www.w3.org/2000/svg" xmlns:osb="http://www.openswatchbook.org/uri/2009/osb" height="16" width="16" version="1.1" xmlns:cc="http://creativecommons.org/ns#" enable-background="new" xmlns:dc="http://purl.org/dc/elements/1.1/">
 <metadata id="metadata90">
  <rdf:RDF>
   <cc:Work rdf:about="">
    <dc:format>image/svg+xml</dc:format>
    <dc:type rdf:resource="http://purl.org/dc/dcmitype/StillImage"/>
   </cc:Work>
  </rdf:RDF>
 </metadata>
 <g id="g71291" transform="translate(-661 43)">
  <path id="path8008" color="#bebebe" d="m662-42 0.90625 3.5938c-0.17544 0.31076-0.3421 0.62736-0.46875 0.96875v0.0312c-0.0154 0.0421-0.0479 0.0825-0.0625 0.125-0.0417 0.12169-0.0587 0.25038-0.0937 0.375-0.0384 0.1348-0.0632 0.26821-0.0937 0.40625-0.0113 0.0516-0.0211 0.10425-0.0312 0.15625-0.0123 0.0626-0.0206 0.1244-0.0312 0.1875-0.0246 0.14763-0.0784 0.2869-0.0937 0.4375-0.003 0.0306 0.003 0.063 0 0.0937-0.0181 0.20546-0.0312 0.41483-0.0312 0.625 0 3.866 3.134 7 7 7 0.24162 0 0.48363-0.007 0.71875-0.0312 3.5295-0.35842 6.281-3.3443 6.281-6.9687 0-0.39665-0.061-0.77692-0.125-1.1562-0.0104-0.0627-0.019-0.1253-0.0312-0.1875-0.0104-0.0532-0.0195-0.10345-0.0312-0.15625-0.0293-0.13406-0.0568-0.27519-0.0937-0.40625-0.0347-0.12169-0.0528-0.25621-0.0937-0.375-0.0154-0.0448-0.0463-0.0806-0.0625-0.125-0.12937-0.35332-0.29014-0.67806-0.46875-1l0.9-3.594-2.8125 1.4062c-0.20531-0.15552-0.4295-0.30443-0.65625-0.4375-0.26073-0.15301-0.53162-0.28745-0.8125-0.40625-0.24827-0.10627-0.48817-0.20365-0.75-0.28125-0.33157-0.0966-0.68132-0.17195-1.0312-0.21875-0.31045-0.0432-0.61484-0.0625-0.9375-0.0625-0.48325 0-0.95027 0.0629-1.4062 0.15625-0.18504 0.0388-0.38316 0.0718-0.5625 0.125-0.26121 0.0761-0.50238 0.17652-0.75 0.28125-0.28088 0.1188-0.55177 0.25324-0.8125 0.40625-0.22675 0.13307-0.45094 0.28198-0.65625 0.4375l-2.82-1.406zm1.875 4.6875c0.0413-0.0146 0.0913-0.005 0.0937 0 0.004 0.0214 3.6998 0.53125 3.7188 0.53125 0.3278 0.2889 0.2495 0.74705 0.0625 1.0312-0.003 0.005-0.64958-0.0005-1.0938 0 0.20865 0.18204 0.34375 0.45126 0.34375 0.75 0 0.5507-0.44581 1-1 1-0.55409 0-1-0.4493-1-1 0-0.29874 0.13512-0.56796 0.34375-0.75-0.69113-0.002-1.4688 0-1.4688 0s-0.47225-0.44095-0.40625-0.96875c0.0494-0.3957 0.28242-0.54989 0.40625-0.59375zm10.156 0c0.01-0.022 0.4341 0.0661 0.5 0.59375 0.066 0.5278-0.40625 0.96875-0.40625 0.96875s-0.77764-0.002-1.4688 0c0.20864 0.18204 0.34375 0.45126 0.34375 0.75 0 0.5507-0.44572 1-1 1-0.55409 0-1-0.4493-1-1 0-0.29874 0.13512-0.56796 0.34375-0.75-0.44415-0.0005-1.0908 0.005-1.0938 0-0.1871-0.2842-0.2654-0.74235 0.0625-1.0312 0.019 0 3.7144-0.50985 3.7188-0.53125zm-7.8125 4.9375c0.6829 0.2775 1.7145 0.4375 2.875 0.4375 1.1604 0 2.1921-0.16 2.875-0.4375 0.1377 0.1403 0.21875 0.2778 0.21875 0.4375 0 0.6844-1.3814 1.875-3.0938 1.875-1.7122 0-3.125-1.1906-3.125-1.875 0-0.1597 0.1127-0.2972 0.25-0.4375z" stroke-width="2" fill="#bebebe"/>
 </g>
</svg>
