<?xml version="1.0" encoding="UTF-8" standalone="no"?>
<svg id="svg2" xmlns:rdf="http://www.w3.org/1999/02/22-rdf-syntax-ns#" xmlns="http://www.w3.org/2000/svg" xmlns:osb="http://www.openswatchbook.org/uri/2009/osb" height="16" width="16" version="1.1" xmlns:cc="http://creativecommons.org/ns#" enable-background="new" xmlns:dc="http://purl.org/dc/elements/1.1/">
 <metadata id="metadata90">
  <rdf:RDF>
   <cc:Work rdf:about="">
    <dc:format>image/svg+xml</dc:format>
    <dc:type rdf:resource="http://purl.org/dc/dcmitype/StillImage"/>
   </cc:Work>
  </rdf:RDF>
 </metadata>
 <g id="g71291" transform="translate(-721 43)">
  <g id="g4920" transform="translate(-286 -221)">
   <path id="path7981" d="m488 387c-3.866 0-7 3.134-7 7s3.134 7 7 7 7-3.134 7-7-3.134-7-7-7zm-3 4c0.5542 0 1 0.44949 1 1 0 0.55069-0.4458 1-1 1-0.554 0-1-0.44931-1-1 0-0.55051 0.446-1 1-1zm6 0c0.5541 0 1 0.44949 1 1 0 0.55069-0.4459 1-1 1-0.5542 0-1-0.44931-1-1 0-0.55051 0.4458-1 1-1zm0.6875 4.5312c0.21054-0.01 0.6444 0.0372 0.84375 0.40625 0.2659 0.4922-0.34375 1.125-0.34375 1.125s-4.947 1.355-4.9688 1.3438c-0.3863-0.1995-0.6263-0.6356-0.1875-1.0625 0.03-0.01 4.5308-1.7582 4.5312-1.7812 0-0.006 0.0548-0.0279 0.125-0.0312z" color="#bebebe" transform="translate(527 -208)" stroke-width="2" fill="#bebebe"/>
  </g>
 </g>
</svg>
