<?xml version="1.0" encoding="UTF-8" standalone="no"?>
<svg id="svg2" xmlns:rdf="http://www.w3.org/1999/02/22-rdf-syntax-ns#" xmlns="http://www.w3.org/2000/svg" height="24" width="24" version="1.0" xmlns:cc="http://creativecommons.org/ns#" xmlns:dc="http://purl.org/dc/elements/1.1/">
 <metadata id="metadata11">
  <rdf:RDF>
   <cc:Work rdf:about="">
    <dc:format>image/svg+xml</dc:format>
    <dc:type rdf:resource="http://purl.org/dc/dcmitype/StillImage"/>
   </cc:Work>
  </rdf:RDF>
 </metadata>
 <path id="path3170-4" opacity=".2" d="m12 5c-4.416 0-8 3.584-8 8s3.584 8 8 8 8-3.584 8-8-3.584-8-8-8zm0 5c1.656 0 3 1.344 3 3s-1.344 3-3 3-3-1.344-3-3c1e-7 -1.656 1.344-3 3-3z" fill-rule="evenodd"/>
 <path id="path3170" opacity=".35" fill="#fff" d="m12 4c-4.416 0-8 3.584-8 8s3.584 8 8 8 8-3.584 8-8-3.584-8-8-8zm0 5c1.656 1e-7 3 1.344 3 3s-1.344 3-3 3-3-1.344-3-3c1e-7 -1.656 1.344-3 3-3z" fill-rule="evenodd"/>
 <path id="path3288" d="m12 4v5c1.656 1e-7 3 1.344 3 3 0 0.66784-0.22314 1.284-0.59375 1.7812l4.0625 2.9375c0.967-1.322 1.532-2.957 1.532-4.718 0-4.416-3.584-8-8-8z" fill="#fff"/>
</svg>
