<?xml version="1.0" encoding="UTF-8" standalone="no"?>
<svg id="svg2" xmlns:rdf="http://www.w3.org/1999/02/22-rdf-syntax-ns#" xmlns="http://www.w3.org/2000/svg" height="24" width="24" version="1.0" xmlns:cc="http://creativecommons.org/ns#" xmlns:dc="http://purl.org/dc/elements/1.1/">
 <metadata id="metadata11">
  <rdf:RDF>
   <cc:Work rdf:about="">
    <dc:format>image/svg+xml</dc:format>
    <dc:type rdf:resource="http://purl.org/dc/dcmitype/StillImage"/>
   </cc:Work>
  </rdf:RDF>
 </metadata>
 <path id="path3170-4" opacity=".2" d="m12 5c-4.416 0-8 3.584-8 8s3.584 8 8 8 8-3.584 8-8-3.584-8-8-8zm0 5c1.656 0 3 1.344 3 3s-1.344 3-3 3-3-1.344-3-3c1e-7 -1.656 1.344-3 3-3z" fill-rule="evenodd"/>
 <path id="path3170" opacity=".35" fill="#fff" d="m12 4c-4.416 0-8 3.584-8 8s3.584 8 8 8 8-3.584 8-8-3.584-8-8-8zm0 5c1.656 0 3 1.344 3 3s-1.344 3-3 3-3-1.344-3-3c1e-7 -1.656 1.344-3 3-3z" fill-rule="evenodd"/>
 <path id="path2744" d="m12 4v5c0.98751 0 1.8595 0.48173 2.4062 1.2188 0.1757 0.23792 0.31084 0.48556 0.40625 0.75l4.782-1.5315c-0.259-0.7664-0.65-1.5023-1.156-2.1875-1.458-1.971-3.8-3.25-6.438-3.25z" fill="#fff"/>
</svg>
