<?xml version="1.0" encoding="UTF-8" standalone="no"?>
<svg id="svg2" xmlns:rdf="http://www.w3.org/1999/02/22-rdf-syntax-ns#" xmlns="http://www.w3.org/2000/svg" height="24" width="24" version="1.0" xmlns:cc="http://creativecommons.org/ns#" xmlns:xlink="http://www.w3.org/1999/xlink" xmlns:dc="http://purl.org/dc/elements/1.1/">
 <defs id="defs11">
  <linearGradient id="linearGradient3768">
   <stop id="stop3770" style="stop-color:#fff" offset="0"/>
   <stop id="stop3772" style="stop-color:#fff;stop-opacity:0" offset="1"/>
  </linearGradient>
  <linearGradient id="linearGradient3918" y2="10" gradientUnits="userSpaceOnUse" x2="23" y1="6" x1="12">
   <stop id="stop3854" offset="0"/>
   <stop id="stop3856" style="stop-opacity:0" offset="1"/>
  </linearGradient>
  <linearGradient id="linearGradient3920" y2="4.125" gradientUnits="userSpaceOnUse" x2="5.875" gradientTransform="matrix(-1 0 0 1 23.875 -.125)" y1="31.125" x1="5.875">
   <stop id="stop3848" offset="0"/>
   <stop id="stop3850" style="stop-opacity:0" offset="1"/>
  </linearGradient>
  <linearGradient id="linearGradient3922" y2="10" xlink:href="#linearGradient3768" gradientUnits="userSpaceOnUse" x2="23" y1="6" x1="12"/>
  <linearGradient id="linearGradient3924" y2="4.125" xlink:href="#linearGradient3768" gradientUnits="userSpaceOnUse" x2="5.875" gradientTransform="matrix(-1 0 0 1 23.875 -.125)" y1="31.125" x1="5.875"/>
 </defs>
 <metadata id="metadata25">
  <rdf:RDF>
   <cc:Work rdf:about="">
    <dc:format>image/svg+xml</dc:format>
    <dc:type rdf:resource="http://purl.org/dc/dcmitype/StillImage"/>
    <dc:title/>
   </cc:Work>
  </rdf:RDF>
 </metadata>
 <g id="g3836" style="opacity:.2" transform="matrix(.5 -.86603 .86603 .5 -4.3923 17.392)">
  <path id="path3838" style="block-progression:tb;text-indent:0;color:#000000;text-transform:none;fill:url(#linearGradient3918)" d="m12 4c-4.4064 0-8 3.5936-8 8s3.5936 8 8 8v-2c-3.3256 0-6-2.674-6-6 0-3.3256 2.6744-6 6-6 0.552 0 1-0.4477 1-1s-0.448-1-1-1z"/>
  <path id="path3840" style="block-progression:tb;text-indent:0;color:#000000;text-transform:none;fill:url(#linearGradient3920)" d="m12 4c4.4064 0 8 3.5936 8 8s-3.5936 8-8 8v-2c3.3256 0 6-2.6744 6-6s-2.6744-6-6-6z"/>
 </g>
 <g id="g3792" transform="matrix(.5 -.86603 .86603 .5 -4.3923 16.392)">
  <path id="path2990" style="block-progression:tb;text-indent:0;color:#000000;text-transform:none;fill:url(#linearGradient3922)" d="m12 4c-4.4064 0-8 3.5936-8 8s3.5936 8 8 8v-2c-3.3256 0-6-2.674-6-6 0-3.3256 2.6744-6 6-6 0.552 0 1-0.4477 1-1s-0.448-1-1-1z"/>
  <path id="path3785" style="block-progression:tb;text-indent:0;color:#000000;text-transform:none;fill:url(#linearGradient3924)" d="m12 4c4.4064 0 8 3.5936 8 8s-3.5936 8-8 8v-2c3.3256 0 6-2.6744 6-6s-2.6744-6-6-6z"/>
 </g>
</svg>
