<?xml version="1.0" encoding="UTF-8" standalone="no"?>
<svg
   xmlns:osb="http://www.openswatchbook.org/uri/2009/osb"
   xmlns:dc="http://purl.org/dc/elements/1.1/"
   xmlns:cc="http://creativecommons.org/ns#"
   xmlns:rdf="http://www.w3.org/1999/02/22-rdf-syntax-ns#"
   xmlns:svg="http://www.w3.org/2000/svg"
   xmlns="http://www.w3.org/2000/svg"
   height="16.00671"
   id="svg7384"
   style="enable-background:new"
   version="1.1"
   width="16">
  <metadata
     id="metadata90">
    <rdf:RDF>
      <cc:Work
         rdf:about="">
        <dc:format>image/svg+xml</dc:format>
        <dc:type
           rdf:resource="http://purl.org/dc/dcmitype/StillImage" />
        <dc:title>Moka Symbolic Icon Theme</dc:title>
      </cc:Work>
    </rdf:RDF>
  </metadata>
  <title
     id="title8473">Moka Symbolic Icon Theme</title>
  <defs
     id="defs7386">
    <linearGradient
       id="linearGradient5606"
       osb:paint="solid">
      <stop
         id="stop5608"
         offset="0"
         style="stop-color:#000000;stop-opacity:1;" />
    </linearGradient>
    <filter
       id="filter7554"
       style="color-interpolation-filters:sRGB">
      <feBlend
         id="feBlend7556"
         in2="BackgroundImage"
         mode="darken" />
    </filter>
  </defs>
  <g
     id="layer9"
     style="display:inline"
     transform="translate(-743.00024,-14.99329)" />
  <g
     id="layer10"
     style="display:inline;filter:url(#filter7554)"
     transform="translate(-743.00024,-14.99329)" />
  <g
     id="layer1"
     style="display:inline"
     transform="translate(-502.00004,-631.99329)" />
  <g
     id="layer14"
     style="display:inline"
     transform="translate(-743.00024,-14.99329)" />
  <g
     id="layer15"
     style="display:inline"
     transform="translate(-743.00024,-14.99329)" />
  <g
     id="g71291"
     style="display:inline"
     transform="translate(-743.00024,-14.99329)" />
  <g
     id="layer2"
     style="display:inline"
     transform="translate(-502.00004,-481.99329)" />
  <g
     id="g6058"
     style="display:inline"
     transform="translate(-502.00004,-481.99329)">
    <path
       d="M 504.84375,483 C 504.5625,483.04688 504,483.25 504,484 l 0,13 c 0,1 1,1 1,1 l 10,0 c 1,0 1,-1 1,-1 0.0235,-0.0576 0,-13 0,-13 0,0 0,-1 -1,-1 l -10,0 c 0,0 -0.0625,-0.0156 -0.15625,0 z m 0.15625,1 10,0 0,3 0,10 -10,0 0,-13 z m 1,1 0,1 8,0 0,-1 -8,0 z m 0,2 0,1 8,0 0,-1 -8,0 z m 0,2 0,1 8,0 0,-1 -8,0 z m 0,2 0,1 5,0 0,-1 -5,0 z"
       id="path6072"
       style="display:inline;fill:#bebebe;fill-opacity:1;stroke:none;enable-background:new" />
  </g>
  <g
     id="layer12"
     style="display:inline"
     transform="translate(-743.00024,-14.99329)" />
</svg>
