<?xml version="1.0" encoding="UTF-8" standalone="no"?>
<svg
   xmlns:dc="http://purl.org/dc/elements/1.1/"
   xmlns:cc="http://creativecommons.org/ns#"
   xmlns:rdf="http://www.w3.org/1999/02/22-rdf-syntax-ns#"
   xmlns:svg="http://www.w3.org/2000/svg"
   xmlns="http://www.w3.org/2000/svg"
   xmlns:sodipodi="http://sodipodi.sourceforge.net/DTD/sodipodi-0.dtd"
   xmlns:inkscape="http://www.inkscape.org/namespaces/inkscape"
   viewBox="0 0 48 48"
   id="svg2"
   version="1.1"
   inkscape:version="0.91 r13725"
   sodipodi:docname="rhythmbox.svg">
  <metadata
     id="metadata49">
    <rdf:RDF>
      <cc:Work
         rdf:about="">
        <dc:format>image/svg+xml</dc:format>
        <dc:type
           rdf:resource="http://purl.org/dc/dcmitype/StillImage" />
        <dc:title />
      </cc:Work>
    </rdf:RDF>
  </metadata>
  <sodipodi:namedview
     pagecolor="#ffffff"
     bordercolor="#666666"
     borderopacity="1"
     objecttolerance="10"
     gridtolerance="10"
     guidetolerance="10"
     inkscape:pageopacity="0"
     inkscape:pageshadow="2"
     inkscape:window-width="1301"
     inkscape:window-height="744"
     id="namedview47"
     showgrid="false"
     inkscape:zoom="12.116878"
     inkscape:cx="26.347192"
     inkscape:cy="23.808511"
     inkscape:window-x="65"
     inkscape:window-y="24"
     inkscape:window-maximized="1"
     inkscape:current-layer="svg2" />
  <defs
     id="defs4">
    <linearGradient
       id="linearGradient3764"
       x1="1"
       x2="47"
       gradientUnits="userSpaceOnUse"
       gradientTransform="matrix(0,-1,1,0,-1.5e-6,47.999998)">
      <stop
         style="stop-color:#0bb8f9;stop-opacity:1"
         id="stop7" />
      <stop
         offset="1"
         style="stop-color:#20bef9;stop-opacity:1"
         id="stop9" />
    </linearGradient>
  </defs>
  <g
     id="g11" />
  <g
     inkscape:groupmode="layer"
     id="layer1"
     inkscape:label="base" />
  <path
     style="fill:#bd18a3;fill-opacity:1;stroke:#bd18a3;stroke-width:0.30000001;stroke-linejoin:round;stroke-miterlimit:4;stroke-dasharray:none;stroke-opacity:1"
     d="M 21.949333,46.715786 C 16.924815,46.344473 12.078394,44.161 8.2863111,40.560144 3.3453223,35.868319 0.88653387,29.748268 1.1747946,22.859216 1.4645961,15.933341 4.7485511,9.7511382 10.372882,5.543375 c 9.157132,-6.850778 21.910589,-5.82935938 30.014203,2.4038242 6.035238,6.1317338 8.081998,15.3412448 5.230825,23.5363728 -1.20777,3.471494 -3.096724,6.390563 -5.817478,8.989954 -4.86107,4.644238 -10.899964,6.755949 -17.851099,6.24226 z"
     id="path4151"
     inkscape:connector-curvature="0" />
  <g
     inkscape:groupmode="layer"
     id="layer2"
     inkscape:label="front">
    <g
       transform="matrix(1.0954614,0,0,1.0954614,14.177782,18.626196)"
       id="layer1-0"
       style="color:#bebebe;display:inline;overflow:visible;visibility:visible;fill:#ffffff;fill-opacity:1;fill-rule:nonzero;stroke:none;stroke-width:1;marker:none;enable-background:accumulate">
      <path
         d="m 15.640269,-5.9862811 -11.20227,2.3034046 c -0.8414993,0.1793712 -1.5189519,0.8929138 -1.5189519,1.5859507 l 0,10.9883731 C 2.0657439,8.5360057 0.96984303,8.3922783 -0.16632377,8.627122 -2.2165499,9.0509012 -3.501311,10.420487 -3.0618258,11.685741 c 0.4394851,1.265254 2.45916223,1.971969 4.5093883,1.54819 1.6356583,-0.338088 2.7631507,-1.294677 2.9429693,-2.303404 l -0.027871,-13.2010042 10.7080012,-2.3255759 0,11.0708134 C 14.217359,6.1193188 13.121458,5.9755907 11.985291,6.2104352 9.9350649,6.6342145 8.6503039,8.0038007 9.0897889,9.2690543 c 0.439485,1.2652547 2.4591621,1.9719687 4.5093891,1.5481897 1.635659,-0.338088 2.763151,-1.294677 2.942969,-2.3034044 l 0.04747,-13.5183418 c 0,-0.5197776 -0.403804,-0.9086601 -0.949348,-0.9817789 z"
         inkscape:connector-curvature="0"
         id="rect2996"
         style="color:#bebebe;display:inline;overflow:visible;visibility:visible;fill:#ffffff;fill-opacity:1;fill-rule:nonzero;stroke:none;stroke-width:1;marker:none;enable-background:accumulate"
         sodipodi:nodetypes="ccscsssccccsssccc" />
    </g>
    <ellipse
       style="fill:#bd18a3;fill-opacity:1;stroke:#bd18a3;stroke-width:0.33817983;stroke-linejoin:round;stroke-miterlimit:4;stroke-dasharray:none;stroke-opacity:1"
       id="path4227"
       cx="11.951046"
       cy="31.915312"
       rx="2.1282389"
       ry="1.0512635"
       transform="matrix(0.99551022,-0.09465409,0.08492275,0.99638754,0,0)" />
    <ellipse
       style="fill:#bd18a3;fill-opacity:1;stroke:#bd18a3;stroke-width:0.33817983;stroke-linejoin:round;stroke-miterlimit:4;stroke-dasharray:none;stroke-opacity:1"
       id="path4227-2"
       cx="25.497452"
       cy="30.551664"
       rx="2.1282389"
       ry="1.0512635"
       transform="matrix(0.99551022,-0.09465409,0.08492275,0.99638754,0,0)" />
  </g>
  <g
     inkscape:groupmode="layer"
     id="layer3"
     inkscape:label="Original"
     style="opacity:0.451" />
</svg>
