<?xml version="1.0" encoding="UTF-8" standalone="no"?>
<svg id="svg7384" xmlns:rdf="http://www.w3.org/1999/02/22-rdf-syntax-ns#" style="enable-background:new" xmlns="http://www.w3.org/2000/svg" xmlns:osb="http://www.openswatchbook.org/uri/2009/osb" height="16" width="16" version="1.1" xmlns:cc="http://creativecommons.org/ns#" xmlns:dc="http://purl.org/dc/elements/1.1/">
 <metadata id="metadata90">
  <rdf:RDF>
   <cc:Work rdf:about="">
    <dc:format>image/svg+xml</dc:format>
    <dc:type rdf:resource="http://purl.org/dc/dcmitype/StillImage"/>
    <dc:title>Moka Symbolic Icon Theme</dc:title>
   </cc:Work>
  </rdf:RDF>
 </metadata>
 <title id="title8473">Moka Symbolic Icon Theme</title>
 <defs id="defs7386">
  <filter id="filter7554" style="color-interpolation-filters:sRGB">
   <feBlend id="feBlend7556" mode="darken" in2="BackgroundImage"/>
  </filter>
 </defs>
 <g id="layer10" style="filter:url(#filter7554)" transform="translate(-281 156)">
  <path id="rect16707-6" style="color:#bebebe;fill:#bebebe" d="m289-155c-1.662 0-3 1.338-3 3v5c0 1.662 1.338 3 3 3s3-1.338 3-3v-5c0-1.662-1.338-3-3-3zm-4.5 4.5c-0.27614 0-0.5 0.22386-0.5 0.5v2.9062a0.5003 0.4998 0 0 0 0 0.0937c0 2.4088 1.7258 4.4097 4 4.875v2.125h2v-2.125c2.2742-0.4653 4-2.4662 4-4.875a0.5003 0.4998 0 0 0 0 -0.0312v-0.0625a0.5003 0.4998 0 0 0 0 -0.0937v-2.8126c0-0.27614-0.22386-0.5-0.5-0.5s-0.5 0.22386-0.5 0.5v2.8125a0.5003 0.4998 0 0 0 0 0.0937v0.0938c0 2.2127-1.7851 4-4 4s-4-1.7873-4-4a0.5003 0.4998 0 0 0 0 -0.0312v-2.9688c0-0.27614-0.22386-0.5-0.5-0.5z"/>
 </g>
</svg>
