<?xml version="1.0" encoding="UTF-8" standalone="no"?>
<svg
   xmlns:osb="http://www.openswatchbook.org/uri/2009/osb"
   xmlns:dc="http://purl.org/dc/elements/1.1/"
   xmlns:cc="http://creativecommons.org/ns#"
   xmlns:rdf="http://www.w3.org/1999/02/22-rdf-syntax-ns#"
   xmlns:svg="http://www.w3.org/2000/svg"
   xmlns="http://www.w3.org/2000/svg"
   height="16"
   id="svg7384"
   style="enable-background:new"
   version="1.1"
   width="16">
  <metadata
     id="metadata90">
    <rdf:RDF>
      <cc:Work
         rdf:about="">
        <dc:format>image/svg+xml</dc:format>
        <dc:type
           rdf:resource="http://purl.org/dc/dcmitype/StillImage" />
        <dc:title>Moka Symbolic Icon Theme</dc:title>
      </cc:Work>
    </rdf:RDF>
  </metadata>
  <title
     id="title8473">Moka Symbolic Icon Theme</title>
  <defs
     id="defs7386">
    <linearGradient
       id="linearGradient5606"
       osb:paint="solid">
      <stop
         id="stop5608"
         offset="0"
         style="stop-color:#000000;stop-opacity:1;" />
    </linearGradient>
    <filter
       id="filter7554"
       style="color-interpolation-filters:sRGB">
      <feBlend
         id="feBlend7556"
         in2="BackgroundImage"
         mode="darken" />
    </filter>
  </defs>
  <g
     id="layer9"
     style="display:inline"
     transform="translate(-481.00023,135.9876)" />
  <g
     id="layer10"
     style="display:inline;filter:url(#filter7554)"
     transform="translate(-481.00023,135.9876)">
    <path
       d="m 492.75023,-135.97211 c -0.16573,0.0331 -0.32322,0.13572 -0.5,0.3125 l -3.25,3.25 0,1.40625 1.40625,0 3.25,-3.25 c 0.7071,-0.70711 0,-1.40625 0,-1.40625 0,0 -0.40906,-0.41194 -0.90625,-0.3125 z m -2.75,6.96875 -1,1 1,1 5,0.0158 c 1,0.003 1,-1 1,-1 0,0 0,-0.99685 -1,-1 z m -1,4 0,1.40625 3.25,3.25 c 0.70711,0.70711 1.40625,0 1.40625,0 0,0 0.7071,-0.69914 0,-1.40625 l -3.25,-3.25 z"
       id="path5882-0"
       style="display:inline;fill:#bebebe;fill-opacity:1;stroke:none;enable-background:new" />
    <path
       d="m 482.00023,-130.9876 2.48437,0 2.96876,-3 0.54687,0.0156 0,12 -0.4753,8.3e-4 -3.04033,-3.01643 -2.48437,0 z"
       id="path5491-6"
       style="color:#bebebe;display:inline;overflow:visible;visibility:visible;fill:#bebebe;fill-opacity:1;fill-rule:nonzero;stroke:none;stroke-width:1;marker:none" />
  </g>
  <g
     id="layer1"
     style="display:inline"
     transform="translate(-240.00003,-481.0124)" />
  <g
     id="layer14"
     style="display:inline"
     transform="translate(-481.00023,135.9876)" />
  <g
     id="layer15"
     style="display:inline"
     transform="translate(-481.00023,135.9876)" />
  <g
     id="g71291"
     style="display:inline"
     transform="translate(-481.00023,135.9876)" />
  <g
     id="layer2"
     style="display:inline"
     transform="translate(-240.00003,-331.0124)" />
  <g
     id="g6058"
     style="display:inline"
     transform="translate(-240.00003,-331.0124)" />
  <g
     id="layer12"
     style="display:inline"
     transform="translate(-481.00023,135.9876)" />
</svg>
