<?xml version="1.0" encoding="UTF-8" standalone="no"?>
<svg id="svg7384" xmlns:rdf="http://www.w3.org/1999/02/22-rdf-syntax-ns#" style="enable-background:new" xmlns="http://www.w3.org/2000/svg" xmlns:osb="http://www.openswatchbook.org/uri/2009/osb" height="16" width="16.007" version="1.1" xmlns:cc="http://creativecommons.org/ns#" xmlns:dc="http://purl.org/dc/elements/1.1/">
 <metadata id="metadata90">
  <rdf:RDF>
   <cc:Work rdf:about="">
    <dc:format>image/svg+xml</dc:format>
    <dc:type rdf:resource="http://purl.org/dc/dcmitype/StillImage"/>
    <dc:title>Moka Symbolic Icon Theme</dc:title>
   </cc:Work>
  </rdf:RDF>
 </metadata>
 <title id="title8473">Moka Symbolic Icon Theme</title>
 <defs id="defs7386">
  <filter id="filter7554" style="color-interpolation-filters:sRGB">
   <feBlend id="feBlend7556" mode="darken" in2="BackgroundImage"/>
  </filter>
 </defs>
 <g id="layer10" style="filter:url(#filter7554)" transform="translate(-341 136)">
  <path id="path4922" style="fill:#bebebe" d="m342-136c-0.99979 0-1 1-1 1v10c0 0.0113-0.00025 0.0202 0 0.0312v1.9688c0 0.554 0.446 1 1 1h14c0.554 0 1-0.446 1-1v-1.8438c0.0156-0.0937 0-0.15625 0-0.15625v-10s0-1-1-1h-14zm0 1h14v10h-14v-10zm0 11h1v1h-1v-1zm2 3v1h10v-1h-10z"/>
 </g>
</svg>
