<?xml version="1.0" encoding="UTF-8" standalone="no"?>
<svg id="svg7384" xmlns:rdf="http://www.w3.org/1999/02/22-rdf-syntax-ns#" style="enable-background:new" xmlns="http://www.w3.org/2000/svg" xmlns:osb="http://www.openswatchbook.org/uri/2009/osb" height="16" width="16" version="1.1" xmlns:cc="http://creativecommons.org/ns#" xmlns:dc="http://purl.org/dc/elements/1.1/">
 <metadata id="metadata90">
  <rdf:RDF>
   <cc:Work rdf:about="">
    <dc:format>image/svg+xml</dc:format>
    <dc:type rdf:resource="http://purl.org/dc/dcmitype/StillImage"/>
    <dc:title>Moka Symbolic Icon Theme</dc:title>
   </cc:Work>
  </rdf:RDF>
 </metadata>
 <title id="title8473">Moka Symbolic Icon Theme</title>
 <defs id="defs7386">
  <filter id="filter7554" style="color-interpolation-filters:sRGB">
   <feBlend id="feBlend7556" mode="darken" in2="BackgroundImage"/>
  </filter>
 </defs>
 <g id="layer10" style="filter:url(#filter7554)" transform="translate(-361 136)">
  <path id="path5892" style="enable-background:new;fill:#bebebe" d="m362.5-135c-0.831 0-1.5 0.669-1.5 1.5v9c0 0.831 0.669 1.5 1.5 1.5h0.5v-1h-0.5c-0.277 0-0.5-0.223-0.5-0.5s0.223-0.5 0.5-0.5h0.5 12 0.5c0.277 0 0.5 0.223 0.5 0.5s-0.223 0.5-0.5 0.5h-0.5v1h0.5c0.831 0 1.5-0.669 1.5-1.5v-9c0-0.831-0.669-1.5-1.5-1.5z"/>
  <path id="rect6895-2" style="color:#000000;enable-background:new;fill:#bebebe" d="m364.09-124c0.46623 2.2784 2.49 4 4.9062 4s4.44-1.7216 4.9062-4h-2.0938c-0.41551 1.1584-1.5112 2-2.8125 2s-2.397-0.84165-2.8125-2zm3.1875 0c0.34604 0.5969 0.97915 1 1.7188 1 0.7396 0 1.3727-0.4031 1.7188-1z"/>
 </g>
</svg>
