<?xml version="1.0" encoding="UTF-8" standalone="no"?>
<svg id="svg7384" xmlns:rdf="http://www.w3.org/1999/02/22-rdf-syntax-ns#" style="enable-background:new" xmlns="http://www.w3.org/2000/svg" xmlns:osb="http://www.openswatchbook.org/uri/2009/osb" height="16" width="16" version="1.1" xmlns:cc="http://creativecommons.org/ns#" xmlns:dc="http://purl.org/dc/elements/1.1/">
 <metadata id="metadata90">
  <rdf:RDF>
   <cc:Work rdf:about="">
    <dc:format>image/svg+xml</dc:format>
    <dc:type rdf:resource="http://purl.org/dc/dcmitype/StillImage"/>
    <dc:title>Moka Symbolic Icon Theme</dc:title>
   </cc:Work>
  </rdf:RDF>
 </metadata>
 <title id="title8473">Moka Symbolic Icon Theme</title>
 <defs id="defs7386">
  <filter id="filter7554" style="color-interpolation-filters:sRGB">
   <feBlend id="feBlend7556" mode="darken" in2="BackgroundImage"/>
  </filter>
 </defs>
 <g id="layer10" style="filter:url(#filter7554)" transform="translate(-561 156)">
  <path id="rect7175" style="color:#bebebe;enable-background:accumulate;fill:#bebebe" d="m568-156c-2.77 0-5 2.676-5 6v4c0 3.324 2.23 6 5 6h1c2.77 0 5-2.676 5-6v-4c0-3.324-2.23-6-5-6v2c0.554 0 1 0.446 1 1v2c0 0.554-0.446 1-1 1v1c0 0.27614-0.22386 0.5-0.5 0.5s-0.5-0.22386-0.5-0.5v-1c-0.554 0-1-0.446-1-1v-2c0-0.554 0.446-1 1-1v-2z"/>
  <rect id="rect7201" style="color:#bebebe;enable-background:accumulate;fill:#bebebe" ry=".5" height="2" width="1" y="-153" x="568"/>
 </g>
</svg>
